<?xml version="1.0" encoding="UTF-8"?>
<svg id="Capa_1" xmlns="http://www.w3.org/2000/svg" version="1.1" viewBox="0 0 72 72">
  <!-- Generator: Adobe Illustrator 29.5.1, SVG Export Plug-In . SVG Version: 2.1.0 Build 141)  -->
  <defs>
    <style>
      .st0 {
        fill: #fff;
      }

      .st1 {
        fill: #7ebc00;
      }

      .st2 {
        fill: #ec7700;
      }

      .st3 {
        fill: #00c1de;
      }

      .st4 {
        fill: #1a5632;
      }
    </style>
  </defs>
  <g>
    <g>
      <path class="st0" d="M18.52,44.1c-.2,0-.41-.04-.6-.12-6.69-2.78-11.85-4.97-11.9-4.99-.44-.19-.76-.55-.9-1.01-.13-.45-.06-.94.2-1.34.03-.04,2.71-4.03,6.37-9.18.34-.48.92-.73,1.49-.65.58.07,1.07.46,1.28,1.01,1.68,4.45,3.74,9.63,5.53,14.11.24.59.1,1.27-.36,1.72-.3.3-.71.46-1.12.46ZM9.03,36.82c1.49.63,3.82,1.61,6.62,2.78-1.03-2.6-2.1-5.31-3.09-7.88-1.49,2.12-2.72,3.91-3.53,5.1Z"/>
      <path class="st0" d="M23.84,15.5c-.59,0-1.13-.33-1.41-.86-.29-.56-.22-1.23.18-1.72C30.79,2.81,33.13,2.25,34.69,2.52c.31.05.59.19.81.41.04.04,4.15,3.91,9.29,8.85.46.44.61,1.11.39,1.7-.22.59-.78,1-1.41,1.03-5.32.24-13.17.61-19.84.98-.03,0-.06,0-.09,0ZM33.92,5.79c-.7.36-2.52,1.66-6.53,6.34,4.27-.23,8.74-.44,12.55-.62-2.79-2.67-5.01-4.77-6.02-5.72ZM34.27,5.65"/>
      <path class="st0" d="M52.15,44.73c-.32,0-.64-.1-.92-.3-.49-.35-.74-.95-.64-1.55.96-5.71,2.33-11.84,4.08-18.22.15-.54.58-.97,1.12-1.11.54-.15,1.13,0,1.53.41,9.64,9.57,9.63,10.19,9.63,11.06,0,1.01,0,1.96-14.04,9.53-.24.13-.5.19-.76.19ZM57.02,28.14c-1.08,4.15-1.99,8.18-2.72,12.03,4.88-2.7,7.76-4.49,9.02-5.4-.76-.91-2.47-2.78-6.3-6.63ZM64.04,34.2h0Z"/>
      <path class="st0" d="M24.32,57.12c-.52,0-.8-.11-1.03-.2-.54-.21-.94-.61-1.15-1.11,0,0,0,0,0,0-1.1-2.77-2.26-5.64-3.37-8.42-.58-1.44-1.15-2.87-1.72-4.28-.24-.59-.1-1.27.36-1.72.45-.45,1.13-.58,1.72-.34,5.21,2.16,12.79,5.28,19.37,7.85.59.23.98.79,1.01,1.42.02.63-.33,1.22-.91,1.49-9.46,4.48-12.82,5.32-14.28,5.31ZM21.4,45.42c.1.26.21.52.32.78,1.02,2.53,2.07,5.15,3.08,7.69.9-.15,3.27-.78,9.1-3.4-4.27-1.7-8.72-3.51-12.5-5.07Z"/>
      <path class="st0" d="M12.98,29.96c-.07,0-.13,0-.2-.01-.58-.08-1.07-.46-1.28-1.01-1.54-4.07-2.6-7.12-3.24-9.3-.95-3.24-1.18-4.93.12-5.78,0,0,0,0,0,0,.51-.33,1.09-.71,15.37-1.52.63-.04,1.21.3,1.5.86.29.56.22,1.23-.18,1.72-3.02,3.73-6.65,8.58-10.8,14.39-.3.42-.79.67-1.29.66ZM10.72,16.48c.19,1.06.83,3.39,2.71,8.56,2.54-3.52,4.87-6.64,6.97-9.33-5.9.37-8.52.62-9.68.78Z"/>
      <path class="st0" d="M56.2,26.67c-.41,0-.81-.16-1.11-.46-3.31-3.29-7.39-7.26-12.48-12.14-.46-.44-.61-1.11-.39-1.7.22-.59.78-1,1.41-1.03,9-.4,16.37-.7,16.44-.7.52-.02,1.03.22,1.34.64.31.42.39.97.22,1.47-.02.05-1.86,5.28-3.9,12.74-.15.54-.57.97-1.12,1.11-.14.04-.28.05-.41.05ZM47.47,14.34c3.01,2.9,5.64,5.45,7.93,7.71,1-3.49,1.9-6.34,2.5-8.16-2.26.09-6.01.25-10.43.44Z"/>
      <path class="st0" d="M37.91,51.96c-.19,0-.39-.04-.57-.11-6.6-2.58-14.21-5.71-19.43-7.87-.39-.16-.71-.48-.86-.88-1.8-4.49-3.86-9.69-5.55-14.16-.19-.49-.11-1.05.19-1.48,4.19-5.87,7.86-10.76,10.92-14.54.28-.35.7-.56,1.14-.59,6.69-.38,14.54-.74,19.87-.99.44-.02.86.14,1.17.44,5.1,4.89,9.2,8.87,12.52,12.18.41.4.56.99.41,1.54-1.72,6.28-3.07,12.31-4.01,17.91-.08.48-.38.9-.81,1.13-4.8,2.59-9.88,5.17-14.31,7.27-.22.1-.45.15-.68.15ZM19.74,41.3c5,2.08,11.95,4.92,18.11,7.34,4.02-1.92,8.54-4.21,12.87-6.53.9-5.22,2.15-10.78,3.7-16.56-3.08-3.05-6.8-6.67-11.34-11.02-5.1.23-12.23.57-18.46.91-2.81,3.5-6.12,7.92-9.87,13.16,1.54,4.06,3.36,8.63,4.98,12.7Z"/>
      <g>
        <path class="st0" d="M38.32,25.24h-2.42c-.88-.01-1.58-.72-1.58-1.6v-2.51c0-.43.18-.83.49-1.13.31-.3.71-.46,1.14-.45,2.41.06,3.96,1.18,3.96,2.85v1.26c0,.88-.72,1.58-1.59,1.58Z"/>
        <path class="st0" d="M50.46,38.65h-.7c-1.32,0-2.25-.39-2.91-.91-.96.59-2.11.89-3.42.88-.52,0-1.01-.07-1.47-.2-.6.12-1.34.18-2.26.18h-.96c-.6,0-1.13-.08-1.61-.24-.6.14-1.39.21-2.4.22,0,0-.03,0-.04,0h-.93c-.58,0-1.11-.08-1.59-.24-.6.14-1.4.21-2.41.22,0,0-.03,0-.04,0h-.78c-1.32,0-2.26-.39-2.91-.9-.96.58-2.11.89-3.42.88-1.38,0-2.6-.48-3.52-1.39-.93-.92-1.41-2.17-1.41-3.61,0-1.1.34-2.08,1.01-2.92.47-.59,1.05-1.07,1.72-1.43-.13-.05-.25-.11-.37-.19-.6-.41-.99-1.09-1.2-2.09,0-.05-.02-.09-.02-.14l-.06-.53s0,0,0-.01c0-.07-.02-.15-.02-.26,0-.59.33-1.13.85-1.4,1.52-.8,3.13-1.2,4.79-1.19,1.86,0,3.29.57,4.26,1.67.27.3.5.64.69,1.03v-3.75c.02-1.67,1.58-2.78,4-2.83.41,0,.84.16,1.14.46.3.3.47.71.47,1.13v2.87c.26-.21.6-.33.97-.33h2.42c.82.01,1.5.64,1.57,1.44.14-.18.32-.33.53-.44,1.52-.79,3.13-1.19,4.79-1.19,1.85,0,3.29.57,4.26,1.67.93,1.05,1.41,2.67,1.4,4.82v2.93c-.01.25,0,.45,0,.6.39.04.75.23,1.01.52.3.34.44.79.39,1.24l-.23,1.98c-.09.8-.77,1.4-1.58,1.4ZM32.97,38.08h0s0,0,0,0ZM32.97,38.07s0,0,0,0c0,0,0,0,0,0ZM32.98,38.07s0,0,0,0c0,0,0,0,0,0ZM31.42,38.04s0,0,0,0c0,0,0,0,0,0ZM31.42,38.04s0,0,0,0c0,0,0,0,0,0ZM31.42,38.04s0,0,0,0c0,0,0,0,0,0ZM43.26,37.74s0,0,0,0c0,0,0,0,0,0ZM34.4,35.25s0,0,0,0c0,0,0,0,0,0ZM50.93,34.01h0ZM30.09,33.92h0ZM44.24,33.7h0ZM23.41,33.64h0,0ZM44.22,33.59s.11.01.2.01c.18,0,.39-.05.62-.15.08-.04.16-.07.22-.11v-.39c-.28.07-.53.16-.74.26-.3.15-.3.24-.3.31,0,.02,0,.05,0,.06ZM23.39,33.53s.11.01.2.01c.18,0,.39-.05.62-.15.08-.04.16-.08.23-.12v-.38c-.33.08-.57.18-.75.27-.3.15-.3.24-.3.31,0,.02,0,.05,0,.06ZM40.19,33.51h0,0ZM35.4,33.46s0,0-.01,0c0,0,0,0,.01,0ZM39.9,27.79v2.51c.38-.4.83-.74,1.34-1.01-.13-.05-.26-.11-.38-.2-.42-.29-.74-.73-.95-1.3ZM25.91,27.95h0,0ZM25.92,27.95h0,0ZM46.74,28.02h0,0ZM18.74,26.09h0s0,0,0,0Z"/>
      </g>
      <path class="st0" d="M50.64,56.31c-1.21,0-4.1-.87-13.29-4.46-.59-.23-.98-.79-1.01-1.42-.02-.63.33-1.22.91-1.49,4.38-2.07,9.41-4.63,14.17-7.19.53-.29,1.18-.25,1.67.11.49.35.74.95.64,1.55-.68,4.07-1.14,7.87-1.37,11.32-.03.53-.32,1.01-.77,1.3-.24.15-.46.29-.95.29ZM41.9,50.21c4.07,1.55,6.25,2.28,7.41,2.63.18-2.15.44-4.43.79-6.8-2.76,1.45-5.55,2.87-8.2,4.18Z"/>
    </g>
    <g>
      <path class="st2" d="M6.63,37.52s5.13,2.18,11.89,4.99c-2.03-5.07-3.95-9.94-5.54-14.13-3.69,5.19-6.35,9.15-6.35,9.15Z"/>
      <path class="st3" d="M34.42,4.08c-1.75-.3-5.95,4.11-10.57,9.83,6.21-.35,13.47-.69,19.86-.99-5.2-4.99-9.28-8.84-9.28-8.84Z"/>
      <path class="st1" d="M56.2,25.08c-1.43,5.21-2.95,11.53-4.04,18.07,7.34-3.96,13.2-7.49,13.21-8.14,0-.63-4.02-4.82-9.16-9.93Z"/>
      <path class="st1" d="M23.61,55.22c.48,1.19,6.76-1.27,14.31-4.84-6.12-2.39-13.4-5.37-19.4-7.86,1.68,4.19,3.43,8.52,5.09,12.7Z"/>
      <path class="st1" d="M9.25,15.18c-.76.5.94,5.79,3.74,13.2,3.2-4.48,7.16-9.89,10.86-14.47-7.88.45-14.06.92-14.6,1.27Z"/>
      <path class="st2" d="M60.13,12.23s-7.33.29-16.43.7c3.95,3.79,8.55,8.24,12.5,12.16,2.07-7.62,3.93-12.85,3.93-12.85Z"/>
      <path class="st4" d="M43.7,12.92c-6.39.29-13.65.63-19.86.99-3.7,4.57-7.66,9.99-10.86,14.47,1.58,4.19,3.51,9.06,5.54,14.13,6,2.49,13.28,5.47,19.4,7.86,4.61-2.18,9.71-4.79,14.24-7.23,1.1-6.54,2.62-12.86,4.04-18.07-3.95-3.92-8.55-8.37-12.5-12.16Z"/>
      <g>
        <path class="st0" d="M35.91,23.65v-2.51c.53.01,2.42.18,2.42,1.26v1.26s-2.42,0-2.42,0Z"/>
        <path class="st0" d="M49.77,37.06c-1.29,0-2.14-.47-2.61-1.42-.02-.04-.05-.07-.1-.07h-.01s-.08.02-.11.04c-.82.96-2,1.44-3.5,1.43-.5,0-.96-.08-1.36-.25-.02-.01-.04-.01-.05-.01-.01,0-.03,0-.04.01-.33.1-.99.23-2.3.23h-.95c-.59,0-1.08-.1-1.5-.32-.01,0-.04,0-.05,0-.02,0-.03,0-.05,0-.24.11-.88.28-2.44.3h-.02s-.93,0-.93,0c-.58,0-1.07-.1-1.48-.3-.02-.01-.04-.01-.06-.01-.02,0-.04,0-.05,0-.24.1-.88.28-2.43.29,0,0-.01,0-.02,0h-.78c-1.29,0-2.15-.48-2.6-1.42-.02-.04-.06-.07-.11-.07h-.01s-.07.02-.09.04c-.82.96-2.01,1.44-3.51,1.43-.97,0-1.78-.32-2.41-.93-.62-.62-.94-1.45-.93-2.47,0-.74.23-1.39.66-1.94.44-.55,1.03-.98,1.74-1.26.72-.28,1.45-.5,2.14-.62.69-.14,1.4-.2,2.1-.22.07,0,.13-.06.13-.12-.02-.85-.22-1.47-.59-1.83-.38-.37-.99-.55-1.8-.55-.83,0-1.74.23-2.71.7-.31-.21-.46-.73-.54-1.11l-.06-.53s0-.05,0-.07c1.3-.68,2.66-1.02,4.05-1.01,1.38,0,2.41.38,3.08,1.14.68.75,1.01,2.03,1,3.77v2.93c-.01.92.06,1.48.21,1.75.15.29.5.43,1.05.44h.31c.09,0,.51,0,.84-.06.06-.02.11-.08.1-.15-.05-.23-.06-.46-.06-.69l.04-11.75c0-1.08,1.9-1.24,2.43-1.25l-.04,11.81c0,.99.09,1.56.28,1.79.2.24.65.36,1.38.36.02,0,.51-.01.86-.12.06-.02.11-.09.09-.15-.04-.23-.06-.46-.06-.69l.03-8.88h2.42s-.02,7.7-.02,7.7c0,.99.09,1.56.29,1.79.2.24.65.36,1.38.36h0s.09,0,.22-.02c.04,0,.08-.01.1-.05.02-.04.02-.07.01-.12-.14-.39-.2-.82-.2-1.29,0-.74.22-1.39.66-1.94.44-.55,1.03-.98,1.74-1.26.72-.28,1.44-.5,2.14-.62.69-.14,1.4-.2,2.1-.22.07,0,.13-.06.13-.12-.01-.85-.21-1.47-.59-1.83-.38-.37-.99-.55-1.8-.55-.83,0-1.73.23-2.7.7-.33-.23-.48-.78-.55-1.2l-.04-.34c0-.07-.01-.13-.01-.17,1.3-.68,2.66-1.01,4.05-1.01,1.37,0,2.41.38,3.07,1.14.67.75,1.01,2.03,1,3.77v2.93c-.01.92.06,1.48.2,1.75.16.29.51.43,1.04.44h.17s-.23,1.98-.23,1.98h-.7ZM46.73,31.17c-1.18.04-2.16.25-2.91.62-.78.39-1.18.97-1.18,1.72,0,1.1.61,1.66,1.78,1.67.4,0,.82-.09,1.26-.29.45-.2.82-.46,1.14-.81.02-.02.03-.05.03-.09v-2.71s0-.06-.03-.09c-.03-.02-.05-.03-.09-.03h0ZM25.89,31.11c-1.18.04-2.16.25-2.91.62-.77.39-1.18.97-1.18,1.72,0,1.1.61,1.66,1.78,1.67.4,0,.82-.09,1.27-.29.44-.2.82-.46,1.13-.81.02-.02.04-.05.04-.08v-2.71s0-.06-.04-.09c-.02-.02-.05-.03-.09-.03h0Z"/>
      </g>
      <path class="st3" d="M50.77,54.62c.25-3.77.75-7.66,1.39-11.47-4.53,2.44-9.63,5.04-14.24,7.23,7.21,2.82,12.81,4.82,12.85,4.25Z"/>
    </g>
  </g>
  <g>
    <path class="st3" d="M32.39,58.98v1.59s1.46,0,1.46,0v-.8c0-.69-1.12-.79-1.46-.8Z"/>
    <path class="st3" d="M32.07,62.67v-1.35c-.13-.02-.22-.04-.38-.04-.7,0-1.46.4-1.79,1.21h-.05s-.05-1.08-.05-1.08h-1.25c.04.51.05,1.06.05,1.83v2.87s-.04.07-.07.08c-.17.03-.45.03-.49.03-.28,0-.46-.07-.54-.22-.08-.13-.12-.42-.11-.88v-1.47c0-.87-.16-1.51-.52-1.89-.35-.38-.89-.57-1.6-.57-.73,0-1.43.17-2.11.51,0,.01,0,.02,0,.04l.03.26c.04.19.12.45.28.56.5-.24.98-.35,1.41-.35.43,0,.74.09.94.28.2.18.3.49.31.92,0,.03-.03.06-.07.06-.37,0-.74.04-1.1.11-.36.06-.74.17-1.11.31-.37.14-.68.36-.91.63-.23.28-.34.6-.35.97,0,.11,0,.21.02.31-.33.19-.75.22-1.01.22-.63,0-.84-.36-.84-1.05v-2.51s1.48,0,1.48,0v-1.07s-1.47,0-1.47,0v-1.62s-1.24.33-1.24.33v1.28s-.94,0-.94,0v1.07s.93,0,.93,0v2.67c-.01.75.15,1.26.5,1.59.31.29.6.47,1.21.48.6,0,1.29-.17,1.85-.46-.02.01,0,0,0,0,.33.31.75.47,1.26.47.78,0,1.4-.24,1.83-.72.01-.01.03-.02.05-.02h0s.04.02.06.04c.24.48.68.71,1.36.71h.42c.81,0,.95-.14,1.08-.19,0,0,.02,0,.03,0,.01,0,.02,0,.03,0,0,0,.1.11.51.12.24,0,.36-.04.36-.04v-2.94c0-.16.04-.31.06-.44.15-.64.69-1.08,1.48-1.08.2,0,.35.02.48.05ZM26.11,65.67s0,.03-.02.04c-.16.17-.36.31-.59.4-.23.1-.45.14-.66.14-.61,0-.93-.29-.93-.84,0-.38.21-.67.61-.87.39-.19.9-.29,1.52-.31h0s.04,0,.05.02c.01.02.02.03.02.05v1.36Z"/>
    <path class="st3" d="M32.37,66.03c0,1.24-.13,1.68-.44,1.97-.27.24-.7.37-1.23.4l.06,1.12c.82,0,1.64-.19,2.21-.66.59-.51.85-1.25.85-2.42l.02-5.12h-1.46s-.01,4.7-.01,4.7Z"/>
    <path class="st3" d="M37.11,61.58c-1.88,0-2.79,1.4-2.79,2.9,0,1.66,1.02,2.74,2.93,2.74.85,0,1.55-.14,2.05-.33l-.21-.94c-.45.15-.94.24-1.63.24-.94,0-1.77-.43-1.81-1.41h3.75c.02-.11.05-.31.05-.57,0-1.19-.44-2.63-2.34-2.64ZM35.65,63.83c.06-.56.45-1.32,1.37-1.32.99,0,1.23.83,1.22,1.33h-2.58Z"/>
    <path class="st3" d="M52.03,63.85c-.86-.26-1.41-.42-1.41-.88,0-.44.61-.71,1.22-.7.6,0,1.16.23,1.45.37l.31-.93c-.39-.18-1.04-.34-1.8-.34-1.57,0-2.3.9-2.3,1.78,0,.56.27,1.27,1.59,1.66.84.25,1.38.31,1.38.83,0,.51-.6.63-1.36.63-.61,0-1.35-.21-1.74-.41l-.03.1c-.06.12-.2.3-.5.34h-.16c-.29,0-.47-.07-.55-.22-.08-.13-.12-.42-.12-.88v-1.47c0-.87-.17-1.51-.53-1.89-.35-.38-.9-.57-1.63-.57-.74,0-1.46.17-2.15.51,0,.01,0,.02,0,.04l.03.26c.04.19.12.45.29.56.51-.24.99-.35,1.43-.35.43,0,.75.09.96.28.2.18.31.49.31.92,0,.03-.03.06-.07.06-.37,0-.75.04-1.11.11-.37.06-.75.17-1.13.31-.38.14-.69.36-.92.63-.23.28-.35.6-.35.97,0,.13.01.26.03.38-.3.12-.63.15-.85.15-.63,0-.84-.36-.84-1.05v-2.51s1.48,0,1.48,0v-1.07s-1.47,0-1.47,0v-1.62s-1.24.33-1.24.33v1.28s-.94,0-.94,0v1.07s.93,0,.93,0v2.67c-.01.75.15,1.26.5,1.59.31.29.72.46,1.32.47.6,0,.96-.07,1.51-.36,0,0,.01,0,.02-.01.03-.01.1-.03.18.02h0c.31.23.69.36,1.14.36.79,0,1.42-.24,1.86-.72.01-.01.03-.02.05-.02h0s.05.02.06.04c.24.48.7.71,1.38.71.83,0,.95-.21,1.08-.26,0,0,.02,0,.03,0h0c.47.16,1.07.27,1.72.27,1.8,0,2.49-.74,2.5-1.76,0-.74-.35-1.28-1.58-1.66ZM46.74,65.73s0,.03-.02.04c-.17.17-.37.31-.6.4-.23.1-.46.14-.67.14-.62,0-.94-.29-.94-.84,0-.38.21-.67.62-.87.39-.19.91-.29,1.54-.31h0s.04,0,.05.02c.02.02.02.03.02.05v1.36Z"/>
  </g>
</svg>