<svg xmlns="http://www.w3.org/2000/svg" fill="none" viewBox="0 0 44 34"><path fill="#fff" fill-rule="evenodd" d="M40.333 31.333H3.667C1.833 31.333 0 29.5 0 27.667v-22C0 3.833 1.833 2 3.667 2h36.666C42.167 2 44 3.833 44 5.667v22c0 1.833-1.833 3.666-3.667 3.666z" clip-rule="evenodd"/><path stroke="#FF4713" stroke-opacity=".2" d="M40.333 30.833H3.667c-.754 0-1.55-.382-2.168-1C.882 29.218.5 28.422.5 27.668v-22c0-.754.382-1.55 1-2.168.617-.617 1.413-.999 2.167-.999h36.666c.754 0 1.55.382 2.168 1 .617.617.999 1.413.999 2.167v22c0 .754-.382 1.55-1 2.167-.617.617-1.413 1-2.167 1z"/><path fill="#FF4713" d="M42.14 11.105c0-.976-.72-1.766-1.645-1.766l-36.98-.006c-.925 0-1.676.79-1.676 1.766l-.006 7.398H42.14v-7.392z"/><path fill="#383A86" d="M12.96 11.545l1.137-.86 1.407 1.337 1.519-1.354.846.877-1.82 2.61 3.391 4.36h-2.09l-1.872-2.495-1 .735h-1.513v-.74l-.958.756h-3.21v-.8l-.943.795h-1.66l-.202-.549h-.688l-.555.549h-1.74l1.703-5.27 1.053-.878 3.031 5.09V11.54l1.095-.861.482 4.283 2.592.904-.005-4.32zm6.903 1.618a.344.344 0 00-.338.35v1.207c0 .192.153.346.338.346h1.074a.338.338 0 00.334-.346v-1.206a.343.343 0 00-.334-.351h-1.074zm-1.28-1.388l.92-.762a.983.983 0 01.699-.29h2.688c.555 0 1.01.466 1.005 1.047v3.12c0 .39-.207.735-.519.916l-.815.68a.986.986 0 01-.745.34h-2.683a.993.993 0 01-.714-.307 1.067 1.067 0 01-.296-.74v-3.12c0-.368.18-.697.46-.884zm10.83.653l-.313.252a.81.81 0 01.312.16v-.412zm7.258.74a.335.335 0 00-.334.346v1.212c0 .192.154.345.339.345h1.074a.338.338 0 00.333-.345v-1.207a.343.343 0 00-.333-.35h-1.08zm-1.28-1.387l.92-.768c.18-.18.428-.29.698-.296h2.688c.555 0 1.01.472 1.01 1.048v3.12c0 .395-.211.735-.518.916l-.82.68a.995.995 0 01-.746.34h-2.688c-.555 0-1.01-.472-1.01-1.048V12.68l-.577.472-.65.005v2.759l-1.037.855h-1.53v-3.619h-1.454c.063.148.1.324.106.532v.987c0 .488-.175.828-.498 1.014l-.809.637a.985.985 0 01-.338.268l-.027.022c-.18.072-.397.11-.645.11-.387 0-1.873.033-2.408.033-.534 0-1.068-.444-1.068-.894v-.516l.815-.712c-.466-.11-.815-.527-.815-.867v-1.2a.93.93 0 01.286-.697.579.579 0 01.09-.072l.936-.756c.19-.187.497-.318.942-.318h2.613c.45 0 .688.246.815.537l.857-.576 4.862.006v1.091z"/><path fill="#fff" fill-rule="evenodd" d="M14.09 10.682v5.216h1.514v-1.366l.201-.362 3.37 4.349h2.084l-4.079-5.22L19 10.681h-1.978l-1.418 1.81v-1.81H14.09zm-4.205 0v5.232h3.211v-1.81h-1.634v-3.422H9.885zm-3.38 1.371l-.418 2.177h.81l-.392-2.177zm-.741-1.426H7.33l1.576 5.27h-1.66l-.202-.548H5.96l-.164.549h-1.74l1.708-5.27z" clip-rule="evenodd"/><path fill="#fff" fill-rule="evenodd" d="M21.021 12.333h1.074c.185 0 .339.159.339.345v1.212a.343.343 0 01-.339.346h-1.074a.347.347 0 01-.338-.351v-1.207a.34.34 0 01.338-.345zm-.82-1.618h2.683c.56 0 1.01.472 1.01 1.048v3.12c0 .581-.455 1.047-1.01 1.047l-2.688-.005c-.556 0-1.01-.466-1.005-1.048v-3.12a1.025 1.025 0 011.01-1.042zm10.332-.01v1.6h1.635v3.614h1.529V12.3l1.693.006v-1.602h-4.857zm7.296 1.628h1.074a.34.34 0 01.333.35v1.213a.338.338 0 01-.333.345h-1.074a.347.347 0 01-.339-.35v-1.207c.005-.197.154-.351.339-.351zm-.815-1.612H39.7c.556 0 1.01.471 1.005 1.047l.006 3.12c0 .582-.455 1.048-1.01 1.048h-2.688c-.56 0-1.01-.466-1.01-1.048v-3.12c-.006-.581.45-1.053 1.01-1.047zm-8.158.01h-2.613c-.83 0-1.185.461-1.185.988v1.2c0 .39.465.895 1.037.895h1.814c.244 0 .503.153.503.46 0 .307-.085.625-.54.62h-.952c-.35 0-.376-.406-.376-.406h-1.48v.521c0 .45.533.894 1.068.894.534 0 2.02-.033 2.407-.033.783 0 1.248-.4 1.248-1.19v-.987c0-.751-.481-1.053-.968-1.053h-1.973c-.238 0-.302-.192-.302-.466s.1-.46.471-.46c.392 0 .662.01.931.01.302 0 .355.395.355.395h1.513c-.01 0 .1-1.387-.958-1.387z" clip-rule="evenodd"/><path fill="#383A86" d="M42.167 19.605l-40.334-.006v4.151c0 .944.736 1.711 1.65 1.711l37.091.006c.916 0 1.593-.763 1.593-1.706v-4.156z"/><path fill="#fff" d="M5.828 20.531v.817h-.63l-.005 3.269H4.129l.006-3.269h-.63v-.817h2.323zm.91 2.035H5.78v-.225c0-.258.032-.46.09-.598.058-.142.18-.263.36-.373.18-.11.412-.159.703-.164.344 0 .603.06.783.18.175.121.28.27.318.45.037.176.052.543.052 1.097v1.678h-.994v-.296a.657.657 0 01-.243.269.67.67 0 01-.355.088.868.868 0 01-.492-.149c-.148-.098-.222-.318-.222-.658v-.274c0-.252.042-.422.122-.51.079-.087.275-.197.587-.318.333-.132.513-.22.54-.263a.739.739 0 00.036-.28c0-.175-.01-.29-.037-.34a.147.147 0 00-.054-.06.14.14 0 00-.078-.022c-.069 0-.11.022-.127.066a1.365 1.365 0 00-.026.345l-.006.357zm.322.455c-.164.12-.26.22-.286.302a1.193 1.193 0 00-.037.345c0 .175.011.285.032.335.021.049.069.076.132.076.064 0 .106-.022.127-.06.022-.038.032-.143.032-.313v-.685zm2.391-1.755l-.042.439c.148-.318.365-.483.646-.505v1.18c-.186 0-.323.027-.413.076a.309.309 0 00-.164.208c-.021.088-.032.297-.032.62v1.322h-1.02l.004-3.345 1.021.005zm1.915-.005l-.005 2.648c0 .313-.005.521-.021.63a.562.562 0 01-.376.478c-.105.038-.27.06-.486.06h-.397v-.532c.122 0 .19-.016.206-.044.016-.027.021-.197.021-.504l.006-2.736h1.053zm0-.735v.532h-1.052v-.532h1.053zm2.677 2.462h-1.322v.724c0 .153.01.247.031.29.022.044.064.066.127.066.08 0 .128-.027.154-.087.026-.06.037-.17.037-.335v-.439h.968v.247c0 .209-.016.367-.042.477-.027.11-.09.23-.185.357a.907.907 0 01-.365.285 1.376 1.376 0 01-.556.093 1.65 1.65 0 01-.571-.093.92.92 0 01-.387-.258 1.01 1.01 0 01-.19-.356c-.037-.127-.053-.318-.053-.57v-.977c0-.29.043-.526.122-.69a.834.834 0 01.391-.39c.18-.093.386-.137.625-.137.285 0 .523.055.709.159.185.11.317.252.391.433.074.181.111.428.111.757l.005.444zm-1.026-.543v-.247c0-.175-.01-.285-.026-.334a.12.12 0 00-.046-.058.114.114 0 00-.07-.019c-.07 0-.117.022-.133.066-.016.044-.027.159-.027.345v.247h.302zm2.439-1.64v.527h.275v.532h-.275l-.005 1.793c0 .22.01.34.031.367.022.028.117.039.286.039v.537h-.413a3.35 3.35 0 01-.497-.027.553.553 0 01-.264-.132.474.474 0 01-.143-.241 4.744 4.744 0 01-.027-.636l.006-1.7h-.223v-.532h.223v-.527h1.026zm1.407 1.744h-.957v-.225c0-.257.031-.46.09-.597.058-.143.18-.264.36-.373.18-.11.412-.165.703-.165.344 0 .603.06.783.181.174.12.28.274.317.45.037.175.053.543.053 1.097v1.678h-.994v-.296a.656.656 0 01-.244.268.67.67 0 01-.354.088.868.868 0 01-.492-.148c-.148-.099-.222-.318-.222-.658v-.274c0-.252.042-.422.121-.51.08-.094.275-.198.587-.318.334-.132.514-.22.54-.264.026-.043.037-.137.037-.28 0-.175-.01-.29-.037-.34a.144.144 0 00-.055-.058.137.137 0 00-.077-.018c-.069 0-.111.022-.127.066a1.37 1.37 0 00-.027.345l-.005.351zm.323.455c-.164.121-.26.22-.286.302a1.376 1.376 0 00-.042.345c0 .176.01.286.032.335.02.05.068.077.137.077.064 0 .106-.022.127-.06.021-.039.026-.143.032-.313v-.686zm4.608-2.495l-.006 4.086h-1.02v-.241c-.101.098-.202.175-.308.23a.73.73 0 01-.338.076.698.698 0 01-.413-.126.545.545 0 01-.222-.29c-.032-.11-.047-.285-.047-.538v-1.568c0-.258.015-.439.052-.548a.52.52 0 01.228-.285.716.716 0 01.423-.121c.127 0 .244.022.35.066a.861.861 0 01.285.203v-.95l1.016.006zm-1.021 1.58c0-.121-.01-.203-.032-.247-.021-.044-.064-.066-.127-.066-.058 0-.1.022-.122.055-.02.038-.032.12-.032.252v1.64c0 .137.011.225.032.268.021.044.058.066.117.066.063 0 .11-.022.132-.071.021-.05.032-.165.032-.35v-1.547zm3.698.883h-1.323v.723c0 .154.01.247.032.291.02.044.063.066.127.066.08 0 .127-.028.153-.088.027-.06.037-.17.042-.334v-.44h.969v.248c0 .208-.016.367-.043.477-.026.11-.09.23-.185.356a.909.909 0 01-.365.285 1.376 1.376 0 01-.555.094 1.65 1.65 0 01-.572-.094.92.92 0 01-.386-.257 1.01 1.01 0 01-.19-.357 2.23 2.23 0 01-.053-.57v-.976c0-.29.042-.527.121-.691a.86.86 0 01.392-.39c.18-.087.386-.137.624-.137.286 0 .524.055.709.16.185.109.317.252.392.433.073.18.11.433.11.756v.444zm-1.021-.543v-.247c0-.176-.011-.285-.027-.335-.016-.049-.058-.076-.111-.076-.069 0-.116.021-.132.065a1.37 1.37 0 00-.027.346v.247h.297zm4.523.07h-.963v-.383a.781.781 0 00-.032-.274c-.021-.05-.063-.071-.122-.071-.058 0-.1.021-.116.065-.021.044-.032.138-.032.286V23.7c0 .12.016.208.043.269.031.06.074.087.132.087a.146.146 0 00.143-.093c.026-.06.037-.18.037-.35v-.401h.91c0 .268-.01.466-.032.603a.96.96 0 01-.17.411.895.895 0 01-.375.318c-.153.072-.344.11-.566.11-.286 0-.518-.05-.682-.148a.802.802 0 01-.355-.411c-.069-.176-.106-.428-.106-.757v-.949c0-.285.032-.499.09-.641.058-.143.18-.274.365-.39.186-.115.413-.17.683-.17.264 0 .492.055.682.17.19.115.312.253.376.428.058.154.09.395.09.713zm1.328-1.266l-.043.439c.148-.318.365-.483.646-.505v1.18c-.185 0-.323.027-.413.076a.308.308 0 00-.164.209c-.021.087-.032.296-.032.62v1.32h-1.02l.005-3.344 1.02.005zm3.137 1.728h-1.323v.723c0 .154.01.247.032.291.021.044.063.066.127.066.08 0 .127-.027.153-.088.027-.06.037-.17.043-.334v-.44h.968v.248c0 .208-.016.367-.043.477-.026.11-.09.23-.185.356a.907.907 0 01-.365.285 1.376 1.376 0 01-.555.094 1.65 1.65 0 01-.572-.094.92.92 0 01-.386-.257 1.01 1.01 0 01-.19-.357 2.235 2.235 0 01-.053-.57v-.976c0-.29.042-.527.122-.691a.834.834 0 01.391-.39c.18-.093.386-.137.624-.137.286 0 .524.055.71.16.184.11.317.252.39.433.075.18.112.433.112.756v.445zm-.307-2.638l-.83.685h-.514l.445-.685h.899zm-.714 2.095v-.247c0-.176-.01-.285-.027-.335-.016-.049-.058-.076-.11-.076-.07 0-.117.022-.133.065a1.37 1.37 0 00-.026.346v.247h.296zm3.682-1.93l-.005 4.085h-1.022v-.242c-.1.1-.2.176-.306.23a.73.73 0 01-.339.078.699.699 0 01-.413-.127.546.546 0 01-.222-.29c-.032-.11-.047-.285-.047-.532V22.12c0-.257.016-.438.047-.548a.547.547 0 01.228-.285.717.717 0 01.423-.12c.127 0 .243.021.35.065a.86.86 0 01.285.203v-.949h1.02zm-1.021 1.579c0-.12-.01-.203-.032-.247-.021-.044-.063-.066-.127-.066-.058 0-.1.022-.122.055-.02.038-.031.12-.031.252v1.64c0 .137.01.225.031.269.022.044.059.065.117.065.063 0 .11-.021.132-.07.021-.05.032-.165.032-.352v-1.546zm2.433-.845l-.005 3.345h-1.053l.006-3.345h1.052zm.006-.735v.532h-1.053v-.532h1.053zm1.439.286v.526h.275v.532h-.275v1.793c0 .22.01.34.031.367.021.028.117.039.286.039v.537h-.413a3.35 3.35 0 01-.497-.027.554.554 0 01-.264-.132.473.473 0 01-.143-.241c-.022-.088-.027-.302-.027-.636v-1.7h-.222v-.532h.222v-.526h1.027zm2.809 1.617v.823c0 .301-.016.52-.048.663a.92.92 0 01-.576.664c-.154.06-.334.088-.535.088a1.9 1.9 0 01-.571-.072.77.77 0 01-.365-.225.893.893 0 01-.185-.361c-.037-.143-.053-.357-.053-.642v-.855c0-.313.037-.554.1-.73a.844.844 0 01.365-.422c.175-.104.402-.16.672-.16.228 0 .423.034.587.1a.98.98 0 01.381.263c.09.11.148.22.18.34.032.115.048.29.048.526zm-1.021-.252c0-.17-.01-.28-.027-.324-.016-.043-.058-.065-.116-.065s-.1.022-.122.066c-.021.043-.032.153-.032.323v1.508c0 .16.011.263.032.307.021.05.058.071.117.071.058 0 .1-.021.121-.065.021-.044.027-.137.032-.285l-.005-1.536z"/></svg>
