<svg viewBox="0 0 24 16" fill="none" xmlns="http://www.w3.org/2000/svg"><g clip-path="url(#clip0)" fill-rule="evenodd" clip-rule="evenodd"><path d="M22 16H2c-1 0-2-1-2-2V2c0-1 1-2 2-2h20c1 0 2 1 2 2v12c0 1-1 2-2 2z" fill="#016FD0"/><path d="M12.342 13.985v-6.35L24 7.646V9.4l-1.347 1.396L24 12.204v1.791h-2.151l-1.143-1.223L19.57 14l-7.228-.015" fill="#fff"/><path d="M13.121 13.289V8.334h4.334v1.142h-2.93v.774h2.86v1.123h-2.86v.76h2.93v1.156H13.12" fill="#016FD0"/><path d="M17.433 13.289l2.398-2.48-2.398-2.474h1.856l1.465 1.57 1.47-1.57H24v.039l-2.347 2.435L24 13.219v.07h-1.794l-1.492-1.586-1.476 1.586h-1.805" fill="#016FD0"/><path d="M12.886 2h2.81l.987 2.173V2h3.47l.598 1.628.6-1.628H24v6.35H10L12.886 2z" fill="#fff"/><path d="M13.418 2.69L11.15 7.64h1.556l.428-.991h2.318l.427.991h1.594l-2.258-4.95h-1.797zm.195 2.848l.68-1.576.68 1.576h-1.36z" fill="#016FD0"/><path d="M17.452 7.64V2.688l2.186.007 1.125 3.044 1.133-3.051H24v4.95l-1.354.012v-3.4l-1.278 3.388h-1.236l-1.305-3.4v3.4h-1.375" fill="#016FD0"/></g><defs><clipPath id="clip0"><path fill="#fff" d="M0 0h24v16H0z"/></clipPath></defs></svg>
