<svg viewBox="0 0 24 16" fill="none" xmlns="http://www.w3.org/2000/svg"><path fill-rule="evenodd" clip-rule="evenodd" d="M22 16H2c-1 0-2-1-2-2V2c0-1 1-2 2-2h20c1 0 2 1 2 2v12c0 1-1 2-2 2Z" fill="#000"/><path d="M19.636 7.094v2.064h-.991a.25.25 0 0 0-.248.248v2.598a.25.25 0 0 1-.247.248h-2.396a.25.25 0 0 1-.247-.248V4.248A.25.25 0 0 1 15.754 4h2.396a.25.25 0 0 1 .247.248v2.598a.25.25 0 0 0 .248.248h.991ZM6.474 11.216H3.77a.244.244 0 0 0-.233.157l-.27.714a.244.244 0 0 1-.233.157H1.323a.25.25 0 0 1-.233-.338l2.658-6.922c.045-.128.113-.248.195-.353L5.04 7.476l-.518 1.337a.25.25 0 0 0 .232.338h.864c.022 0 .037 0 .06-.008l.796 2.073ZM9.08 12.252H7.314l-.278-.729-2.77-7.2c.022-.015.044-.038.067-.053.255-.172.555-.27.878-.27.639 0 1.21.39 1.434.984l2.658 6.922a.25.25 0 0 1-.225.346ZM12.826 6.478v5.526a.25.25 0 0 1-.248.248h-2.395a.25.25 0 0 1-.248-.248V6.478h2.891ZM15.101 4.248v1.817H7.675V4.248A.25.25 0 0 1 7.923 4h6.923c.142 0 .255.113.255.248ZM22.932 4.248v7.756a.25.25 0 0 1-.247.248h-2.636V4h2.636a.25.25 0 0 1 .247.248Z" fill="#fff"/></svg>