<svg xmlns="http://www.w3.org/2000/svg" fill="none" viewBox="0 0 44 34"><path fill="#000" fill-rule="evenodd" d="M40.333 31.333H3.667C1.833 31.333 0 29.5 0 27.667v-22C0 3.833 1.833 2 3.667 2h36.666C42.167 2 44 3.833 44 5.667v22c0 1.833-1.833 3.666-3.667 3.666z" clip-rule="evenodd"/><path fill="#fff" d="M27.438 5.67A82.748 82.748 0 0014.91 8.062a1.108 1.108 0 00-.62.49 1.028 1.028 0 00-.116.762l.764 2.85c.13.482.64.73 1.158.567 4.22-1.239 8.453-2.093 12.822-2.713.498-.065.77-.56.586-1.056a202.79 202.79 0 00-.974-2.608 1.032 1.032 0 00-.424-.52 1.107 1.107 0 00-.667-.164zm3.572 6.337c-6.68.822-13.197 2.4-19.366 5.014a1.186 1.186 0 00-.52.513c-.112.219-.15.466-.107.706l.614 3.065c.102.521.613.756 1.117.521 6.272-2.745 12.89-4.498 19.687-5.542.436-.065.654-.534.49-1.023l-.865-2.524c-.164-.47-.614-.782-1.05-.73zm-.089 6.807c-4.171.867-8.248 1.91-12.297 3.24a1.032 1.032 0 00-.57.465.96.96 0 00-.098.71l.811 2.842c.15.535.784.808 1.364.593a125.506 125.506 0 0112.283-3.56c.402-.09.6-.54.45-1.004-.272-.851-.55-1.7-.832-2.55-.17-.501-.654-.827-1.11-.736z"/><path fill="#fff" d="M14.91 8.062A82.748 82.748 0 0127.437 5.67c.235-.017.47.04.667.164.197.124.346.307.424.52.395 1.043.593 1.565.974 2.608.184.496-.088.991-.586 1.056-4.37.62-8.602 1.474-12.822 2.713-.518.163-1.029-.085-1.158-.567l-.764-2.85c-.062-.259-.02-.53.116-.761.136-.232.357-.407.62-.49zM11.644 17.021c6.17-2.615 12.686-4.192 19.366-5.014.436-.052.886.26 1.05.73l.865 2.524c.164.489-.054.958-.49 1.023-6.797 1.044-13.415 2.797-19.687 5.542-.504.235-1.015 0-1.117-.521l-.614-3.065a1.116 1.116 0 01.108-.706c.112-.22.294-.398.52-.513zM18.624 22.055c4.05-1.33 8.126-2.374 12.297-3.24.457-.092.941.234 1.111.736.283.848.56 1.698.832 2.55.15.462-.048.912-.45 1.003a125.506 125.506 0 00-12.283 3.56c-.58.215-1.214-.058-1.364-.593l-.81-2.843a.96.96 0 01.098-.71c.123-.216.326-.381.57-.463z"/></svg>
