<svg xmlns="http://www.w3.org/2000/svg" fill="none" viewBox="0 0 44 34"><path fill="#fff" fill-rule="evenodd" d="M40.333 31.333H3.667C1.833 31.333 0 29.5 0 27.667v-22C0 3.833 1.833 2 3.667 2h36.666C42.167 2 44 3.833 44 5.667v22c0 1.833-1.833 3.666-3.667 3.666z" clip-rule="evenodd"/><path stroke="#EF3D3D" stroke-opacity=".2" d="M40.333 30.833H3.667c-.754 0-1.55-.382-2.168-1C.882 29.218.5 28.422.5 27.668v-22c0-.754.382-1.55 1-2.168.617-.617 1.413-.999 2.167-.999h36.666c.754 0 1.55.382 2.168 1 .617.617.999 1.413.999 2.167v22c0 .754-.382 1.55-1 2.167-.617.617-1.413 1-2.167 1z"/><path fill="#DEE1E6" d="M31.165 11.212H11.36v2.023h19.805v-2.023zM30.5 13.235H12.025V25.5H30.5V13.235z"/><path fill="#fff" d="M13.032 15.04h-2.014v8.653h2.014v-8.652z"/><path fill="#DEE1E6" d="M13.031 15.04h-1.006v8.653h1.006v-8.652z"/><path fill="#fff" d="M10.4 14.68v-1.084c0-.2.15-.36.335-.36h2.579c.185 0 .335.16.335.36v1.084c0 .2-.15.36-.335.36h-2.579c-.185 0-.335-.16-.335-.36z"/><path fill="#DEE1E6" d="M13.314 13.235h-1.31v1.806h1.31c.185 0 .335-.162.335-.361v-1.084c0-.2-.15-.36-.335-.36z"/><path fill="#fff" d="M10.4 25.138v-1.083c0-.2.15-.361.335-.361h2.579c.185 0 .335.161.335.36v1.084c0 .2-.15.361-.335.361h-2.579c-.185 0-.335-.162-.335-.361z"/><path fill="#DEE1E6" d="M13.314 23.694h-1.31v1.805h1.31c.185 0 .335-.162.335-.361v-1.083c0-.2-.15-.361-.335-.361z"/><path fill="#fff" d="M31.146 15.04h-2.014v8.653h2.014v-8.652z"/><path fill="#DEE1E6" d="M31.146 15.04H30.14v8.653h1.007v-8.652z"/><path fill="#fff" d="M28.515 14.68v-1.084c0-.2.15-.36.335-.36h2.579c.185 0 .336.16.336.36v1.084c0 .2-.15.36-.336.36H28.85c-.185 0-.335-.16-.335-.36z"/><path fill="#DEE1E6" d="M31.429 13.235h-1.31v1.806h1.31c.185 0 .336-.162.336-.361v-1.084c0-.2-.15-.36-.336-.36z"/><path fill="#fff" d="M28.515 25.138v-1.083c0-.2.15-.361.335-.361h2.579c.185 0 .336.161.336.36v1.084c0 .2-.15.361-.336.361H28.85c-.185 0-.335-.162-.335-.361z"/><path fill="#DEE1E6" d="M31.429 23.694h-1.31v1.805h1.31c.185 0 .336-.162.336-.361v-1.083c0-.2-.15-.361-.336-.361zM9.526 25.86v1.083c0 .2.162.362.362.362h22.75c.199 0 .36-.162.36-.362V25.86c0-.2-.161-.361-.36-.361H9.888c-.2 0-.362.162-.362.361z"/><path fill="#FF7E7E" d="M19.227 20.458v5.041H23.2v-5.041a1.986 1.986 0 10-3.972 0z"/><path fill="#EF3D3D" d="M23.2 20.459v5.04h-3.972v-.819h.924a1.42 1.42 0 001.42-1.423V19.64c0-.437-.141-.838-.38-1.166h.022c1.098 0 1.986.888 1.986 1.986z"/><path fill="#fff" d="M32.503 11.212h-22.48l11.24-7.019 11.24 7.019z"/><path fill="#DEE1E6" d="M32.502 11.21H10.023l2.225-1.39c11.208.892 13.014-1.693 13.23-2.993l7.024 4.384z"/><path fill="#DEE1E6" d="M21.262 9.556a1.625 1.625 0 100-3.25 1.625 1.625 0 000 3.25z"/><path fill="#4DABF4" d="M27.092 15.708v7.025H24.86v-7.025a1.114 1.114 0 011.116-1.117c.62 0 1.117.498 1.117 1.117z"/><path fill="#1D7BD5" d="M27.094 15.714v7.026h-2.232v-.646h.542c.49 0 .892-4.932.892-5.427v-1.552c0-.174-.04-.347-.109-.499.517.101.907.553.907 1.098z"/><path fill="#4DABF4" d="M17.666 15.708v7.025h-2.234v-7.025c0-.628.51-1.117 1.117-1.117.619 0 1.117.498 1.117 1.117z"/><path fill="#1D7BD5" d="M17.666 15.707v7.026h-2.232v-.647h.542c.491 0 .892-4.931.892-5.426v-1.553c0-.173-.04-.346-.108-.498.516.101.906.552.906 1.098z"/><path fill="#000" d="M32.639 25.139h-.513v-1.083a.714.714 0 00-.617-.719V15.4a.72.72 0 00.617-.719v-1.083a.712.712 0 00-.6-.715v-1.311h.983a.36.36 0 00.144-.69L21.455 3.888a.365.365 0 00-.382 0L9.83 10.904a.365.365 0 00-.155.408c.043.155.184.26.347.26h.975v1.304h-.264a.71.71 0 00-.697.722v1.083c0 .372.274.679.621.719v7.937a.714.714 0 00-.621.719v1.083h-.148a.72.72 0 00-.722.722v1.084c0 .397.321.722.722.722h22.75a.724.724 0 00.722-.723v-1.083c0-.4-.325-.722-.722-.722zm-3.763 0l-.025-1.083h2.553l-.004 1.083h-2.524zm-6.038 0h-3.25v-4.68c0-.896.73-1.625 1.625-1.625.896 0 1.625.73 1.625 1.625v4.68zm-1.625-7.027a2.35 2.35 0 00-2.347 2.347v4.68H14.01v-1.083a.714.714 0 00-.617-.719V15.4a.72.72 0 00.617-.719v-1.083h14.145v1.083c0 .369.27.675.617.719v7.937a.714.714 0 00-.617.719v1.083H23.56v-4.68a2.35 2.35 0 00-2.348-2.347zm-9.833-2.709h1.29v7.93h-1.29v-7.93zm18.114 0h1.292v7.93h-1.292v-7.93zm1.91-1.805L31.4 14.68h-2.524l-.025-1.083h2.553zM21.264 4.62l9.977 6.229H11.283l9.98-6.23zm-9.544 6.951h19.084v1.304H11.72v-1.304zm1.567 2.026v1.083h-2.528l-.025-1.083h2.553zm-2.553 10.458h2.553v1.107l-2.56.008.007-1.115zm21.905 2.889H9.889V25.86h22.75v1.084z"/><path fill="#000" d="M21.264 9.918a1.99 1.99 0 001.986-1.986 1.987 1.987 0 00-3.972 0c0 1.094.888 1.986 1.986 1.986zm0-3.25c.697 0 1.264.567 1.264 1.264 0 .697-.567 1.264-1.264 1.264A1.265 1.265 0 0120 7.932c0-.697.567-1.264 1.264-1.264zm3.597 16.427h2.231a.362.362 0 00.361-.361v-7.027c0-.813-.664-1.477-1.476-1.477-.797 0-1.477.645-1.477 1.477v7.027a.36.36 0 00.36.361zm.36-7.388c0-.441.358-.755.756-.755.415 0 .754.34.754.755v6.666h-1.51v-6.666zm-8.673-1.477a1.48 1.48 0 00-1.477 1.477v7.027c0 .198.162.361.361.361h2.235a.362.362 0 00.361-.361v-7.027c0-.813-.664-1.477-1.48-1.477zm.758 8.143h-1.513v-6.666a.757.757 0 011.513 0v6.666z"/></svg>
