<svg xmlns="http://www.w3.org/2000/svg" width="61" height="41" fill="none"><path fill="#32005f" fill-rule="evenodd" stroke="#32005e" d="M55.5 40.5h-50c-2.5 0-5-2.5-5-5v-30c0-2.5 2.5-5 5-5h50c2.5 0 5 2.5 5 5v30c0 2.5-2.5 5-5 5Z" clip-rule="evenodd"/><path fill="url(#a)" d="M32.597 14.94c3.278 0 5.733 1.707 5.815 6.341q0 .394-.022.758a.32.32 0 0 1-.319.299h-8.237c-.027.84.52 2.52 2.927 2.52.89 0 1.943-.23 2.466-1.112.087-.146.26-.229.421-.177l2.057.668a.313.313 0 0 1 .198.412c-.926 2.291-2.932 2.974-5.306 2.974-3.277 0-5.934-2.114-5.934-6.342 0-3.902 2.657-6.341 5.934-6.341M12.273 12.5c4.146 0 4.824 2.601 4.797 3.902 0 2.277-1.383 3.496-2.033 3.496 1.87 0 2.765 2.196 2.765 3.416 0 3.332-3.063 4.335-4.553 4.308H4.826a.326.326 0 0 1-.312-.42l2.23-7.304-2.223-6.974a.326.326 0 0 1 .31-.424zm9.349 2.764c.18 0 .325.146.325.325v2.114c.217-.813 1.057-2.44 2.683-2.44h3.102c.217 0 .332.27.19.434-.641.746-1.452 1.888-1.755 2.74a.355.355 0 0 1-.328.242h-2.023c-.623 0-1.869.406-1.869 2.032v6.586c0 .18-.146.325-.325.325h-2.44a.326.326 0 0 1-.325-.325V15.589c0-.18.146-.325.325-.325zm29.35-2.764c4.146 0 4.823 2.601 4.796 3.902 0 2.276-1.381 3.496-2.032 3.496 1.87 0 2.764 2.196 2.764 3.416 0 3.332-3.062 4.335-4.553 4.308h-8.423a.325.325 0 0 1-.31-.42l2.23-7.304-2.224-6.974a.325.325 0 0 1 .31-.424zm-41.71 8.78a.325.325 0 0 0-.311.234l-.865 2.926a.325.325 0 0 0 .312.417h4.28c.732 0 2.032-.438 2.033-1.869.027-.596-.407-1.708-2.033-1.708zm38.7 0a.33.33 0 0 0-.313.234l-.864 2.926a.325.325 0 0 0 .311.417h4.28c.732 0 2.034-.438 2.034-1.869.027-.596-.407-1.708-2.033-1.708zm-4.43-2.438c.124 0 .237.07.292.18l.485.97a.33.33 0 0 1-.004.299l-.48.9a.33.33 0 0 1-.286.171h-3.707a.325.325 0 0 1-.325-.325v-1.87c0-.18.145-.325.325-.325zM32.76 17.623c-1.952 0-2.738 1.572-2.927 2.357h5.69c-.081-.785-.812-2.357-2.764-2.357M8.385 15.265a.325.325 0 0 0-.314.407l.771 2.928a.326.326 0 0 0 .315.242h3.01c1.45 0 1.836-1.112 1.812-1.708 0-1.43-1.159-1.87-1.811-1.87zm38.7 0a.325.325 0 0 0-.315.407l.77 2.928a.326.326 0 0 0 .315.242h3.01c1.45 0 1.837-1.112 1.813-1.708 0-1.43-1.16-1.87-1.812-1.87z"/><defs><linearGradient id="a" x1="4.501" x2="56.5" y1="20.061" y2="20.061" gradientUnits="userSpaceOnUse"><stop stop-color="#00c4ff"/><stop offset="1" stop-color="#00ff6d"/></linearGradient></defs></svg>