<svg viewBox="0 0 44 25" fill="none" xmlns="http://www.w3.org/2000/svg"><path d="M41.871 0H2.12903C.9532 0 0 .959001 0 2.14199V22.1339c0 1.183.9532 2.142 2.12903 2.142H41.871c1.1758 0 2.129-.959 2.129-2.142V2.14199C44 .959001 43.0468 0 41.871 0z" fill="#2DBCA4"/><path d="M7.09675 2.85616c0 1.13618-.44863 2.22585-1.24717 3.02925-.79854.8034-1.88159 1.25472-3.0109 1.25472v9.99597c1.12931 0 2.21236.4513 3.0109 1.2547.79854.8034 1.24717 1.8931 1.24717 3.0292H36.9032c0-1.1361.4486-2.2258 1.2472-3.0292.7985-.8034 1.8816-1.2547 3.0109-1.2547V7.14013c-1.1293 0-2.2124-.45132-3.0109-1.25472-.7986-.8034-1.2472-1.89307-1.2472-3.02925H7.09675z" fill="#15A78F"/><path d="M7.80648 12.8519c.39194 0 .70968-.3196.70968-.714 0-.3943-.31774-.714-.70968-.714-.39194 0-.70968.3197-.70968.714 0 .3944.31774.714.70968.714zM36.1936 12.8519c.3919 0 .7096-.3196.7096-.714 0-.3943-.3177-.714-.7096-.714-.392 0-.7097.3197-.7097.714 0 .3944.3177.714.7097.714z" fill="#2DBCA4" stroke="#0C5286" stroke-width="2.84375" stroke-miterlimit="3.7" stroke-linecap="round"/><path d="M29.8063 12.1378c0 4.3349-3.5112 7.8543-7.8293 7.8543-4.3193 0-7.7836-3.5194-7.7836-7.8543 0-4.334 3.4643-7.85365 7.7836-7.85365 4.3181 0 7.8293 3.51965 7.8293 7.85365z" fill="#2DBCA4"/><path d="M21.3042 4.99518V6.6965c-.5375.09282-1.0585.29284-1.5108.63032-.9957.70639-1.5222 1.99722-1.1532 3.22138.4213 1.4761 1.8625 2.3299 3.2794 2.3037h.1719c.0055.0001.0111.0001.0166 0 .8107-.0158 1.686.5314 1.8962 1.2746.0009.0056.0018.0111.0028.0167.1732.5674-.1067 1.2962-.6126 1.6511-.0075.0046-.0149.0094-.0222.0143-.8524.6401-2.3381.4673-2.9551-.3988-.1819-.2521-.2866-.5669-.2856-.8674h-1.4193c-.0014.6193.2016 1.2152.5544 1.7069.5049.7086 1.2431 1.1393 2.0376 1.3136v1.7153h1.4193V17.588c.528-.0948 1.0413-.2907 1.4859-.6219.9979-.7059 1.5254-1.9957 1.156-3.2214-.4213-1.4762-1.8681-2.3299-3.285-2.3037h-.1691c-.0055-.0001-.0111-.0001-.0166 0-.8106.0158-1.6832-.5313-1.8934-1.2746-.0009-.0056-.0018-.0112-.0028-.0167-.1732-.56726.1071-1.29635.6126-1.65113.0066-.00545.0131-.01105.0195-.01673.8522-.64007 2.3354-.4647 2.9523.40162h.0028c.1821.25244.2868.56736.2856.86739h1.4193c.0029-.61975-.1989-1.21549-.5516-1.7069-.4997-.70157-1.2294-1.12916-2.0154-1.30801V4.99557h-1.4194l-.0001-.00039z" fill="#0C5286"/></svg>