<svg fill="none" xmlns="http://www.w3.org/2000/svg" viewBox="0 0 60 40"><path d="M56 .986a4 4 0 0 1 4 4v32a4 4 0 0 1-4 4H4a4 4 0 0 1-4-4v-32a4 4 0 0 1 4-4h52Zm-51.5 1a3.5 3.5 0 0 0-3.5 3.5v31a3.5 3.5 0 0 0 3.5 3.5h51a3.5 3.5 0 0 0 3.5-3.5v-31a3.5 3.5 0 0 0-3.5-3.5h-51Z" fill="#020617" fill-opacity="0.1"/><path d="M1 5.486a3.5 3.5 0 0 1 3.5-3.5h51a3.5 3.5 0 0 1 3.5 3.5v31a3.5 3.5 0 0 1-3.5 3.5h-51a3.5 3.5 0 0 1-3.5-3.5v-31Z" fill="#fff"/><path fill-rule="evenodd" clip-rule="evenodd" d="M44.97 17.372v7.257c0 3.942-1.413 7.4-4.218 10.14a14.114 14.114 0 0 1-10.274 4.23c-3.976 0-7.37-1.447-10.181-4.23a13.766 13.766 0 0 1-4.266-10.14v-7.257a13.89 13.89 0 0 1 4.266-10.189 14.061 14.061 0 0 1 10.226-4.181c4.024 0 7.42 1.396 10.23 4.181 2.809 2.786 4.217 6.201 4.217 10.189Zm-9.321-3.647c.535 0 1.048.212 1.427.59a2.019 2.019 0 0 1 .012 2.856L26.533 27.724a2.019 2.019 0 0 1-2.855-2.855l10.543-10.554a2.019 2.019 0 0 1 1.428-.591Zm-11.77.713c1.294-1.296 3.267-1.423 4.407-.285 1.14 1.137 1.009 3.11-.285 4.407-1.293 1.295-3.269 1.422-4.406.285-1.138-1.138-1.009-3.111.285-4.407Zm9.001 9.003c1.296-1.296 3.27-1.423 4.41-.285 1.137 1.137 1.007 3.11-.286 4.407-1.293 1.295-3.267 1.422-4.407.285-1.14-1.138-1.013-3.112.283-4.407Z" fill="#3C07AD"/></svg>