<svg fill="none" xmlns="http://www.w3.org/2000/svg" viewBox="0 0 60 40"><path d="M56 0a4 4 0 0 1 4 4v32a4 4 0 0 1-4 4H4a4 4 0 0 1-4-4V4a4 4 0 0 1 4-4h52ZM4.5 1A3.5 3.5 0 0 0 1 4.5v31A3.5 3.5 0 0 0 4.5 39h51a3.5 3.5 0 0 0 3.5-3.5v-31A3.5 3.5 0 0 0 55.5 1h-51Z" fill="#020617" fill-opacity="0.1"/><path d="M1 4.5A3.5 3.5 0 0 1 4.5 1h51A3.5 3.5 0 0 1 59 4.5v31a3.5 3.5 0 0 1-3.5 3.5h-51A3.5 3.5 0 0 1 1 35.5v-31Z" fill="#fff"/><path fill-rule="evenodd" clip-rule="evenodd" d="M44.97 16.386v7.257c0 3.942-1.413 7.4-4.218 10.14a14.114 14.114 0 0 1-10.274 4.23c-3.976 0-7.37-1.447-10.181-4.23a13.767 13.767 0 0 1-4.266-10.14v-7.257a13.89 13.89 0 0 1 4.266-10.188 14.061 14.061 0 0 1 10.226-4.182c4.024 0 7.42 1.396 10.23 4.182 2.809 2.785 4.217 6.2 4.217 10.188Zm-9.321-3.647a2.02 2.02 0 0 1 1.427.59 2.019 2.019 0 0 1 .012 2.856L26.533 26.74a2.019 2.019 0 0 1-2.855-2.855L34.221 13.33a2.019 2.019 0 0 1 1.428-.591Zm-11.77.713c1.294-1.296 3.267-1.423 4.407-.285 1.14 1.138 1.009 3.111-.285 4.407-1.293 1.295-3.269 1.422-4.406.285-1.138-1.138-1.009-3.111.285-4.407Zm9.001 9.003c1.296-1.296 3.27-1.423 4.41-.285 1.137 1.137 1.007 3.11-.286 4.407-1.293 1.295-3.267 1.422-4.407.285-1.14-1.138-1.013-3.111.283-4.407Z" fill="#3C07AD"/></svg>