<svg fill="none" xmlns="http://www.w3.org/2000/svg" viewBox="0 0 60 41"><rect y=".014" width="60" height="40" rx="4" fill="#3C07AD"/><mask id="a" style="mask-type:luminance" maskUnits="userSpaceOnUse" x="16" y="3" width="28" height="35"><path d="M43.666 3.001H16.333v34h27.333v-34Z" fill="#fff"/></mask><g mask="url(#a)"><path fill-rule="evenodd" clip-rule="evenodd" d="M43.666 16.574v6.854c0 3.724-1.335 6.99-3.984 9.578a13.33 13.33 0 0 1-9.704 3.995c-3.755 0-6.96-1.366-9.617-3.995a13.004 13.004 0 0 1-4.028-9.578v-6.854a13.12 13.12 0 0 1 4.029-9.623A13.281 13.281 0 0 1 30.02 3c3.8 0 7.008 1.319 9.661 3.95 2.654 2.63 3.984 5.856 3.984 9.623Zm-8.804-3.445c.505 0 .99.201 1.348.559a1.907 1.907 0 0 1 .011 2.696l-9.969 9.97a1.907 1.907 0 0 1-2.696-2.697l9.957-9.97a1.907 1.907 0 0 1 1.349-.558Zm-11.116.674c1.221-1.224 3.085-1.344 4.162-.27 1.077 1.075.952 2.94-.27 4.163-1.22 1.224-3.087 1.344-4.162.27-1.074-1.075-.952-2.94.27-4.163Zm8.5 8.503c1.224-1.224 3.088-1.344 4.165-.269 1.075 1.075.953 2.939-.269 4.162-1.222 1.224-3.085 1.344-4.162.27-1.077-1.075-.957-2.939.267-4.163Z" fill="#fff"/></g></svg>