<svg width="30" height="20" viewBox="0 0 30 20" fill="none" xmlns="http://www.w3.org/2000/svg">
<path fill-rule="evenodd" clip-rule="evenodd" d="M21.4165 0.218143C21.7665 -0.106935 22.294 -0.0637336 22.5947 0.314636L29.7406 9.30655C30.0883 9.74412 30.0862 10.3913 29.7357 10.8263L22.5908 19.6902C22.4322 19.887 22.2025 20 21.961 20H16.8288C16.5023 20 16.2058 19.7944 16.0695 19.4737C15.9333 19.153 15.9823 18.7759 16.1951 18.5082L22.9968 9.94934L16.218 1.80647H13.416L19.4683 9.29947C19.8237 9.73937 19.8215 10.3961 19.4634 10.8333L12.5589 19.2609C12.1738 19.7309 11.6208 20 11.04 20H3.46124C1.54965 20 0 18.3247 0 16.2581V3.74195C0 1.67534 1.54965 1.58884e-05 3.46124 1.58884e-05H7.75794C8.21936 1.58884e-05 8.59342 0.404404 8.59342 0.903241C8.59342 1.40208 8.21936 1.80647 7.75794 1.80647H3.46124C2.47248 1.80647 1.67094 2.67301 1.67094 3.74195V16.2581C1.67094 17.327 2.47248 18.1935 3.46124 18.1935H11.04C11.1425 18.1935 11.2401 18.1461 11.308 18.0631L17.8645 10.0603L10.9479 1.49734C10.7324 1.23051 10.6811 0.852114 10.8166 0.529603C10.9522 0.207093 11.2496 1.58884e-05 11.5772 1.58884e-05H16.4838C16.7883 1.58884e-05 17.0785 0.139745 17.2822 0.384441L24.5899 9.16259C24.9512 9.59664 24.9582 10.2533 24.6062 10.6962L18.648 18.1935H21.5808L28.1367 10.0603L21.3272 1.49185C21.0266 1.11348 21.0665 0.543221 21.4165 0.218143Z" fill="black"/>
</svg>
