<svg fill="none" xmlns="http://www.w3.org/2000/svg" viewBox="0 0 60 40"><path fill-rule="evenodd" clip-rule="evenodd" d="M55 40H5c-2.5 0-5-2.5-5-5V5c0-2.5 2.5-5 5-5h50c2.5 0 5 2.5 5 5v30c0 2.5-2.5 5-5 5Z" fill="#fff"/><path d="M55 39.5H5c-1.087 0-2.217-.549-3.084-1.416C1.05 37.217.5 36.087.5 35V5c0-1.087.549-2.217 1.416-3.084C2.783 1.049 3.913.5 5 .5h50c1.087 0 2.217.549 3.084 1.416C58.95 2.783 59.5 3.913 59.5 5v30c0 1.087-.549 2.217-1.416 3.084-.867.867-1.997 1.416-3.084 1.416Z" stroke="#020617" stroke-opacity=".1"/><path fill-rule="evenodd" clip-rule="evenodd" d="M38.983 6.305c.49-.455 1.229-.394 1.65.135l10.004 12.59a1.727 1.727 0 0 1-.007 2.127l-10.003 12.41a1.134 1.134 0 0 1-.882.433H32.56c-.457 0-.872-.288-1.063-.737a1.347 1.347 0 0 1 .176-1.352l9.523-11.982-9.49-11.4h-3.924l8.474 10.49a1.726 1.726 0 0 1-.007 2.148l-9.667 11.798C26.043 33.623 25.27 34 24.456 34h-10.61C11.169 34 9 31.655 9 28.761V11.24C9 8.345 11.17 6 13.846 6h6.015c.646 0 1.17.566 1.17 1.265 0 .698-.524 1.264-1.17 1.264h-6.015c-1.385 0-2.507 1.213-2.507 2.71V28.76c0 1.497 1.122 2.71 2.507 2.71h10.61c.143 0 .28-.067.375-.183l9.18-11.204-9.684-11.988a1.346 1.346 0 0 1-.184-1.355c.19-.451.606-.741 1.065-.741h6.87c.426 0 .832.196 1.117.538l10.23 12.29c.507.607.517 1.527.024 2.147L35.107 31.47h4.106l9.178-11.387L38.858 8.09c-.42-.53-.365-1.328.125-1.784Z" fill="#000"/></svg>