<svg fill="none" xmlns="http://www.w3.org/2000/svg" viewBox="0 0 44 34"><g clip-path="url(#a)"><path fill-rule="evenodd" clip-rule="evenodd" d="M40.3333 31.3333H3.66667C1.83333 31.3333 0 29.5 0 27.6667V5.66667C0 3.83331 1.83333 2 3.66667 2H40.3333C42.1667 2 44 3.83333 44 5.66664V27.6667c0 1.8333-1.8333 3.6666-3.6667 3.6666Z" fill="#FF781D"/><path fill-rule="evenodd" clip-rule="evenodd" d="M39 30.5 5 32s11.9675-2.1965 19.5-4.4127c1.8519-.5448 4.7273-1.4708 4.7273-1.4708 7.6818-2.9418 2.3636-.7355 7.6818-2.9418C42.2272 20.9684 44 12.1431 44 4.78865V26.8519c0 2.9418-3.3258 3.6481-5 3.6481Z" fill="#00ADBA"/><path fill-rule="evenodd" clip-rule="evenodd" d="M40 31.5H11s10.1264-1.4933 16.5-3c1.567-.3704 4-1 4-1 6.5-2 2-.5 6.5-2S44 18 44 13v15c0 2-2.5833 3.5-4 3.5Z" fill="#fff"/><path d="M11.2333 22.7392c-.3169.8239-.8873 1.2254-1.58455 1.162-.63383-.0634-1.20427-.5705-1.30991-1.162-.14789-.8029.19015-1.3522 1.14089-1.817-.59157-.169-.97187-.5493-1.18314-1.2043-.14789.4437-.35917.7606-.69721.9719-.35917.2113-.73946.2958-1.14088.1901-.65496-.169-1.14089-.7817-1.11976-1.4366 0-.6761.50706-1.2888 1.16201-1.4156.80285-.169 1.35216.169 1.81697 1.1198.21127-.5916.57044-.993 1.22539-1.162-.42255-.1479-.76059-.3381-.99299-.6761-.21128-.338-.27466-.6972-.21128-1.0986.10564-.6339.67608-1.1409 1.33104-1.2043.67612-.0634 1.24652.338 1.56342 1.162.4014-.8873 1.0353-1.3944 2.0283-1.0564.6338.2113 1.0141.8451.9507 1.5212-.0423.6127-.5282 1.1832-1.1198 1.3099-.7606.169-1.2887-.1267-1.8592-1.0564-.3169.655-.4437.7818-1.162 1.1198.7395.2747 1.2043.7606 1.162 1.5423-.0422.7183-.4648 1.162-1.2043 1.3944.5916.2113 1.0142.5493 1.1832 1.1832.2113-.4226.4014-.8029.824-1.0142.3803-.1901.7817-.2324 1.2042-.0845.6339.2324 1.0141.824.9719 1.5001-.0423.6549-.5282 1.2043-1.2043 1.331-.6972.169-1.2888-.2113-1.7747-1.1197ZM19.9379 19.4434v-.9719c0-.1268.0634-.3169.1901-.2324.3381.2113.6127-.0634.9085-.0423.2958 0 .5071.317.7184.2958.2112 0 .4225-.2958.7183-.2958.5282 0 .9296.2958.9507.8451.0212.4649.0212.9085.0212 1.3733 0 .1691-.0634.2536-.2324.2536-.1902 0-.2325-.1057-.2325-.2536v-1.1831c0-.3592-.1478-.5916-.5493-.5916-.3591 0-.4859.2536-.507.5916v1.1409c0 .1479.0211.3169-.2113.3169s-.2324-.1479-.2324-.2958c0-.3592.0211-.7395-.0211-1.0986-.0212-.3381-.1057-.655-.5493-.655-.4226.0212-.5282.3169-.5282.6761-.0212.3592 0 .6972 0 1.0564 0 .1479.0422.3169-.2113.3169-.2747 0-.2324-.169-.2324-.338v-.9085ZM18.3111 20.711c-.7183 0-1.2888-.5705-1.2676-1.2888 0-.6972.5704-1.2465 1.2676-1.2465.7184 0 1.3099.5704 1.3099 1.2465-.0211.7183-.6127 1.2888-1.3099 1.2888Zm.0212-2.1128c-.4649 0-.824.3592-.824.8662 0 .4648.338.824.8028.824.4648 0 .824-.3803.824-.8662-.0211-.4648-.3592-.824-.8028-.824ZM29.4663 19.4433v-.9718c-.0211-.2536.1691-.3381.317-.2325.2112.1691.338.0634.507 0 .655-.2324 1.2677.1691 1.3099.8451.0211.4226 0 .8451.0211 1.2888 0 .1479-.0211.2747-.2112.2747-.2113 0-.2536-.1268-.2536-.2958v-1.1409c-.0211-.3592-.169-.5704-.5493-.5916-.3803-.0211-.5915.1902-.6127.5282-.0422.4015-.0211.8029-.0211 1.1832 0 .169 0 .2958-.2324.2958s-.2324-.1268-.2324-.2958c-.0423-.2747-.0423-.5705-.0423-.8874Z" fill="#fff"/><path d="M16.6842 19.8658c-.2747.6972-.7817.9719-1.4789.824-.5493-.1057-.993-.655-.993-1.2254 0-.5705.4225-1.1198.9718-1.2465.655-.1479 1.1832.1056 1.479.7817-.2324.0634-.4015.0634-.5916-.1479-.338-.3381-.8451-.3169-1.162-.0211-.3169.3169-.3381.8662 0 1.2042.3169.3169.824.3381 1.1409 0 .1901-.1901.3803-.2113.6338-.169ZM32.7622 20.7109c-.338 0-.5916-.1479-.7183-.4648-.0423-.1057-.1902-.2747.0211-.3592.1268-.0634.3169-.0634.3592.1479 0 .0422.0422.0845.0633.1267.0846.1057.2113.1691.3592.1479.1479-.0422.2535-.1267.2747-.2746.0211-.1479-.0634-.2747-.1902-.3381-.169-.0845-.338-.1267-.507-.2324-.2747-.1479-.4015-.3803-.3381-.6972.0634-.2958.2324-.507.5282-.5704.2958-.0634.5916-.0211.7817.2535.0634.1057.1902.2535.0634.3592-.1056.0845-.2958.1056-.4014-.0634-.0423-.0423-.0634-.1056-.1268-.1268-.1479-.0845-.2746-.0422-.3591.0634-.1057.1268-.0634.2747.0633.3592.1479.0845.2958.1479.4437.2113.4014.169.5282.4859.4226.8873-.0846.4014-.3592.5705-.7395.5705ZM36.9243 19.4432c0-.2958.0211-.6127 0-.9085-.0211-.3169.1902-.3802.3592-.2535.169.1268.2535.0423.3803 0 .0845-.0422.2113-.1268.2535.0211.0211.1057.1056.317-.0634.3592-.5282.1479-.4648.5705-.4648.9507v.824c0 .1902-.0845.2324-.2535.2324-.169 0-.2113-.0634-.2113-.2324v-.993Z" fill="#fff"/><path fill-rule="evenodd" clip-rule="evenodd" d="M23.8934 19.4434c-.0023.1479-.0047.2958-.0047.4437 0 .4437 0 .8873.0423 1.331 0 .169 0 .2958.2324.2958.2146 0 .213-.1441.2115-.2826-.0001-.0115-.0002-.023-.0002-.0343v-.3592c-.0212-.2535 0-.4014.338-.2324.5916.2747 1.2043.1057 1.5634-.3803.317-.4436.317-1.0563 0-1.5-.3591-.486-.9929-.655-1.5634-.4014-.0106.0045-.021.0091-.0312.0135-.1322.0579-.2345.1026-.3913-.0347-.1902-.1479-.4226-.0845-.4015.2536.0141.2957.0094.5915.0047.8873Zm1.3056-.824h-.0003c-.0138-.0006-.0275-.0009-.0411-.0007-.4472.0034-.8252.3942-.8252.8247 0 .0036 0 .0072.0001.0107-.0001.0035-.0001.007-.0001.0104 0 .4226.3803.824.8029.8451.4648.0212.8662-.3591.8873-.8239 0-.006 0-.0118-.0002-.0177.0001-.0012.0002-.0023.0002-.0035.0211-.4646-.3378-.8449-.8236-.8451ZM36.4174 20.373v-.9085c0-.3169 0-.655.0211-.9719 0-.2958-.2535-.3591-.3591-.2324-.1673.1672-.2816.1095-.4057.0467-.0328-.0166-.0662-.0335-.1014-.0467-.5282-.2324-1.1198-.0634-1.4789.3803-.3592.4648-.3592 1.0987-.0212 1.5423.3592.4648.9719.6339 1.5212.4015.0337-.0127.0648-.0278.0946-.0423.1198-.0582.2179-.1059.3702.0634.1057.1479.3803.0845.3592-.2324Zm-.4226-.9296c.0212.4436-.4014.8662-.8451.8662-.4635 0-.864-.3992-.8662-.8414 0-.0013-.0001-.0026-.0002-.0038-.0211-.4437.3803-.8451.8451-.8451h.0031c.4425-.0193.8423.3813.8633.8241Z" fill="#fff"/><path d="M28.8959 19.8025c.0211.6761-.1268.8451-.6761.8874-.6127.0422-1.1409-.2747-1.3733-.8029-.2113-.5071-.0634-1.0564.3592-1.4155.4225-.3592 1.0564-.3803 1.5423-.0845.2747.169.3803.3169.0634.5704-.3592.2958-.6761.6338-.993.9507-.0634.0634-.1902.1268-.1268.2113.0423.0634.1479.0845.2324.1057.3803.1056.6761-.0634.9719-.4226Zm-1.6902-.338c.0211.0633.0211.2112.1056.2746.1268.1057.1902-.0845.2747-.1479.2324-.2112.4437-.4225.6549-.6338.0634-.0634.1691-.1268.1268-.2113-.0423-.0634-.1479-.0845-.2324-.1056-.4648-.1056-.9296.2958-.9296.824ZM18.4243 9.07654c.0084-.14297.0084-.29434.0336-.43731.0336-.20183.1514-.3532.328-.46253.0841-.05046.1766-.08409.2354.01682.0673.10092.0085.1682-.0841.21865-.1681.10092-.2522.25229-.2186.44572.0336.18501.1514.31116.3448.34479.0757.00841.143.00841.2186.00841h4.9365c.4205 0 .5971.17661.5971.59709v1.13532c-.1345-.2775-.3364-.3028-.5634-.2943-.2776.0084-.5467-.0085-.8242 0-.4373.0168-.7821.3195-.8409.7232-.0589.4036.1766.7821.5634.925.1766.0589.3616.0505.5466.0421.0757-.0084.1262-.0589.1262-.1346 0-.0841-.0505-.1345-.1346-.1429h-.2523c-.3279-.0168-.5634-.2607-.555-.5803.0084-.3111.2439-.5466.5718-.5466.3028-.0084.614 0 .9167 0 .1346 0 .1934.042.185.1766-.0084.2523-.0084.513 0 .7653 0 .1429-.0588.1934-.2018.185-.0757-.0084-.1514-.0084-.2187.0084-.0672.0084-.1093.0589-.1093.1261 0 .0673.0421.1094.1009.1346.2439.0757.5298-.0168.6812-.2355.0336.0421.0252.0925.0252.1346v1.2446c0 .3196-.1934.5214-.5045.5214-1.724 0-3.448.0084-5.1804 0-.4289 0-.7064-.3196-.7148-.7821V9.27837c0-.05046-.0084-.12614-.0084-.20183Zm4.9953 2.01836c-.2355 0-.4289.185-.4289.4289 0 .227.1934.412.4205.4204.2271 0 .4205-.185.4289-.412.0084-.2439-.1766-.4373-.4205-.4373Z" fill="#fff"/><path d="M24.5465 9.0766c.0084-.11774-.0505-.15138-.1598-.14297-.5718.00841-1.1437 0-1.7156 0-.0672 0-.1345.00841-.1934-.03364-.042-.04204-.0673-.08409-.042-.14296.0336-.0841.0925-.10092.1766-.10092h1.7912c.0673 0 .1514.02523.143-.10091 0-.10933-.0252-.17661-.1514-.17661H22.9487c-.101 0-.1935-.02523-.2019-.13455 0-.11774.0841-.14297.1934-.14297h1.497c.2102 0 .3784.14297.3784.3448.0084.22706.0421.46253-.0252.6896-.1009.10091-.1682.02522-.2439-.05887ZM19.5427 6.85654c.5971-.74846 1.5138-.77369 2.1193-.37844.1766.11774.3111.26911.4457.42049.2355.42048.3532.86619.1934 1.34555-.0336.0925-.0673.18501-.1093.26911-.1346.29434-.328.45412-.6896.42889-.5382-.03364-1.0849-.01682-1.6231-.00841-.1093 0-.1766-.03364-.2523-.11773-.4204-.46254-.555-1.34556-.0841-1.95946Zm1.1438 1.52215c-.1346-.03364-.1851-.10932-.2019-.21024-.0168-.0841-.0588-.13456-.1514-.11774-.1009.01682-.1093.10092-.0925.18502.0337.18501.143.30275.3112.37843.0589.03364.1261.04205.1598.12615.042.10932.1514.11773.2102.00841.0421-.0841.1009-.10933.1682-.14297.185-.08409.3028-.22706.3028-.4373s-.1094-.37003-.3028-.4373c-.1345-.05046-.1598-.12615-.1514-.24389.0085-.05045 0-.10091 0-.14296.0085-.04205-.0336-.10933.0337-.12615.0589-.01682.0925.04205.1261.0841.0168.03364.0253.06728.0337.10092.0168.07568.0588.14296.1513.12614.101-.01682.1178-.10091.101-.18501-.0337-.1766-.1346-.29434-.2944-.37003-.0757-.03364-.1429-.06727-.185-.15137-.042-.0841-.1514-.0841-.1934 0-.0421.10092-.1178.11773-.2018.15978-.1682.0841-.2776.21866-.286.41208-.0084.18501.0757.3532.2439.42048.2102.07569.2271.21024.2102.38685 0 .05046.0085.10932.0085.1766ZM22.5114 6.81436c0-.15137.0084-.30275.0084-.45412 0-.09251.0336-.15979.1261-.1682.1094-.00841.1514.06728.1514.1682.0084.15137.0084.30275.0084.45412-.0084.0841-.0084.1682-.0252.25229-.0168.07569-.0673.12615-.1514.11774-.0841-.01682-.1261-.05887-.1177-.15138.0084-.07568 0-.15137 0-.21865ZM20.4341 5.05677c.0841-.07569.1682-.07569.2523 0 0 .2607.0084.5214.0084.7821 0 .08409-.042.14296-.1261.14296-.0925.00841-.143-.05046-.143-.15137 0-.25229.0084-.51299.0084-.77369ZM19.9969 6.05751c0 .00841 0 .05887-.0084.10933-.0169.06727-.0589.10091-.1262.10932-.0757 0-.1261-.04205-.143-.11773-.0084-.07569-.0084-.15979-.0084-.23548 0-.0925.0421-.16819.1514-.16819.1093 0 .1346.0841.1346.1766v.12615Z" fill="#fff"/><path d="M23.4196 11.65c-.0841-.0084-.1346-.0504-.1346-.1429s.0589-.1346.143-.1262c.0757 0 .1261.0505.1261.1262 0 .0841-.0504.1345-.1345.1429ZM20.6865 7.18445v.32798c0 .03363.0168.07568-.0253.10091-.0504.02523-.0757-.01682-.1093-.04205-.1261-.12614-.0841-.26911.1346-.38684ZM20.9471 8.39543v-.4373c.1178.01682.1766.0841.1851.18501.0084.12615-.0589.19343-.1851.25229Z" fill="#F3F3F2"/></g><defs><clipPath id="a"><path fill="#fff" transform="translate(0 2)" d="M0 0h44v29.3333H0z"/></clipPath></defs></svg>