<svg fill="none" xmlns="http://www.w3.org/2000/svg" viewBox="0 0 61 41"><path fill-rule="evenodd" clip-rule="evenodd" d="M55.5 40.5h-50c-2.5 0-5-2.5-5-5v-30c0-2.5 2.5-5 5-5h50c2.5 0 5 2.5 5 5v30c0 2.5-2.5 5-5 5Z" fill="#3F2A56" stroke="#3F2A56"/><path d="M32.435 26.539a3.32 3.32 0 0 0-.084.643c0 .85.51 1.295 1.335 1.443l-1.552 7.415c-3.09-.162-5.507-1.305-6.531-3.797h-.066c-1.15 2.06-2.982 3.819-5.963 3.819-4.045 0-6.558-3.218-6.558-8.922 0-9.223 5.316-17.444 11.236-17.444 1.97 0 3.55 1.502 4.098 3.037l1.807-8.629h6.963l-4.685 22.435Zm-7.196-11.324c-3.28 0-5.367 8.45-5.367 12.14 0 2.015.597 3.301 2.002 3.302 1.746 0 3.091-1.733 3.687-4.564l1.405-6.777c.511-2.402-.322-4.1-1.727-4.101ZM42.167 32.915c0-1.737-1.398-3.146-3.123-3.146-1.724 0-3.123 1.409-3.123 3.146 0 1.738 1.398 3.147 3.123 3.147 1.725 0 3.123-1.41 3.123-3.147ZM35.604 28.674h7.215l5.166-24.612h-5.993c-.355.618-.94 1.207-1.696 1.647a4.719 4.719 0 0 1-1.986.644l-.84 4.11h1.985l-3.85 18.21Z" fill="#2FD9A9"/></svg>
