<svg xmlns="http://www.w3.org/2000/svg" fill="none" viewBox="0 0 62 42"><path fill="#FF1744" fill-rule="evenodd" stroke="#FF1744" d="M56 41.269H6c-2.5 0-5-2.5-5-5v-30c0-2.5 2.5-5 5-5h50c2.5 0 5 2.5 5 5v30c0 2.5-2.5 5-5 5z" clip-rule="evenodd"/><g fill="#fff" fill-rule="evenodd" clip-path="url(#a)" clip-rule="evenodd"><path d="M29.613 12.925h.329c1.78.031 2.446.91 1.999 2.634-.332.943-.967 1.594-1.905 1.952a8.65 8.65 0 0 1-4.375.376 2.377 2.377 0 0 1-1.434-.776c-.3-.595-.268-1.175.094-1.74a4.81 4.81 0 0 1 2.328-1.811 9.613 9.613 0 0 1 2.964-.635z" opacity=".985"/><path d="M33.517 30.564h-.659a6.17 6.17 0 0 1-1.552-.352 1.8 1.8 0 0 1-.87-1.247 8.61 8.61 0 0 1 .376-3.48 39.127 39.127 0 0 1 2.446-7.057 13.091 13.091 0 0 1 2.21-3.575 3.669 3.669 0 0 1 2.54-1.175c.926.047 1.522.517 1.788 1.41a8.43 8.43 0 0 1 .283 3.576 23.676 23.676 0 0 1-2.4 8.513 7.104 7.104 0 0 1-2.422 2.846 4.5 4.5 0 0 1-1.74.541z" opacity=".991"/><path d="M3.977 26.66v-.893c.091-2.907 1.534-4.765 4.327-5.575 1.569-.411 3.043-.192 4.422.66a.436.436 0 0 0 .282 0c.083-.139.137-.288.165-.448.154-.907.295-1.817.423-2.728.32-2.155 1.552-3.433 3.692-3.834 1.293-.173 2.414.18 3.364 1.059.522.7.765 1.492.729 2.375-.04.966-.189 1.915-.447 2.846a25.504 25.504 0 0 1-2.446 6.162c-1.54 2.476-3.773 3.848-6.703 4.116a13.204 13.204 0 0 1-4.328-.141 5.63 5.63 0 0 1-2.563-1.435 3.936 3.936 0 0 1-.917-2.164zm7.008-2.54c.283-.008.565 0 .847.024.492.087.711.385.659.894.01.731-.319 1.233-.988 1.505-.498.134-1 .15-1.506.047-.382-.252-.515-.605-.4-1.059.157-.775.62-1.245 1.388-1.41z" opacity=".992"/><path d="M57.976 22.097v.706c-.135 1.752-.856 3.218-2.163 4.398-2.718 2.265-5.854 3.268-9.408 3.01a12.662 12.662 0 0 1-3.716-.752c-2.107-.912-2.93-2.504-2.47-4.775.633-2.905 2.272-5.03 4.916-6.373 3.224-1.612 6.517-1.769 9.878-.47 1.87.81 2.858 2.229 2.963 4.256zm-8.984-.188c.453-.02.877.081 1.27.306a.763.763 0 0 1 .259.776c-.354 1.105-1.099 1.568-2.234 1.388-.498-.171-.75-.524-.753-1.059.054-.61.368-1.026.94-1.246.177-.062.35-.117.518-.165z" opacity=".993"/><path d="M26.743 18.805a3.633 3.633 0 0 1 2.023.4c.387.277.645.645.776 1.105.15.689.15 1.379 0 2.07a18.629 18.629 0 0 1-1.693 5.08c-1.225 2.121-3.068 3.054-5.527 2.799-1.367-.081-2.057-.803-2.07-2.164.2-2.594.992-4.985 2.375-7.174 1.06-1.31 2.433-2.015 4.116-2.116z" opacity=".99"/></g><defs><clipPath id="a"><path fill="#fff" d="M4 12.948h54v17.639H4z"/></clipPath></defs></svg>