<svg viewBox="0 0 24 16" fill="none" xmlns="http://www.w3.org/2000/svg"><g clip-path="url(#clip0)"><path fill-rule="evenodd" clip-rule="evenodd" d="M22 16H2c-1 0-2-1-2-2V2C0 .999987 1 0 2 0h20c1 0 2 1 2 1.99999V14c0 1-1 2-2 2z" fill="#fff"/><path d="M22 15.75H2c-.41869 0-.85831-.2119-1.198223-.5518C.461863 14.8583.25 14.4187.25 14V2c0-.4187.211864-.85832.551776-1.198228C1.14169.461861 1.58131.25 2 .25h20c.4187 0 .8583.211863 1.1982.551775.3399.339915.5518.779525.5518 1.198215V14c0 .4187-.2119.8583-.5518 1.1982S22.4187 15.75 22 15.75z" stroke="#069" stroke-opacity=".2" stroke-width=".5"/><path d="M13.2758 14C16.5232 14 19.5 11.3117 19.5 8.03896 19.5 4.45455 16.5232 2 13.2758 2h-2.7835C7.20619 2 4.5 4.49351 4.5 8.03896 4.5 11.3117 7.20619 14 10.4923 14h2.7835z" fill="#069"/><path d="M11.7293 11.2337V4.72725c1.2758.50649 2.2036 1.75325 2.2036 3.23377 0 1.48052-.8892 2.76628-2.2036 3.27268zM7.05145 7.99998c0-1.44156.88917-2.72728 2.20361-3.23377v6.50649c-1.3531-.5454-2.20361-1.83116-2.20361-3.27272zm3.44075-5.49351c-3.0155 0-5.45106 2.45455-5.45106 5.49351 0 3.03892 2.43556 5.49352 5.45106 5.49352 3.0154 0 5.451-2.4546 5.451-5.49352 0-3.03896-2.4356-5.49351-5.451-5.49351z" fill="#fff"/></g><defs><clipPath id="clip0"><path fill="#fff" d="M0 0h24v16H0z"/></clipPath></defs></svg>
