<svg viewBox="0 0 24 16" fill="none" xmlns="http://www.w3.org/2000/svg"><g clip-path="url(#clip0)"><path fill-rule="evenodd" clip-rule="evenodd" d="M22 16H2c-1 0-2-1-2-2V2C0 .999987 1 0 2 0h20c1 0 2 1 2 1.99999V14c0 1-1 2-2 2z" fill="#fff"/><path d="M22 15.75H2c-.41869 0-.85831-.2119-1.198223-.5518C.461863 14.8583.25 14.4187.25 14V2c0-.4187.211864-.85832.551776-1.198228C1.14169.461861 1.58131.25 2 .25h20c.4187 0 .8583.211863 1.1982.551775.3399.339915.5518.779525.5518 1.198215V14c0 .4187-.2119.8583-.5518 1.1982S22.4187 15.75 22 15.75z" stroke="#FF6D00" stroke-opacity=".2" stroke-width=".5"/><path d="M24 14c0 1-1 2-2 2h-9s8.9523-1.2669 11-5v3z" fill="#FF6D00"/><path d="M4.1773 6.06207h.67318v3.66666H4.1773V6.06207zM7.84397 7.8954c0 1.03841.79492 1.83333 1.83333 1.83333.30556 0 .5514-.06206.857-.18381V8.75c-.2459.24588-.4894.36762-.857.36762-.67079 0-1.16016-.48937-1.16016-1.22222 0-.67318.48937-1.22222 1.16016-1.22222.30556 0 .5514.12174.857.36762v-.79492C10.2287 6.12413 9.98286 6 9.6773 6c-1.03841.06207-1.83333.91667-1.83333 1.8954zm8.19033.54904l-.9787-2.38237h-.7329l1.5278 3.66666h.3652l1.5278-3.66666h-.7329l-.9763 2.38237zm2.0147 1.28429h1.9575v-.61111h-1.2843v-.97873h1.2222v-.61111h-1.2222v-.8546h1.2843v-.61111H18.049v3.66666zm4.6454-2.56619c0-.67317-.4273-1.10047-1.2222-1.10047h-1.0384v3.66666h.6708V8.26302h.0621l.9787 1.46571H23l-1.1005-1.52778c.4894-.12174.7949-.48936.7949-1.03841zm-1.406.61111h-.1838V6.67318h.1838c.4273 0 .6732.18381.6732.54904 0 .30556-.1838.55143-.6732.55143zM2.03841 6.06207H1v3.66666h.97873c1.52778 0 1.89301-1.28429 1.89301-1.83333.06207-1.10048-.73285-1.83333-1.83333-1.83333zM1.8546 9.11762h-.18142V6.67318h.24349c.91666 0 1.28429.61111 1.28429 1.22222 0 .24349-.06207 1.22222-1.34636 1.22222zM6.68381 7.4681c-.4273-.18381-.55143-.24588-.55143-.4273 0-.24588.24587-.36762.48936-.36762.18382 0 .36763.06206.55144.30555l.36523-.48936c-.30555-.30556-.61111-.4273-1.03841-.4273-.61111 0-1.10048.4273-1.10048 1.03841 0 .48936.24588.73285.85699.97873.36524.12174.67079.24349.67079.54904 0 .30556-.24349.48937-.54904.48937-.30556 0-.61112-.18381-.73286-.48937l-.42969.4273c.30556.48937.67318.67318 1.22222.67318.73525 0 1.22223-.48936 1.22223-1.16015 0-.55144-.24349-.79493-.97635-1.10048z" fill="#000"/><path d="M12.6108 9.72862c-1.0384 0-1.8333-.79492-1.8333-1.83334 0-1.03841.7949-1.83333 1.8333-1.83333 1.0384 0 1.8333.79492 1.8333 1.83333 0 1.03842-.7949 1.83334-1.8333 1.83334z" fill="#FF6D00"/></g><defs><clipPath id="clip0"><path fill="#fff" d="M0 0h24v16H0z"/></clipPath></defs></svg>
