<svg fill="none" xmlns="http://www.w3.org/2000/svg" viewBox="0 0 62 42"><path fill-rule="evenodd" clip-rule="evenodd" d="M56 40.732H6c-2.5 0-5-2.5-5-5v-30c0-2.5 2.5-5 5-5h50c2.5 0 5 2.5 5 5v30c0 2.5-2.5 5-5 5Z" fill="#fff" stroke="#E5E7EB"/><path d="M28.374 29.046h-.028c-1.401 1.65-3.811 2.462-5.97 2.462-4.288 0-7.287-2.826-7.287-7.22 0-4.169 3-7.163 7.175-7.163 4.232 0 7.456 2.602 6.923 8.115H17.416c.252 2.547 2.354 4.142 5.016 4.142 1.57 0 3.476-.616 4.4-1.735l1.542 1.399Zm-1.373-5.737v.028c-.112-2.686-1.962-4.142-4.68-4.142-2.411 0-4.513 1.456-4.905 4.114H27ZM33.124 11.645v8.293c.974-1.877 3.2-2.774 5.147-2.774 3.923 0 6.955 2.522 6.955 7.172 0 4.567-3.032 7.172-6.983 7.172-2.03 0-4.034-.896-5.119-2.773l-.111 2.521h-2.17v-19.61h2.281Zm4.98 7.677c-2.698 0-4.869 2.017-4.869 4.986 0 3.026 2.143 5.043 4.87 5.043 2.67 0 4.84-1.82 4.84-5.015 0-3.25-2.17-5.014-4.84-5.014ZM50.746 13.472v4.054h4.279v1.957h-4.307v7.299c0 1.621.531 2.656 2.181 2.656.616 0 1.315-.196 1.93-.503l.672 1.9c-.923.42-1.763.644-2.686.672-2.964.056-4.363-1.678-4.363-4.726v-7.297h-2.769v-1.958h2.77v-3.803l2.293-.251Z" fill="#757B82"/><path d="M14.42 12.283c.367 0 .66.293.66.644a.656.656 0 0 1-.66.659.656.656 0 0 1-.659-.659c0-.351.293-.644.66-.644ZM14.142 14.434c0 .352-.278.63-.615.63a.622.622 0 0 1 0-1.244.61.61 0 0 1 .615.614ZM13.131 11.244c.337 0 .6.278.6.6a.59.59 0 0 1-.6.586.59.59 0 0 1-.6-.586c0-.322.263-.6.6-.6ZM12.912 13.249a.587.587 0 0 1-.586.585.587.587 0 0 1-.586-.585c0-.322.263-.585.586-.585.336.014.585.263.585.585ZM11.55 10.732c.322 0 .556.249.556.556a.547.547 0 0 1-.557.556.556.556 0 0 1-.556-.556c-.015-.307.249-.556.556-.556ZM11.242 12.825a.525.525 0 0 1-.528.527.525.525 0 0 1-.527-.527c0-.293.234-.527.527-.527.293 0 .528.234.528.527ZM9.865 10.79c.278 0 .512.22.512.498a.519.519 0 0 1-.512.512.519.519 0 0 1-.513-.512.516.516 0 0 1 .513-.498ZM8.283 11.39c.264 0 .484.22.484.483a.466.466 0 0 1-.484.469.475.475 0 0 1-.483-.469c0-.263.22-.483.483-.483ZM7.902 13.98a.44.44 0 0 1 .44.44.44.44 0 0 1-.44.439.453.453 0 0 1-.454-.44c0-.233.205-.438.454-.438ZM5.5 16.044c0-.19.146-.35.337-.35.19 0 .337.145.337.35 0 .19-.147.337-.337.337a.331.331 0 0 1-.337-.337ZM6.13 17.99a.325.325 0 0 1-.322-.321c0-.176.146-.322.322-.322.176 0 .322.146.322.322 0 .19-.146.322-.322.322ZM6.144 14.771a.394.394 0 0 1-.395-.395c0-.22.176-.395.395-.395.22 0 .396.175.396.395 0 .22-.176.395-.396.395ZM6.994 12.517c.234 0 .425.19.425.425 0 .22-.19.424-.425.424a.413.413 0 0 1-.41-.424.404.404 0 0 1 .41-.425ZM6.98 19.396a.288.288 0 0 1-.279-.278c0-.146.117-.264.278-.264.162 0 .279.117.279.264a.278.278 0 0 1-.279.278ZM7.097 16.044c0-.205.16-.366.366-.366.205 0 .366.176.366.366a.362.362 0 0 1-.366.366.372.372 0 0 1-.366-.366ZM7.595 17.654c0-.19.146-.322.322-.322.176 0 .308.147.308.322a.31.31 0 0 1-.308.308c-.19 0-.322-.132-.322-.308ZM8.269 20.45a.257.257 0 0 1-.25-.25c0-.131.118-.248.25-.248.146 0 .249.117.249.249a.238.238 0 0 1-.25.249ZM9.074 12.751c.278 0 .513.22.513.498a.51.51 0 0 1-.513.512.497.497 0 0 1-.498-.512c0-.278.235-.498.498-.498ZM9.088 19.103a.285.285 0 0 1-.293-.293.294.294 0 0 1 .586 0 .285.285 0 0 1-.293.293ZM9.088 16.44a.394.394 0 0 1-.395-.396c0-.22.176-.395.395-.395.22 0 .396.176.396.395 0 .22-.176.395-.396.395ZM9.865 21.006a.216.216 0 0 1-.22-.22c0-.117.088-.22.22-.22.117 0 .22.103.22.22s-.103.22-.22.22ZM9.894 17.757a.325.325 0 0 1-.322-.322c0-.19.146-.322.322-.322.176 0 .322.146.322.322a.325.325 0 0 1-.322.322ZM9.894 15.122a.463.463 0 0 1-.469-.468c0-.263.205-.468.469-.468s.469.205.469.468a.472.472 0 0 1-.469.468ZM10.714 19.498a.238.238 0 0 1-.249-.248c0-.147.103-.264.25-.264.131 0 .248.117.248.264a.247.247 0 0 1-.249.248ZM10.963 14.64a.556.556 0 0 1 1.114 0 .544.544 0 0 1-.557.54.535.535 0 0 1-.557-.54ZM11.608 20.977a.225.225 0 0 1-.22-.22c0-.117.103-.22.22-.22s.22.088.22.22-.088.22-.22.22ZM12.34 19.03c-.117 0-.22-.088-.22-.205 0-.117.103-.22.22-.22s.22.103.22.22c-.015.102-.103.205-.22.205ZM12.326 16.645a.606.606 0 1 1 0-1.215c.336 0 .6.278.6.614.015.337-.264.6-.6.6ZM13.146 20.406c-.103 0-.19-.088-.19-.205 0-.103.087-.19.19-.19.117 0 .19.087.19.19.015.117-.073.205-.19.205ZM14.45 19.293a.17.17 0 0 1-.176-.175c0-.088.073-.161.176-.161.088 0 .16.073.16.16 0 .089-.072.176-.16.176ZM13.952 16.718a.687.687 0 1 1 .688-.688c-.015.38-.308.688-.688.688ZM14.581 14.376a.687.687 0 1 1 1.377 0 .687.687 0 1 1-1.377 0ZM15.577 16.79a.766.766 0 0 1-.762-.76c0-.41.352-.761.762-.761.425 0 .762.336.762.76a.765.765 0 0 1-.762.762Z" fill="#FF6C0C"/></svg>