<svg viewBox="0 0 44 34" fill="none" xmlns="http://www.w3.org/2000/svg"><path fill-rule="evenodd" clip-rule="evenodd" d="M40.3333 31.8525H3.66667C1.83333 31.8525 0 30.0492 0 28.2459V6.60656C0 4.80326 1.83333 3 3.66667 3H40.3333C42.1667 3 44 4.80328 44 6.60653V28.2459c0 1.8033-1.8333 3.6066-3.6667 3.6066z" fill="#fff"/><path d="M40.3333 31.217H3.66667c-.7137 0-1.47797-.3571-2.07526-.9446-.597942-.5881-.955993-1.3353-.955993-2.0265V6.60656c0-.69126.358052-1.43838.955993-2.02651.59729-.5875 1.36156-.94463 2.07526-.94463H40.3333c.7137 0 1.478.35714 2.0753.94463.5979.58814.956 1.33526.956 2.02648V28.2459c0 .6912-.3581 1.4384-.956 2.0265-.5973.5875-1.3616.9446-2.0753.9446z" stroke="#EFDF2B" stroke-opacity=".2" stroke-width="1.27083"/><path d="M40.7 15.975v-.125h.05c.025 0 .05 0 .075.025.025 0 .0249.025.0249.05s.0001.025-.0249.05c0 0-.05.025-.075.025h-.05v-.025z" fill="#EFDF2B"/><path d="M40.7 15.825v.125h.05c.025 0 .075 0 .075-.025.025 0 .025-.025.025-.05s0-.025-.025-.05c0 0-.025-.025-.075-.025h-.05v.025zm.25.275l.075.15h-.15c-.05-.1-.075-.15-.1-.175-.025-.025-.025-.025-.05-.025H40.7v.2h-.125v-.5h.225c.05 0 .1 0 .15.05.025.025.05.05.05.1 0 .025 0 .075-.025.1-.025.025-.05.05-.1.05.025 0 .025.025.05.025l.025.025z" fill="#EFDF2B"/><path d="M41.025 16.25l-.075-.15c0-.025-.025-.05-.05-.05 0 0-.025 0-.05-.025.05 0 .075-.025.1-.05.025-.025.025-.05.025-.1s-.025-.075-.05-.1c-.025-.025-.075-.05-.15-.05h-.225v.5h.125v-.2h.025c.025 0 .025 0 .05.025s.05.075.1.175h.175v.025zm.05-.525c.075.075.1.175.1.275 0 .1-.025.2-.1.275-.075.075-.175.125-.275.125-.1 0-.2-.05-.275-.125-.075-.075-.1-.175-.1-.275 0-.1.025-.2.1-.275.075-.075.175-.125.275-.125.1.025.2.05.275.125z" fill="#EFDF2B"/><path d="M41.175 16c0-.1-.025-.2-.1-.275C41 15.65 40.9 15.6 40.8 15.6c-.1 0-.2.05-.275.125-.075.075-.1.175-.1.275 0 .1.025.2.1.275.075.075.175.125.275.125.1 0 .2-.05.275-.125.075-.075.1-.175.1-.275zm-.15-.4c.075.05.125.1.175.175.05.075.05.15.05.25 0 .075-.025.175-.05.225-.05.075-.1.125-.175.175-.075.05-.15.05-.225.05-.075 0-.175-.025-.25-.05-.075-.05-.125-.1-.175-.175-.05-.075-.075-.15-.075-.225 0-.075.025-.175.075-.25.05-.075.1-.125.175-.175.075-.05.15-.075.25-.075.075 0 .175.025.225.075zm-1.95 1.55c.025.15.05.275.05.425 0 .15-.025.275-.05.4s-.075.25-.125.35c-.05.1-.15.175-.25.225-.1.05-.225.1-.375.1s-.275-.025-.375-.075c-.1-.05-.175-.15-.25-.225-.05-.1-.1-.225-.125-.35-.025-.125-.025-.275-.025-.4 0-.15 0-.275.025-.425.025-.125.075-.25.125-.35.05-.1.15-.175.25-.225.1-.05.225-.1.375-.1s.275.025.375.1c.1.05.175.15.25.225.075.075.1.2.125.325z" fill="#EFDF2B"/><path d="M38.325 19.6c-.3 0-.575-.05-.825-.15-.25-.1-.45-.225-.625-.4-.175-.175-.3001-.4-.4001-.625-.1-.25-.1499-.525-.1499-.825 0-.3.0499-.575.1499-.85.025-.075.05-.125.075-.175.075-.175.2001-.325.3251-.475.175-.175.375-.325.625-.425.25-.1.525-.15.825-.15.3 0 .575.05.825.15.25.1.4499.225.6499.425.175.175.3001.4.4001.65.1.25.1499.525.1499.85 0 .3-.0499.575-.1499.825s-.2251.475-.4001.65c-.175.175-.3999.325-.6499.4-.25.075-.525.125-.825.125zm0-3.125c-.15 0-.275.025-.375.1-.1.05-.175.15-.25.225-.05.1-.1.2-.125.35-.025.15-.0251.275-.0251.425 0 .15.0001.275.0251.4s.075.25.125.35c.075.1.15.175.25.225.1.05.225.075.375.075s.275-.025.375-.1c.1-.05.175-.125.25-.225.05-.1.1-.225.125-.35.025-.125.05-.275.05-.4 0-.15-.025-.275-.05-.425-.025-.125-.075-.25-.125-.35-.05-.1-.15-.175-.25-.225-.1-.025-.225-.075-.375-.075z" fill="#EFDF2B"/><path d="M35.65 18.525c-.05 0-.075-.025-.075-.05 0 0-.025-.025-.05-.075 0-.05-.025-.1-.025-.2v-1.7h.7l.325.05c-.025.05-.05.125-.075.175-.1.25-.15.525-.15.85 0 .3.05.575.15.825l-.225.1H36.2l-.075.025c-.05 0-.1.025-.125.025h-.15c-.1 0-.15 0-.2-.025z" fill="#EFDF2B"/><path d="M35.875 19.525h-.3c-.175 0-.325 0-.475-.025-.15-.025-.275-.075-.4-.15s-.225-.175-.3-.3c-.075-.125-.1-.3-.1-.5V16.5h-.575c-.05 0-.025-.05-.025-.05v-.8s0-.025.05-.025h.575v-1.05s0-.05.05-.05H35.5c.05 0 .05.05.05.05v1.05h.7c.05 0 .05.05.05.05v.775c0 .05-.05.05-.05.05h-.75v1.725c0 .075 0 .15.025.2 0 .05.025.075.05.075 0 0 .025.025.075.05.05.025.125.025.2.025H36c.05 0 .1 0 .125-.025l.075-.025h.025v.925c0 .05-.025.05-.025.05h-.05c-.075.025-.175.025-.275.025zm-2.65-.075s0 .05-.05.05h-1.05c-.025 0-.05-.025-.05-.05l-.225-3.8s0-.025.05-.025h1.475c.05 0 .05.05.05.05l-.2 3.775zm-.575.25c.4 0 .725.325.725.725 0 .4-.325.725-.725.725-.4 0-.725-.325-.725-.725 0-.4.325-.725.725-.725z" fill="#EFDF2B"/><path d="M32.1 19.475h-.325l-1.4-2.025 1.275-1.8h.225l.225 3.825c0-.025 0-.025 0 0z" fill="#EFDF2B"/><path d="M28.925 19.5H27.65c-.05 0-.025-.025-.025-.025l1.375-2-1.175-1.7-.1-.125s-.025-.025.025-.025h1.325c.05 0 .05.025.05.025l.575.85.575-.85s.025-.025.05-.025H31.6c.05 0 .025.025.025.025l-1.275 1.8 1.4 2.025s0 .025-.025.025h-1.3c-.05 0-.075-.05-.075-.05l-.7-1.05-.7 1.05c.05 0 .025.05-.025.05zm-2.475-4.2h-.675c-.05 0 0-.05 0-.05l.575-.7s.025-.025.075-.025H27.5c.05 0 0 .025 0 .025l-.95.725s-.05.025-.1.025z" fill="#EFDF2B"/><path d="M32.65 19.7c-.4 0-.725.325-.725.725 0 .4.325.725.725.725.4 0 .725-.325.725-.725 0-.4-.325-.725-.725-.725zm1.75-.625c.075.125.175.225.3.3.125.075.25.125.4.15.15.025.3.025.475.025h.3c.1 0 .2-.025.3-.025h.05s.025 0 .025-.05v-.925l.225-.1c.1.25.225.45.4.625.175.175.375.325.625.4.25.1.525.15.825.15.3 0 .575-.05.825-.15.25-.1.45-.225.65-.4.175-.175.3-.4.4-.65.1-.25.15-.525.15-.825 0-.3-.05-.575-.15-.85-.1-.25-.225-.475-.4-.65-.175-.175-.4-.325-.65-.425-.25-.1-.525-.15-.825-.15-.3 0-.575.05-.825.15-.25.1-.45.225-.625.425-.125.125-.25.3-.325.475l-.325-.05s.05 0 .05-.05V15.7s0-.05-.05-.05H35.5V14.6s0-.05-.05-.05h-1.125c-.05 0-.05.05-.05.05v1.05H33.7c-.05 0-.05.025-.05.025v.8s0 .05.025.05h.575V18.6c.05.175.075.325.15.475zm-5.4-1.6l-1.375 2s-.025.025.025.025h1.275c.05 0 .075-.05.075-.05l.7-1.05.7 1.05s.025.05.075.05h1.3c.025 0 .025-.025.025-.025h.325s0 .05.05.05h1.05c.05 0 .05-.05.05-.05l.225-3.8s0-.05-.05-.05h-1.475c-.05 0-.05.025-.05.025H31.7s0-.025-.025-.025H30.4c-.025 0-.05.025-.05.025l-.575.85-.575-.85s-.025-.025-.05-.025h-1.4c-.025 0-.025.025-.025.025l.1.125 1.175 1.7zM25.8 15.3h.675c.05 0 .075-.025.075-.025l.95-.725s.025-.025 0-.025h-1.075c-.05 0-.075.025-.075.025l-.575.7s-.025.05.025.05zm1.25.425c-.25-.125-.525-.2-.85-.2-.3 0-.55.05-.8.15-.25.1-.45.25-.625.425s-.3.4-.4.65c-.1.25-.15.525-.15.8 0 .3.05.575.15.825.1.25.225.475.4.65.175.175.375.325.625.425.25.1.525.15.825.15.425 0 .8-.1 1.125-.3.15-.1.3-.225.4-.4.1-.175.2-.35.275-.6l.025-.075s0-.025-.025-.025h-1c-.05 0-.05.025-.05.025v.025c0 .05-.025.1-.075.125-.05.05-.1.1-.175.15-.125.1-.3.125-.475.125-.125 0-.25-.025-.35-.05-.1-.025-.175-.075-.25-.15-.075-.075-.125-.15-.15-.25-.025-.075-.05-.175-.05-.3h2.6c.05 0 .05-.05.05-.05v-.225c0-.225-.025-.45-.075-.65-.075-.275-.175-.525-.35-.725-.175-.225-.375-.4-.625-.525zm5.225-7.675c5.225 0 9.475 4.25 9.475 9.475S37.5 27 32.275 27 22.8 22.75 22.8 17.525s4.25-9.475 9.475-9.475zm8.925 7.725c-.05-.075-.1-.125-.175-.175-.075-.05-.15-.075-.225-.075-.075 0-.175.025-.25.075-.075.05-.125.1-.175.175-.05.075-.075.15-.075.25 0 .075.025.175.075.225.05.075.1.125.175.175.075.05.15.05.25.05.075 0 .175-.025.225-.05.075-.05.125-.1.175-.175.05-.075.05-.15.05-.225.025-.1 0-.2-.05-.25z" fill="#EFDF2B"/><path d="M25.8 16.55c.1-.05.2-.075.35-.075.125 0 .225.025.3.05.075.025.15.075.2.125.1.1.175.25.2.45H25.4c0-.05.025-.075.025-.125.025-.075.05-.15.125-.225.075-.1.15-.15.25-.2z" fill="#EFDF2B"/><path d="M26.475 16.525c-.075-.025-.175-.05-.3-.05-.15 0-.275.025-.35.075-.1.05-.175.1-.225.175-.05.075-.1.15-.125.225-.025.05-.025.1-.025.125h1.45c-.05-.2-.125-.35-.2-.45-.1-.025-.15-.075-.225-.1zm-.275-1c.325 0 .6.05.85.2.25.125.45.3.6.525.15.225.275.45.35.725.05.2.075.425.075.65v.225s0 .05-.05.05h-2.6c0 .125.025.225.05.3.025.1.1.2.15.25.075.05.15.125.25.15.1.025.225.05.35.05.2 0 .35-.05.475-.125.075-.05.125-.1.175-.15.025-.05.05-.1.075-.125v-.025s0-.025.05-.025h1c.05 0 .025.025.025.025L28 18.3c-.075.225-.175.425-.275.6-.1.175-.25.3-.4.4-.3.2-.675.3-1.125.3-.3 0-.575-.05-.825-.15-.25-.1-.45-.225-.625-.425-.175-.175-.3-.4-.4-.65-.1-.25-.15-.525-.15-.825 0-.275.05-.55.15-.8.1-.25.225-.475.4-.65.175-.175.375-.325.625-.425.275-.1.525-.15.825-.15z" fill="#EFDF2B"/><path d="M19.1 18.925c.825 0 1.15-.5 1.15-.85v-.625c-.25.175-.7.175-1.125.25-.4.075-.75.225-.75.675 0 .425.35.55.725.55zm-1.3-.025c-.05-.125-.1-.3-.1-.475 0-.85.625-1.025 1.275-1.175.7-.125 1.275-.075 1.275-.55 0-.55-.45-.625-.85-.625-.525 0-.9.15-.95.7h-.625c0-.175.025-.325.1-.475.225-.575.825-.8 1.5-.8s1.425.15 1.425 1.025V18.5c0 .3 0 .425.2.425.05 0 .1 0 .2-.025v.475c-.1.075-.25.1-.45.1-.325 0-.525-.175-.525-.575-.35.4-.8.575-1.325.575-.525 0-.95-.175-1.15-.575zm-.4 0v.5h-.475c-.65 0-.9-.125-.9-.825v-2.4h-.65v-.55h.65V14.5h.625v1.125h.75v.55h-.75V18.5c0 .275.075.35.475.35h.275v.05zm-4.9-1.2c-.025.65.35 1.25 1.175 1.25.525 0 .875-.25.975-.75h.6c-.175.825-.775 1.275-1.625 1.275-1.2 0-1.775-.825-1.8-1.975 0-1.125.75-1.975 1.775-1.975 1.35 0 1.75 1.25 1.7 2.15h-2.8v.025zm1.075-1.625c-.65 0-1.025.5-1.075 1.075h2.175c-.05-.6-.5-1.075-1.1-1.075zm-2.325-1.9h-.625v.75h.625v-.75zm0 1.45v4.25c0 .675-.35.975-.9.975-.1 0-.2 0-.325-.025V20.3h.25c.275 0 .35-.125.35-.525v-4.15h.625zm-.95-.1v.65c-1.00001 0-1.37501.575-1.37501 1.525v1.675h-.625v-3.75h.575v.8h.025c.325-.625.725-.925 1.40001-.9zm-4.52501 3.4c.825 0 1.15-.5 1.15-.85v-.625c-.25.175-.7.175-1.125.25-.4.075-.75.225-.75.675 0 .425.35.55.725.55zm1.775-.425c0 .3 0 .425.2.425.05 0 .1 0 .175-.025v.475c-.1.075-.25.1-.45.1-.325 0-.525-.175-.525-.575-.35.4-.8.575-1.325.575-.525 0-.95-.175-1.15-.575-.05-.125-.1-.3-.1-.475 0-.85.625-1.025 1.275-1.175.7-.125 1.275-.075 1.275-.55 0-.55-.45-.625-.85-.625-.525 0-.9.15-.95.7h-.625c0-.175.025-.325.1-.475.225-.575.825-.8 1.5-.8s1.425.15 1.425 1.025V18.5h.025zm-3.475.4v.5h-.475c-.65 0-.9-.125-.9-.825v-2.4h-.65v-.55h.65V14.5h.625v1.125h.75v.55h-.75V18.5c0 .275.075.35.475.35h.275v.05z" fill="#000"/><path d="M40.7 15.825h.05c.025 0 .05 0 .075.025.025 0 .0249.025.0249.05s.0001.025-.0249.05c0 0-.05.025-.075.025h-.05v-.15z" fill="#EFDF2B"/><path d="M40.7 15.975h.05c.025 0 .075 0 .075-.025.025 0 .025-.025.025-.05s0-.025-.025-.05c0 0-.025-.025-.075-.025h-.05v.15zm0 .075v.2h-.125v-.5h.225c.05 0 .1 0 .15.05.025.025.05.05.05.1 0 .025 0 .075-.025.1-.025.025-.05.05-.1.05.025 0 .025.025.05.025s.025.025.05.05l.075.15h-.15c-.05-.1-.075-.15-.1-.175-.05-.025-.05-.05-.1-.05.025 0 .025 0 0 0z" fill="#211C1E"/><path d="M40.7 16.25v-.2h.025c.025 0 .025 0 .05.025s.05.075.1.175h.15l-.075-.15c0-.025-.025-.05-.05-.05 0 0-.025 0-.05-.025.05 0 .075-.025.1-.05.025-.025.025-.05.025-.1s-.025-.075-.05-.1c-.025-.025-.075-.05-.15-.05h-.225v.5h.15v.025zm-.175-.525c.075-.075.175-.125.275-.125.1 0 .2.05.275.125.075.075.1.175.1.275 0 .1-.025.2-.1.275-.075.075-.175.125-.275.125-.1 0-.2-.05-.275-.125-.075-.075-.1-.175-.1-.275 0-.1.025-.2.1-.275z" fill="#EFDF2B"/><path d="M40.525 16.275c.075.075.175.125.275.125.1 0 .2-.05.275-.125.075-.075.1-.175.1-.275 0-.1-.025-.2-.1-.275C41 15.65 40.9 15.6 40.8 15.6c-.1 0-.2.05-.275.125-.075.075-.1.175-.1.275 0 .1.025.2.1.275zm.025.15c-.075-.05-.125-.1-.175-.175-.05-.075-.075-.15-.075-.225 0-.075.025-.175.075-.25.05-.075.1-.125.175-.175.075-.05.15-.075.25-.075.075 0 .175.025.225.075.075.05.125.1.175.175.05.075.05.15.05.25 0 .075-.025.175-.05.225-.05.075-.1.125-.175.175-.075.05-.15.05-.225.05-.075 0-.15-.025-.25-.05z" fill="#211C1E"/><path d="M39.075 17.15c.025.15.05.275.05.425 0 .15-.025.275-.05.4s-.075.25-.125.35c-.05.1-.15.175-.25.225-.1.05-.225.1-.375.1s-.275-.025-.375-.075c-.1-.05-.175-.15-.25-.225-.05-.1-.1-.225-.125-.35-.025-.125-.025-.275-.025-.4 0-.15 0-.275.025-.425.025-.125.075-.25.125-.35.05-.1.15-.175.25-.225.1-.05.225-.1.375-.1s.275.025.375.1c.1.05.175.15.25.225.075.075.1.2.125.325z" fill="#EFDF2B"/><path d="M38.325 19.6c-.3 0-.575-.05-.825-.15-.25-.1-.45-.225-.625-.4-.175-.175-.3001-.4-.4001-.625-.1-.25-.1499-.525-.1499-.825 0-.3.0499-.575.1499-.85.025-.075.05-.125.075-.175.075-.175.2001-.325.3251-.475.175-.175.375-.325.625-.425.25-.1.525-.15.825-.15.3 0 .575.05.825.15.25.1.4499.225.6499.425.175.175.3001.4.4001.65.1.25.1499.525.1499.85 0 .3-.0499.575-.1499.825s-.2251.475-.4001.65c-.175.175-.3999.325-.6499.4-.25.075-.525.125-.825.125zm-.625-1.275c.075.1.15.175.25.225.1.05.225.075.375.075s.275-.025.375-.1c.1-.05.175-.125.25-.225.05-.1.1-.225.125-.35.025-.125.05-.275.05-.4 0-.15-.025-.275-.05-.425-.025-.125-.075-.25-.125-.35-.05-.1-.15-.175-.25-.225-.1-.05-.225-.1-.375-.1s-.275.025-.375.1c-.1.05-.175.15-.25.225-.05.1-.1.2-.125.35-.025.15-.0251.275-.0251.425 0 .15.0001.275.0251.4.025.15.075.275.125.375z" fill="#211C1E"/><path d="M35.575 18.5s-.025-.025-.05-.075c0-.05-.025-.1-.025-.2V16.5h.7l.325.05c-.025.05-.05.125-.075.175-.1.25-.15.525-.15.85 0 .3.05.575.15.825l-.225.1H36.2l-.075.025c-.05 0-.1.025-.125.025h-.15c-.075 0-.15 0-.2-.025-.05-.025-.075-.025-.075-.025z" fill="#EFDF2B"/><path d="M35.875 19.525h-.3c-.175 0-.325 0-.475-.025-.15-.025-.275-.075-.4-.15s-.225-.175-.3-.3c-.075-.125-.1-.3-.1-.5V16.5h-.575c-.05 0-.025-.05-.025-.05v-.8s0-.025.05-.025h.575v-1.05s0-.05.05-.05H35.5c.05 0 .05.05.05.05v1.05h.7c.05 0 .05.05.05.05v.775c0 .05-.05.05-.05.05h-.75v1.725c0 .075 0 .15.025.2 0 .05.025.075.05.075 0 0 .025.025.075.05.05.025.125.025.2.025H36c.05 0 .1 0 .125-.025l.075-.025h.025v.925c0 .05-.025.05-.025.05h-.05c-.075.025-.175.025-.275.025zm-2.65-.075s0 .05-.05.05h-1.05c-.025 0-.05-.025-.05-.05l-.225-3.8s0-.025.05-.025h1.475c.05 0 .05.05.05.05l-.2 3.775z" fill="#211C1E"/><path d="M32.65 19.7c.4 0 .725.325.725.725 0 .4-.325.725-.725.725-.4 0-.725-.325-.725-.725 0-.4.325-.725.725-.725z" fill="#C12A21"/><path d="M31.775 19.45l-1.4-2.025 1.275-1.8h.225l.225 3.8-.325.025c0 .025 0 0 0 0z" fill="#EFDF2B"/><path d="M30.375 17.45l1.4 2.025s0 .025-.025.025h-1.3c-.05 0-.075-.05-.075-.05l-.7-1.05-.7 1.05s-.025.05-.075.05h-1.275c-.05 0-.025-.025-.025-.025l1.375-2-1.175-1.7-.1-.125s-.025-.025.025-.025h1.325c.05 0 .05.025.05.025l.575.85.575-.85s.025-.025.05-.025h1.275c.05 0 .025.025.025.025l-1.225 1.8zm-2.875-2.9l-.95.725s-.025.025-.075.025H25.8c-.05 0 0-.05 0-.05l.575-.7s.025-.025.075-.025h1.075l-.025.025z" fill="#211C1E"/><path d="M26.65 16.65c.1.1.175.25.2.45H25.4c0-.05.025-.075.025-.125.025-.075.05-.15.125-.225.05-.075.125-.125.225-.175.1-.05.2-.075.35-.075.125 0 .225.025.3.05.125 0 .175.05.225.1z" fill="#EFDF2B"/><path d="M26.875 17.075c-.05-.2-.125-.35-.2-.45-.05-.05-.1-.1-.2-.125-.075-.025-.175-.05-.3-.05-.15 0-.275.025-.35.075-.1.05-.175.1-.225.175-.05.075-.1.15-.125.225-.025.05-.025.1-.025.125h1.425v.025zm.175-1.35c.25.125.45.3.6.525.15.225.275.45.35.725.05.2.075.425.075.65v.225s0 .05-.05.05h-2.6c0 .125.025.225.05.3.025.1.1.2.15.25.075.05.15.125.25.15.1.025.225.05.35.05.2 0 .35-.05.475-.125.075-.05.125-.1.175-.15.025-.05.05-.1.075-.125v-.025s0-.025.05-.025h1c.05 0 .025.025.025.025L28 18.3c-.075.225-.175.425-.275.6-.1.175-.25.3-.4.4-.3.2-.675.3-1.125.3-.3 0-.575-.05-.825-.15-.25-.1-.45-.225-.625-.425-.175-.175-.3-.4-.4-.65-.1-.25-.15-.525-.15-.825 0-.275.05-.55.15-.8.1-.25.225-.475.4-.65.175-.175.375-.325.625-.425.25-.1.525-.15.8-.15.35 0 .625.075.875.2z" fill="#211C1E"/><path d="M20.25 17.45c-.25.175-.7.175-1.125.25-.4.075-.75.225-.75.675 0 .4.35.55.725.55.825 0 1.15-.5 1.15-.85v-.625zm-1.275-.2c.7-.125 1.275-.075 1.275-.55 0-.55-.45-.625-.85-.625-.525 0-.9.15-.95.7h-.625c0-.175.025-.325.1-.475.225-.575.825-.8 1.5-.8s1.425.15 1.425 1.025V18.5c0 .3 0 .425.2.425.05 0 .1 0 .2-.025v.475c-.1.075-.25.1-.45.1-.325 0-.525-.175-.525-.575-.35.4-.8.575-1.325.575-.525 0-.95-.175-1.15-.575-.05-.125-.1-.3-.1-.475 0-.85.65-1.05 1.275-1.175zM16.65 18.5c0 .275.075.35.475.35h.275v.55h-.475c-.65 0-.9-.125-.9-.825v-2.4h-.65v-.55h.65V14.5h.625v1.125h.75v.55h-.75V18.5zm-2-1.35c-.025-.6-.475-1.075-1.1-1.075-.65 0-1.025.5-1.075 1.075h2.175zm-2.825.35c0-1.125.75-1.975 1.775-1.975 1.35 0 1.75 1.25 1.7 2.15h-2.8c-.025.65.35 1.25 1.175 1.25.525 0 .875-.25.975-.75h.6c-.175.825-.775 1.275-1.625 1.275-1.175.025-1.75-.8-1.8-1.95zm-.575-3.325h-.625v.75h.625v-.75zm0 1.45v4.25c0 .675-.35.975-.9.975-.1 0-.2 0-.325-.025V20.3h.25c.275 0 .35-.125.35-.525v-4.15h.625zm-.95-.1v.65c-1.00001 0-1.37501.575-1.37501 1.525v1.675h-.625v-3.75h.575v.8h.025c.325-.625.725-.925 1.40001-.9zm-4.52501 3.4c.825 0 1.15-.5 1.15-.85v-.625c-.25.175-.7.175-1.125.25-.4.075-.75.225-.75.675 0 .425.35.55.725.55zm-1.4-.5c0-.85.625-1.025 1.275-1.175.7-.125 1.275-.075 1.275-.55 0-.55-.45-.625-.85-.625-.525 0-.9.15-.95.7h-.625c0-.175.025-.325.1-.475.225-.575.825-.8 1.5-.8s1.425.15 1.425 1.025V18.5c0 .3 0 .425.2.425.05 0 .1 0 .175-.025v.475c-.1.075-.25.1-.45.1-.325 0-.525-.175-.525-.575-.35.4-.8.575-1.325.575-.525 0-.95-.175-1.15-.575-.025-.125-.075-.3-.075-.475zm-.3.475v.5h-.475c-.65 0-.9-.125-.9-.825v-2.4h-.65v-.55h.65V14.5h.625v1.125h.75v.55h-.75V18.5c0 .275.075.35.475.35h.275v.05z" fill="#000"/></svg>