<svg xmlns="http://www.w3.org/2000/svg" viewBox="0 0 60 40"><g clip-path="url(#a)"><path fill="#5f6368" d="M28.35 20.377v6.787H26.1V10.379h5.85c1.425 0 2.775.51 3.825 1.46 1.05.875 1.575 2.189 1.575 3.575s-.525 2.628-1.575 3.576c-1.05.95-2.325 1.46-3.825 1.46zm0-7.955v5.839h3.75c.825 0 1.65-.292 2.175-.876 1.2-1.095 1.2-2.92.075-4.014l-.075-.073c-.6-.584-1.35-.949-2.175-.876zM42.525 15.341c1.65 0 2.925.438 3.9 1.314s1.425 2.043 1.425 3.503v7.006h-2.1v-1.606h-.075c-.9 1.314-2.175 1.97-3.675 1.97-1.275 0-2.4-.364-3.3-1.094-.825-.73-1.35-1.751-1.35-2.846q0-1.752 1.35-2.846c.9-.73 2.175-1.022 3.675-1.022 1.35 0 2.4.219 3.225.73v-.511c0-.73-.3-1.46-.9-1.898a3.32 3.32 0 0 0-2.175-.802q-1.913 0-2.925 1.532l-1.95-1.167c1.2-1.533 2.775-2.263 4.875-2.263m-2.85 8.32c0 .584.3 1.095.75 1.386.525.365 1.125.584 1.725.584.9 0 1.8-.365 2.475-1.021.75-.657 1.125-1.46 1.125-2.336-.675-.51-1.65-.803-2.925-.803q-1.35 0-2.25.657-.9.547-.9 1.533M60 15.706l-7.425 16.566h-2.25l2.775-5.765-4.875-10.728h2.4l3.525 8.247h.075l3.45-8.247H60z"/><path fill="#4285f4" d="M19.425 18.917c0-.657-.075-1.313-.15-1.97H9.9v3.722h5.325c-.225 1.167-.9 2.262-1.95 2.919v2.408H16.5c1.875-1.678 2.925-4.16 2.925-7.079"/><path fill="#34a853" d="M9.9 28.332c2.7 0 4.95-.876 6.6-2.336l-3.225-2.408c-.9.584-2.025.949-3.375.949-2.55 0-4.8-1.679-5.55-4.014h-3.3v2.481c1.725 3.284 5.1 5.328 8.85 5.328"/><path fill="#fbbc04" d="M4.35 20.523c-.45-1.168-.45-2.481 0-3.722V14.32h-3.3c-1.425 2.7-1.425 5.911 0 8.684z"/><path fill="#ea4335" d="M9.9 12.86c1.425 0 2.775.51 3.825 1.46l2.85-2.774c-1.8-1.605-4.2-2.554-6.6-2.481-3.75 0-7.2 2.043-8.85 5.327l3.3 2.482C5.1 14.538 7.35 12.86 9.9 12.86"/></g><defs><clipPath id="a"><path fill="#fff" d="M0 6h60v27.805H0z"/></clipPath></defs></svg>