<svg fill="none" xmlns="http://www.w3.org/2000/svg" viewBox="0 0 44 34"><path fill-rule="evenodd" clip-rule="evenodd" d="M40.333 31.333H3.667C1.833 31.333 0 29.5 0 27.667v-22C0 3.833 1.833 2 3.667 2h36.666C42.167 2 44 3.833 44 5.667v22c0 1.833-1.833 3.666-3.667 3.666z" fill="#000"/><path d="M25.753 8.7h-8.661v15.565h8.66V8.7z" fill="#7673C0"/><path d="M17.642 16.484a9.88 9.88 0 013.78-7.784 9.898 9.898 0 100 15.565 9.883 9.883 0 01-3.78-7.781z" fill="#EB001B"/><path d="M36.492 22.615v-.308h.129v-.066h-.327v.066h.129v.319l.069-.011zm.635 0v-.385h-.1l-.115.275-.115-.275h-.102v.385h.072v-.289l.107.25h.074l.107-.25v.292l.072-.003zM37.435 16.484a9.897 9.897 0 01-16.013 7.78 9.898 9.898 0 000-15.564 9.898 9.898 0 0116.015 7.781l-.002.003z" fill="#00A1DF"/></svg>
