<svg viewBox="0 0 24 16" fill="none" xmlns="http://www.w3.org/2000/svg"><g clip-path="url(#clip0)"><path fill-rule="evenodd" clip-rule="evenodd" d="M22 16H2c-1 0-2-1-2-2V2C0 .999987 1 0 2 0h20c1 0 2 1 2 1.99999V14c0 1-1 2-2 2z" fill="#000"/><path d="M14.6213 4.11908H9.77014v7.92342h4.85116V4.11908z" fill="#FF5F00"/><path d="M10.2698 8.0815c-.0006-.76295.1724-1.51605.5058-2.20229.3334-.68625.8186-1.28766 1.4187-1.75872-.7433-.58418-1.636-.94745-2.57603-1.04829-.94003-.10083-1.88946.06483-2.73979.47806-.85033.41323-1.56724 1.05736-2.06881 1.85877-.50157.8014-.76756 1.72775-.76756 2.67317 0 .94542.26599 1.87177.76756 2.6732.50157.8014 1.21848 1.4455 2.06881 1.8587.85033.4133 1.79976.5789 2.73979.4781.94003-.1008 1.83273-.4641 2.57603-1.0483-.6003-.4712-1.0856-1.0728-1.419-1.7593-.3334-.68653-.5063-1.43991-.5055-2.2031z" fill="#EB001B"/><path d="M19.8657 11.2041v-.1624h.07v-.0336h-.1665v.0336h.0657v.1624h.0308zm.3234 0v-.196h-.0504l-.0588.14-.0588-.14h-.0504v.196h.0364v-.1484l.0546.1274h.0378l.0546-.1274v.1484h.035zM20.3473 8.08147c0 .94549-.2661 1.8719-.7677 2.67333-.5017.8014-1.2187 1.4456-2.0691 1.8587-.8505.4132-1.8.5788-2.7401.4778-.9401-.101-1.8328-.4645-2.5761-1.0488.6-.4715 1.085-1.0731 1.4185-1.7594.3335-.68624.5068-1.4393.5068-2.20233 0-.76303-.1733-1.51609-.5068-2.20237-.3335-.68628-.8185-1.28786-1.4185-1.75934.7433-.58437 1.636-.94781 2.5761-1.04879.9401-.10099 1.8896.06457 2.7401.47775.8504.41317 1.5674 1.05729 2.0691 1.85872.5016.80143.7677 1.72784.7677 2.67333v.0014z" fill="#F79E1B"/></g><defs><clipPath id="clip0"><path fill="#fff" d="M0 0h24v16H0z"/></clipPath></defs></svg>
