<svg fill="none" xmlns="http://www.w3.org/2000/svg" viewBox="0 0 44 34"><path d="M42.745 2.727h0l.01.005c.434.26.745.778.745 1.379v24.63c0 .91-.702 1.611-1.514 1.611H2.014c-.822 0-1.514-.7-1.514-1.61V4.11C.5 3.2 1.192 2.5 2.014 2.5h39.972c.27 0 .529.082.759.227z" fill="#C41F24" stroke="#C41F24"/><path d="M34.414 12.27c-3.492-.423-5.114 2.415-4.989 4.77.063 1.328.873 1.992 2.245 2.052.81 0 1.497-.18 2.12-.724.25.664.811.543 1.372.543.187 0 .312-.06.25-.302-.374-1.63.187-3.14.436-4.71.187-1.448.187-1.388-1.434-1.63zm-.312 2.294c-.124.604-.25 1.207-.436 1.811a3.323 3.323 0 01-.562 1.027c-.374.422-.81.603-1.371.422-.562-.18-.624-.664-.624-1.147.062-.785.25-1.57.748-2.173.25-.363.624-.665 1.123-.785.935-.363 1.31-.121 1.122.845z" fill="#FDFDFD"/><path d="M26.12 9.734c.125 0 .25 0 .437.06.311.06.748.06.56.543-.124.363.063 1.027-.81.725-.748-.242-1.372.362-1.496 1.087-.063.241.062.302.249.302.125 0 .312-.06.437 0 .249.06.81-.242.748.362-.063.483 0 1.087-.81.906-.687-.181-.936.12-1.061.845-.25 1.69-.561 3.32-.873 4.95-.187 1.148-1.06 1.873-2.058 2.054-.312.06-.561.12-.624-.302-.062-.302-.374-.604.188-.845.498-.182.81-.604.872-1.148.312-1.69.624-3.38.936-5.011.062-.362.062-.604-.374-.543-.25 0-.5-.06-.374-.363.124-.301-.125-.905.498-.905.5 0 .624-.242.811-.604.374-1.45 1.31-2.113 2.744-2.113z" fill="#FEFDFD"/><path d="M15.456 18.971c-.311.242-.686.06-.997.121-.312 0-.25-.181-.188-.362.188-.966.375-1.992.562-2.959.062-.422.187-.905-.437-1.026-.561-.12-1.185.242-1.31.785l-.56 3.08c-.063.422-.936.784-1.31.482-.187-.12-.063-.362-.063-.483.188-.906.375-1.811.5-2.656.062-.423.436-.966-.375-1.148-.686-.12-1.247.242-1.372.906-.187.966-.374 1.992-.561 2.958-.062.302-.125.484-.499.484-.935 0-.935.06-.748-.846.062-1.449.623-2.837.436-4.226-.062-.302.998-.664 1.185-.362.187.302.312.18.561.12.811-.302 1.684-.362 2.433.121.249.181.436 0 .623-.06.748-.302 1.497-.483 2.307 0 .936.845.624 1.871.437 2.898-.25.664-.437 1.389-.624 2.173z" fill="#FDFDFD"/><path d="M21.443 14.624c-.125-.604-.686-.966-1.56-1.087-1.558-.12-2.68.483-3.491 1.933-.25.18-.312.422-.312.724-.062.483.125.906.187 1.389.561 1.268 1.247 1.63 2.806 1.51 1.06-.061 1.31-.363 1.06-1.45-.374.12-.686.302-1.06.362-.623.121-1.247-.18-1.434-.724-.125-.362-.125-.604.437-.483.81.181 1.62.06 2.37-.362.81-.302 1.184-1.027.997-1.812zm-1.497.846c-.374.301-.873.362-1.372.362-.25 0-.498 0-.56-.181-.126-.242.124-.423.249-.544.374-.422.935-.603 1.496-.422.187.06.374.12.374.301.125.242-.062.363-.187.484z" fill="#FDFDFD"/><path d="M28.053 12.39c1.247 0 1.247 0 1.06 1.208-.311 1.63-.623 3.2-.935 4.83-.062.241 0 .543-.312.543-.436.06-.873.121-1.31-.06-.187-.06-.062-.302 0-.423.25-1.449.562-2.898.811-4.347.063-.241.125-.422-.25-.483-.186 0-.56.06-.436-.302.125-.362-.124-.966.561-.966h.811z" fill="#FDFCFC"/><path d="M29.55 9.01c.25.06.686-.122.81.12.125.302-.249.483-.436.724-.187.302-.499.484-.623.785-.375.604-.936.483-1.497.483-.312 0-.187-.241-.125-.362l.936-1.449c.249-.423.623-.241.935-.302z" fill="#FBF8F8"/><path d="M9.158 20.179s10.726 7.245 24.632.664c-5.113 3.683-14.343 7.487-24.632-.664z" fill="#FDFDFD"/></svg>
