<svg xmlns="http://www.w3.org/2000/svg" fill="none" viewBox="0 0 60 40"><rect width="60" height="40" fill="#200020" rx="6"/><path fill="#da0081" d="M3.751 12H1.477a.477.477 0 0 0-.477.477v1.934c0 .264.213.477.477.477H3.75a.477.477 0 0 0 .477-.477v-1.934A.477.477 0 0 0 3.751 12"/><path fill="#fff" d="M18.365 12h-1.957a.477.477 0 0 0-.476.477v7.827c0 .16-.21.218-.285.076l-4.55-8.17a.41.41 0 0 0-.367-.21H7.477a.477.477 0 0 0-.477.477v12.507c0 .268.217.477.477.477h1.957a.477.477 0 0 0 .476-.477v-8.062c0-.159.21-.217.285-.075l4.675 8.413c.075.134.209.21.368.21h3.11a.477.477 0 0 0 .477-.478V12.477A.477.477 0 0 0 18.35 12zM30.131 20.58c0-3.524-2.291-5.273-4.809-5.273-3.27 0-5.134 2.268-5.134 5.332 0 3.483 2.341 5.14 5.06 5.14 2.717 0 4.306-1.406 4.732-3.231.06-.234-.075-.444-.426-.444h-1.539a.42.42 0 0 0-.401.268c-.385.846-1.004 1.29-2.191 1.29-1.347 0-2.25-.846-2.384-2.562h6.615c.285 0 .477-.21.477-.52m-6.983-1.33c.284-1.265 1.02-1.825 2.133-1.825.995 0 1.848.577 1.965 1.825zM55.28 15.558h-1.965a.477.477 0 0 0-.477.477v8.958c0 .263.213.477.477.477h1.965a.477.477 0 0 0 .477-.477v-8.958a.477.477 0 0 0-.477-.477M40.685 15.558h-1.957a.477.477 0 0 0-.476.477v.486c-.586-.687-1.547-1.164-2.81-1.164-2.827 0-4.324 2.562-4.324 5.274 0 2.369 1.23 5.023 4.265 5.023 1.087 0 2.241-.52 2.869-1.256v3.85c0 .269.217.478.476.478h1.957a.477.477 0 0 0 .477-.477V16.043a.477.477 0 0 0-.477-.477zm-4.457 7.986c-1.288 0-2.191-.946-2.191-2.98s.903-3.097 2.19-3.097c1.289 0 2.192.979 2.192 3.097s-.903 2.98-2.191 2.98M51.106 15.558h-1.957a.477.477 0 0 0-.477.477V21.1c0 1.632-.727 2.11-1.656 2.11s-1.655-.478-1.655-2.11v-5.065a.477.477 0 0 0-.477-.477h-1.957a.477.477 0 0 0-.477.477v5.274c0 3.14 1.731 4.404 4.575 4.404 2.843 0 4.574-1.273 4.574-4.404v-5.274a.477.477 0 0 0-.476-.477z"/></svg>