<svg viewBox="0 0 44 29" fill="none" xmlns="http://www.w3.org/2000/svg"><path fill-rule="evenodd" clip-rule="evenodd" d="M40.3333 28.8525H3.66667C1.83333 28.8525 0 27.0492 0 25.2459V3.60656C0 1.80326 1.83333 0 3.66667 0H40.3333C42.1667 0 44 1.80328 44 3.60653V25.2459c0 1.8033-1.8333 3.6066-3.6667 3.6066z" fill="#fff"/><path d="M40.3333 28.217H3.66667c-.7137 0-1.47797-.3571-2.07526-.9446-.597942-.5881-.955993-1.3353-.955993-2.0265V3.60656c0-.69126.358052-1.43838.955993-2.02651C2.1887.992553 2.95297.635417 3.66667.635417H40.3333c.7137 0 1.478.35714 2.0753.944633.5979.58814.956 1.33526.956 2.02648V25.2459c0 .6912-.3581 1.4384-.956 2.0265-.5973.5875-1.3616.9446-2.0753.9446z" stroke="#3EB492" stroke-opacity=".2" stroke-width="1.27083"/><path d="M39.0646 20.695c0 1.515-.8428 2.275-2.5236 2.275-1.6807 0-2.5236-.76-2.5236-2.275v-13.1c0-1.515.8429-2.275 2.5236-2.275 1.6808 0 2.5236.76 2.5236 2.275v13.1zm-6.3284-1.88l-4.1557-4.71 4.1557-4.68c.5846-.66.8769-1.28.8769-1.855s-.2631-1.1-.7844-1.575c-.5213-.475-1.0766-.715-1.671-.715-.5895 0-1.2131.36-1.8659 1.085l-5.3736 5.96v-4.73c0-1.515-.8428-2.275-2.5236-2.275-1.5687 0-2.4018.66-2.509 1.975 1.6565 1.72 2.4944 3.965 2.4944 6.68 0 2.7-.8428 4.93-2.509 6.64v.085c0 1.515.8429 2.275 2.5236 2.275 1.6808 0 2.5236-.76 2.5236-2.275v-4.785l5.3785 5.985c.6431.715 1.2666 1.07 1.8659 1.07.5992 0 1.1595-.24 1.6807-.72.5213-.48.7844-1 .7844-1.57 0-.565-.2972-1.185-.8915-1.865z" fill="#003248"/><path d="M18.647 7.96c-.1365-.155-.2729-.31-.419-.455-1.6418-1.645-3.7951-2.475-6.4016-2.475-2.60637 0-4.76945.83-6.41611 2.475-1.64667 1.64-2.47975 3.82-2.47975 6.47s.83795 4.82 2.48949 6.455c1.65641 1.635 3.79513 2.465 6.36747 2.465 2.5674 0 4.7207-.83 6.3918-2.465.1607-.16.3166-.325.4628-.495 1.3592-1.57 2.051-3.57 2.051-5.96.0049-2.415-.6869-4.43-2.0461-6.015zm-3.6003 9.43c-.8087.91-1.8951 1.37-3.2251 1.37-1.33 0-2.41644-.455-3.23003-1.355-.80872-.895-1.21795-2.045-1.21795-3.42s.40923-2.53 1.21795-3.44C9.40516 9.63 10.4964 9.17 11.8313 9.17c1.3349 0 2.4213.46 3.2251 1.37.799.905 1.2082 2.055 1.2082 3.425-.0048 1.365-.4141 2.52-1.2179 3.425z" fill="#3EB492"/></svg>