<svg fill="none" xmlns="http://www.w3.org/2000/svg" viewBox="0 0 24 16"><path fill-rule="evenodd" clip-rule="evenodd" d="M22 16H2c-1 0-2-1-2-2V2c0-1 1-2 2-2h20c1 0 2 1 2 2v12c0 1-1 2-2 2Z" fill="#FFCE00"/><path fill-rule="evenodd" clip-rule="evenodd" d="M18.254 9.713c-.8.717-1.676 1.357-2.579 1.938-1.876 1.206-3.97 2.226-6.05 3.034-.687.267-1.502.422-2.188.064-.452-.234-.749-.643-.906-1.118-.117-.353-.167-.767-.233-1.135-.532-2.973-.302-6.44.297-9.406.148-.736.498-1.728 1.28-1.992.375-.127.8-.12 1.184-.039.126.027.237.065.357.11 2.559.952 4.849 2.14 7 3.828.61.478 1.278.975 1.838 1.508.365.348.703.742.793 1.254.025.14.03.282.02.423-.044.565-.346 1.19-.813 1.53Z" fill="#FEFEFE"/><path fill-rule="evenodd" clip-rule="evenodd" d="M7.028 13.466c.186.562.744 1.375 2.406.73 2.402-.934 5.991-2.643 8.49-4.894 0 0 .558-.388.617-1.16.059-.771-.542-1.235-2.45-2.731-1.878-1.473-3.98-2.679-6.86-3.75a1.799 1.799 0 0 0-.282-.088c-.198-.042-.571-.092-.908.022-.487.165-.79.885-.933 1.599-.138.68-1.028 5.108-.294 9.21.051.289.125.794.214 1.062Z" fill="#FFBF00"/><path d="M9.234 5.893c.128-.395.261-.788.39-1.181h3.098c.522-.001 1.065.134 1.473.474.315.25.506.63.58 1.02.16.838-.08 1.756-.674 2.376-.537.578-1.313.882-2.087.96-.661.061-1.325.012-1.986-.015-.19.77-.345 1.549-.524 2.322-.5-.022-.998-.052-1.497-.06.242-1.217.525-2.426.769-3.643.825-.01 1.65-.001 2.475-.004.003.254.002.508.002.762.694-.588 1.368-1.196 2.057-1.79-.511-.643-1.032-1.28-1.537-1.928-.07.232-.133.465-.19.7-.783.011-1.566 0-2.35.007Z" fill="#000"/></svg>
