<svg viewBox="0 0 44 29" fill="none" xmlns="http://www.w3.org/2000/svg"><path fill-rule="evenodd" clip-rule="evenodd" d="M40.3333 28.8525H3.66667C1.83333 28.8525 0 27.0492 0 25.2459V3.60656C0 1.80326 1.83333 0 3.66667 0H40.3333C42.1667 0 44 1.80328 44 3.60653V25.2459c0 1.8033-1.8333 3.6066-3.6667 3.6066z" fill="#fff"/><path d="M40.3333 28.217H3.66667c-.7137 0-1.47797-.3571-2.07526-.9446-.597942-.5881-.955993-1.3353-.955993-2.0265V3.60656c0-.69126.358052-1.43838.955993-2.02651C2.1887.992553 2.95297.635417 3.66667.635417H40.3333c.7137 0 1.478.35714 2.0753.944633.5979.58814.956 1.33526.956 2.02648V25.2459c0 .6912-.3581 1.4384-.956 2.0265-.5973.5875-1.3616.9446-2.0753.9446z" stroke="#253B80" stroke-opacity=".2" stroke-width="1.27083"/><path d="M16.9068 11.1771h-2.2061c-.0731-.0001-.1437.026-.1993.0734-.0555.0475-.0923.1132-.1036.1853l-.8923 5.6571c-.0041.0263-.0025.0531.0048.0786.0073.0256.02.0493.0373.0695.0173.0201.0387.0363.0629.0474.0241.0111.0504.0168.0769.0168h1.0533c.073 0 .1437-.0261.1993-.0736.0555-.0475.0923-.1133.1036-.1855l.2406-1.5258c.0113-.0721.048-.1379.1035-.1854.0555-.0474.1261-.0736.1991-.0736h.6984c1.4532 0 2.2919-.7032 2.5109-2.0968.0988-.6097.0042-1.0887-.2812-1.4242-.3136-.3684-.8697-.5632-1.6081-.5632zm.2545 2.0661c-.1206.7916-.7255.7916-1.3103.7916h-.3329l.2335-1.4783c.0069-.0433.0289-.0827.0622-.1111.0333-.0285.0757-.0441.1194-.0441h.1526c.3984 0 .7742 0 .9684.2271.1158.1355.1513.3368.1071.6148zm6.34-.0255h-1.0564c-.0438 0-.0862.0157-.1195.0441-.0333.0285-.0553.0679-.0622.1111l-.0467.2955-.0739-.1071c-.2287-.3319-.7387-.4429-1.2477-.4429-1.1675 0-2.1646.8842-2.3588 2.1245-.1009.6187.0426 1.2103.3936 1.6229.3219.3794.7826.5374 1.3306.5374.9407 0 1.4623-.6048 1.4623-.6048l-.0471.2935c-.0042.0263-.0027.0531.0045.0787.0072.0256.0198.0493.0371.0696.0172.0202.0386.0365.0627.0476.0242.0112.0504.017.077.017h.9516c.0731.0001.1438-.026.1993-.0735.0556-.0475.0923-.1133.1036-.1855l.571-3.6158c.0042-.0262.0026-.053-.0045-.0785-.0072-.0255-.0198-.0492-.037-.0694-.0172-.0202-.0386-.0364-.0627-.0475-.0241-.0111-.0503-.0169-.0768-.0169zm-1.4726 2.0562c-.1019.6035-.5809 1.0087-1.1919 1.0087-.3068 0-.5519-.0984-.7094-.2849-.1561-.1851-.2154-.4487-.1658-.7422.0952-.5984.5823-1.0168 1.1839-1.0168.3 0 .5439.0997.7045.2878.161.19.2249.4551.1787.7474zm7.0991-2.0562h-1.0617c-.05.0001-.0993.0124-.1436.0359-.0442.0234-.082.0573-.1102.0987l-1.4642 2.1567-.6207-2.0725c-.019-.0633-.0579-.1187-.1109-.1581-.053-.0393-.1172-.0606-.1833-.0607H24.39c-.0293 0-.0581.0069-.0842.0202-.0261.0134-.0486.0327-.0657.0565-.017.0238-.0282.0513-.0325.0803-.0043.029-.0016.0586.0079.0863l1.1694 3.4316-1.0994 1.5519c-.0195.0275-.0311.0599-.0335.0936-.0024.0336.0046.0673.0201.0973s.0389.0551.0677.0726c.0289.0176.062.0269.0957.0268h1.0603c.0495.0001.0983-.0118.1422-.0347.0439-.023.0815-.0562.1098-.0969l3.5309-5.0967c.0192-.0276.0304-.0599.0325-.0934.0021-.0335-.005-.0669-.0206-.0967-.0155-.0297-.0389-.0547-.0677-.072-.0287-.0174-.0616-.0266-.0951-.0267z" fill="#253B80"/><path d="M32.6426 11.1771h-2.2065c-.073 0-.1435.0261-.199.0735-.0555.0475-.0922.1131-.1036.1852l-.8922 5.6571c-.0042.0262-.0026.053.0046.0785.0072.0256.0199.0492.0371.0694.0172.0202.0386.0364.0627.0475.0241.0111.0503.0169.0769.0169h1.1322c.0511-.0001.1005-.0184.1393-.0516.0388-.0333.0644-.0793.0723-.1297l.2533-1.6036c.0113-.0721.048-.1379.1034-.1854.0555-.0474.1261-.0736.1991-.0736h.6981c1.4536 0 2.2919-.7032 2.5113-2.0968.099-.6097.0039-1.0887-.2816-1.4242-.3132-.3684-.869-.5632-1.6074-.5632zm.2545 2.0661c-.1203.7916-.7252.7916-1.3103.7916h-.3326l.2338-1.4783c.0068-.0433.0287-.0827.062-.1112.0332-.0284.0756-.0441.1193-.044h.1526c.3981 0 .7742 0 .9684.2271.1158.1355.151.3368.1068.6148zm6.3397-.0255H38.181c-.0438-.0001-.0862.0155-.1195.044-.0332.0285-.0552.0679-.0618.1112l-.0468.2955-.0742-.1071c-.2287-.3319-.7384-.4429-1.2474-.4429-1.1674 0-2.1642.8842-2.3584 2.1245-.1007.6187.0422 1.2103.3932 1.6229.3226.3794.7826.5374 1.3307.5374.9406 0 1.4622-.6048 1.4622-.6048l-.0471.2935c-.0042.0263-.0026.0532.0046.0789.0072.0256.0199.0494.0372.0696.0173.0203.0388.0365.063.0476.0242.0112.0505.0169.0772.0168h.9512c.0731 0 .1437-.0261.1992-.0736.0554-.0475.0921-.1132.1034-.1854l.5713-3.6158c.0041-.0263.0024-.0531-.0049-.0787-.0073-.0255-.0201-.0492-.0374-.0694-.0173-.0201-.0388-.0363-.0629-.0474-.0242-.0111-.0505-.0168-.077-.0168zm-1.4726 2.0562c-.1013.6035-.581 1.0087-1.192 1.0087-.3061 0-.5519-.0984-.7093-.2849-.1561-.1851-.2149-.4487-.1658-.7422.0958-.5984.5822-1.0168 1.1839-1.0168.3 0 .5438.0997.7045.2878.1616.19.2255.4551.1787.7474zm2.718-3.9416l-.9054 5.7606c-.0042.0262-.0026.053.0046.0785.0072.0256.0198.0492.0371.0694.0172.0202.0386.0364.0627.0475.0241.0111.0503.0169.0769.0169h.9103c.1513 0 .2797-.1097.3029-.2591l.8929-5.6567c.0041-.0263.0025-.0531-.0047-.0786-.0072-.0256-.0198-.0493-.037-.0695-.0173-.0202-.0387-.0364-.0627-.0475-.0241-.0112-.0504-.017-.0769-.017h-1.0194c-.0437.0001-.086.0159-.1192.0444-.0332.0284-.0552.0678-.0621.1111z" fill="#179BD7"/><path d="M4.3439 18.4045l.16871-1.0716-.37581-.0087H2.34229l1.24709-7.90742c.00371-.02417.01599-.04619.03458-.06206.01859-.01587.04227-.02453.06671-.0244h3.02581c1.00451 0 1.69774.20904 2.05967.62162.16968.19356.27774.39576.33.61836.05484.2336.05581.5126.00226.8529l-.00387.0249v.218l.16967.0962c.12954.0656.24597.1544.34355.2619.14516.1655.23904.3758.27871.6252.04097.2564.02742.5616-.03967.9071-.07742.3974-.20259.7435-.37162 1.0267-.14914.2538-.34966.4735-.58871.6452-.22451.1594-.49129.2803-.7929.3577-.29226.0762-.62548.1146-.99097.1146h-.23548c-.16839 0-.33193.0606-.46032.1693-.12821.1099-.21326.2617-.24.4284l-.01774.0964-.29807 1.8888-.01355.0693c-.00354.022-.00967.0329-.01871.0403-.00875.0072-.01966.0112-.03096.0113H4.3439z" fill="#253B80"/><path d="M9.43481 11.4732c-.00903.0578-.01935.1168-.03097.1775-.39903 2.0487-1.76419 2.7564-3.50774 2.7564h-.88774c-.21323 0-.3929.1548-.42613.3652l-.45452 2.8826-.1287.8171c-.00513.0324-.00317.0655.00573.0971.00891.0316.02456.0608.04586.0858.02131.025.04777.045.07757.0587.02979.0138.06221.0209.09503.0209h1.57451c.18646 0 .34484-.1354.3742-.3193l.01548-.08.29645-1.8813.01904-.1032c.02903-.1846.18774-.32.37419-.32h.23548c1.52549 0 2.71968-.6194 3.06875-2.4117.1458-.7487.0703-1.3738-.31552-1.8135-.12228-.136-.26832-.2486-.43097-.3323z" fill="#179BD7"/><path d="M9.01744 11.3068c-.12741-.0369-.25703-.0656-.38807-.0862-.25893-.0397-.52062-.0588-.78258-.057H5.47518c-.09026-.0001-.17756.0321-.24613.0908-.06857.0587-.11388.14-.12774.2292l-.50452 3.1954-.01451.0933c.01571-.1018.06732-.1945.14548-.2615s.17771-.1037.28064-.1037h.88775c1.74355 0 3.10871-.7081 3.50774-2.7565.01193-.0606.02193-.1196.03097-.1774-.1053-.0552-.21504-.1015-.32807-.1384-.02963-.0098-.05942-.0191-.08935-.028z" fill="#222D65"/><path d="M5.10132 11.4836c.01375-.0893.05903-.1706.12764-.2292.0686-.0587.15597-.0908.24623-.0905h2.37162c.28096 0 .54322.0184.78258.0571.16197.0254.3217.0635.47774.1138.11774.0391.22709.0852.32806.1384.11871-.7571-.00096-1.2726-.41032-1.73933C8.57358 9.22 7.75906 9 6.71681 9H3.691c-.2129 0-.39452.15484-.42742.36548L2.00326 17.3542c-.00587.0371-.00364.075.00654.1112.01019.0361.02808.0696.05245.0982.02437.0286.05464.0515.08873.0673.03408.0157.07118.0239.10873.024h1.86806l.46904-2.9759.50451-3.1954z" fill="#253B80"/></svg>