<svg viewBox="0 0 44 29" fill="none" xmlns="http://www.w3.org/2000/svg"><path fill-rule="evenodd" clip-rule="evenodd" d="M40.3333 28.8525H3.66667C1.83333 28.8525 0 27.0492 0 25.2459V3.60656C0 1.80326 1.83333 0 3.66667 0H40.3333C42.1667 0 44 1.80328 44 3.60653V25.2459c0 1.8033-1.8333 3.6066-3.6667 3.6066z" fill="#fff"/><path d="M40.3333 28.217H3.66667c-.7137 0-1.47797-.3571-2.07526-.9446-.597942-.5881-.955993-1.3353-.955993-2.0265V3.60656c0-.69126.358052-1.43838.955993-2.02651C2.1887.992553 2.95297.635417 3.66667.635417H40.3333c.7137 0 1.478.35714 2.0753.944633.5979.58814.956 1.33526.956 2.02648V25.2459c0 .6912-.3581 1.4384-.956 2.0265-.5973.5875-1.3616.9446-2.0753.9446z" stroke="#0560AA" stroke-opacity=".2" stroke-width="1.27083"/><path d="M31.9418 18.5797h-4.4069c-.0664 0-.13-.0264-.177-.0733-.0469-.047-.0733-.1106-.0733-.177 0-.0664.0264-.13.0733-.177.047-.0469.1106-.0733.177-.0733h4.3826c.167-.035 1.3249-.3274 1.3766-1.6858.0513-1.3472-.7211-1.482-.8465-1.495h-2.8283c-1.1343-.189-1.3716-1.2092-1.3388-1.7514-.0063-1.4097 1.1835-2.0406 1.8148-2.1776.0175-.0038.0354-.0057.0534-.0057h3.9679c.0495-.0001.098.0145.1392.042.0412.0275.0734.0666.0923.1124.019.0457.0239.0961.0142.1447-.0097.0486-.0337.0932-.0688.1281-.0232.0233-.0508.0417-.0812.0543-.0303.0126-.0629.0191-.0957.0191H30.178c-.1919.0488-1.4073.4094-1.3969 1.6881 0 .0062 0 .0123-.0005.0184-.0029.0443-.0544 1.0528.8993 1.2274 0 0 2.7938-.0008 2.7918 0 .014.0006 1.3953.1051 1.3225 2.0142-.0561 1.4762-1.2087 2.0608-1.8102 2.164-.014.0024-.0281.0035-.0422.0034zm3.8364-5.7162c-.1279.5881-.2478 1.1778-.3597 1.7691l5.3532-.045c.0701-.4359.2237-1.4661.2237-2.1057 0-.5855-.7033-.861-.8596-.9154h-2.8857c-.9237 0-1.4147 1.154-1.4717 1.297h-.0002zm4.4687 5.7427H36.18c-.0089 0-.0178-.0006-.0267-.0016-.5361-.0573-1.5563-.4305-1.5792-1.432-.024-1.0647.6892-4.2988.7193-4.4358.0025-.0113.0058-.0222.0098-.0329.025-.0669.6228-1.6379 1.9469-1.6379h2.9253c.0235 0 .047.0033.0693.0098.0513.0149 1.2514.3735 1.2514 1.4061 0 .8676-.2546 2.3352-.2653 2.3974-.01.0577-.04.11-.0847.1479s-.1012.0589-.1598.0593l-5.6598.0474c-.1428.8046-.2613 1.6112-.2518 2.0273.0178.7752.9931.9278 1.1205.9444h4.0515c.0664 0 .13.0264.177.0733.0469.047.0733.1106.0733.177 0 .0664-.0264.1301-.0733.177-.047.0469-.1106.0733-.177.0733h.0002zM21.0022 16.989c.5094.9696 1.2953 1.1143 1.4111 1.1305l2.5186-.0718c.8753-.2815 1.1938-1.2009 1.2298-1.3142l.6929-4.2297c.0725-.4713-.65-.9756-.9471-.9734-.1832.0006-.7694.0026-1.3557.0037-.3539.0007-.708.0007-.9732.0004-.1816-.0002-.3129-.0005-.4089-.0065-.4237.0726-1.1785.7464-1.4121 1.3735-.0438.1971-.3845 2.0524-.7554 4.0875zm-1.0984 4.9014c-.0367 0-.0729-.008-.1061-.0235-.0332-.0155-.0626-.0382-.0861-.0663-.0235-.0281-.0406-.061-.05-.0965-.0094-.0354-.0109-.0725-.0045-.1085 0 0 .3988-2.2043.8002-4.4085.1839-1.0107.3688-2.0211.5548-3.0316.0765-.4137.1402-.7587.1862-1.0002.0377-.1996.0626-.3304.091-.4168l-.0045-.0016c.2828-.7725 1.1635-1.6009 1.8121-1.7041.023-.0038.0458-.004.0681-.0015.1654.0056 1.7519.0021 2.7995-.0016h.0008c.2428-.0055 1.5398.4855 1.3888 1.5125-.0014.009-.0014.0184-.0029.0273l-.6981 4.2615c-.0015.0092-.0035.0183-.006.0273-.0152.0534-.3822 1.3123-1.6021 1.6782-.0209.0065-.0425.01-.0645.0105l-2.5717.0734c-.0101.0007-.0204.0004-.0305-.001-.0407-.0037-.8531-.0901-1.5064-.9142-.2414 1.3264-.4821 2.6529-.7222 3.9796-.0105.0576-.0409.1097-.0858.1472-.0449.0376-.1015.0582-.1601.0584z" fill="#0560AA"/><path d="M16.523 9.97456c0 .09174-.018.18254-.0531.26734-.0351.0847-.0865.1617-.1514.2265-.0977.0975-.2222.164-.3576.1908-.1354.0269-.2758.0131-.4033-.0398-.1276-.0528-.2366-.1423-.3134-.257-.0767-.1148-.1178-.2498-.1179-.38784.0001-.13809.0411-.27308.1178-.38789.0767-.11482.1858-.20431.3134-.25716.1276-.05285.268-.06669.4034-.03977.1355.02692.2599.09338.3576.191.1309.13099.2045.30862.2045.49382zm-1.5814-2.37125c-.0001.13807-.0411.27302-.1178.38779-.0768.11478-.1858.20423-.3134.25707-.1276.05284-.2679.0667-.4033.03982-.1355-.02689-.2599-.0933-.3576-.19086-.0976-.0977-.164-.22213-.1909-.35756-.0268-.13543-.013-.27579.0399-.40335.0528-.12756.1423-.2366.257-.31335.1148-.07675.2497-.11777.3878-.11787.1852.00007.3628.07366.4937.2046.131.13095.2046.30853.2046.49371zm-1.5878 2.37125c.0001.09174-.018.18254-.053.26734-.0351.0847-.0866.1617-.1515.2265-.0977.0975-.2221.164-.3576.1908-.1354.0269-.2758.0131-.4033-.0398-.1276-.0528-.2366-.1423-.3134-.257-.0767-.1148-.1177-.2498-.1178-.38784 0-.1852.0735-.36282.2045-.49378.131-.13095.3086-.20453.4938-.20453.1852 0 .3628.07358.4938.20453.1309.13096.2045.30858.2045.49378zm3.0887 9.50864c0 .0918-.018.1826-.0531.2673-.0351.0848-.0866.1618-.1515.2266-.0976.0978-.2221.1644-.3576.1913-.1355.027-.276.0131-.4035-.0399-.1277-.0529-.2367-.1425-.3134-.2573-.0768-.1149-.1177-.2499-.1178-.3881-.0012-.0925.0159-.1843.0505-.2701.0345-.0858.0858-.1639.1507-.2298.065-.0658.1424-.1181.2278-.1538.0853-.0357.1769-.0541.2694-.0541.0925 0 .1841.0184.2694.0541.0854.0357.1628.088.2278.1538.0649.0659.1162.144.1507.2298.0346.0858.0517.1776.0505.2701l.0001.0001zm-1.5042-2.2292c.0017.0928-.0151.185-.0493.2713-.0343.0862-.0855.1648-.1505.231-.065.0663-.1426.1189-.2282.1548-.0855.0359-.1774.0545-.2702.0545-.0929 0-.1847-.0186-.2703-.0545-.0856-.0359-.1632-.0885-.2282-.1548-.065-.0662-.1161-.1448-.1504-.231-.0343-.0863-.0511-.1785-.0493-.2713.0034-.1829.0785-.3571.2091-.4852.1305-.1281.3062-.1999.4891-.1999.1829 0 .3585.0718.489.1999.1306.1281.2057.3023.2092.4852zm-3.2015 0c0 .1532-.0609.3001-.1692.4085-.1083.1083-.2552.1691-.4084.1691s-.3001-.0608-.4085-.1691c-.1083-.1084-.1691-.2553-.1691-.4085 0-.1532.0608-.3001.1691-.4084.1083-.1083.2552-.1691.4084-.1691s.3001.0608.4084.1691c.1083.1083.1692.2552.1692.4084h.0001zm1.5408 2.2292c-.0001.1532-.061.3001-.1693.4083-.1083.1083-.2552.1691-.4084.169-.1532 0-.3-.0609-.4083-.1692-.1083-.1084-.169-.2553-.169-.4084 0-.0759.015-.151.044-.221.0291-.0701.0716-.1337.1253-.1873.0536-.0536.1173-.0961.1874-.1251.07-.029.1451-.044.221-.0439.0758 0 .1509.015.221.044.07.029.1337.0716.1873.1252.0536.0537.0961.1174.1251.1874.029.0701.0439.1452.0439.221zm-1.5814 2.444c0 .1531-.0608.3-.1691.4083-.1083.1083-.2551.1691-.4083.1691-.1531 0-.3-.0608-.4083-.1691-.1083-.1083-.1691-.2552-.1691-.4083s.0608-.3.1691-.4083c.1083-.1083.2552-.1691.4083-.1691.1532 0 .3.0608.4083.1691.1083.1083.1691.2552.1691.4083zm-1.6245-2.444c0 .1187-.0471.2326-.13107.3165-.08394.084-.19778.1311-.31649.1311-.11871 0-.23255-.0471-.31649-.1311-.08394-.0839-.13109-.1978-.13109-.3165s.04715-.2325.13109-.3165c.08394-.0839.19778-.131.31649-.131.11871 0 .23255.0471.31649.131.08397.084.13107.1978.13107.3165zm-5.50224-4.6789c0 .1187-.04716.2326-.1311.3165-.08394.0839-.19778.1311-.31649.1311-.1187 0-.23255-.0472-.31649-.1311-.08393-.0839-.13109-.1978-.13109-.3165s.04716-.2325.13109-.3165c.08394-.0839.19779-.1311.31649-.1311.11871 0 .23255.0472.31649.1311.08394.084.1311.1978.1311.3165zm.80143-2.3846c0 .1186-.04715.2325-.13108.3164s-.19775.1311-.31644.1311c-.11869 0-.23252-.0472-.31645-.1311-.08392-.0839-.13107-.1978-.13107-.3164 0-.1187.04715-.2326.13107-.3165.08393-.0839.19776-.1311.31645-.1311.11869 0 .23251.0472.31644.1311s.13108.1978.13108.3165zm1.51626-2.44514c0 .11874-.04715.23254-.13108.31644-.08392.0839-.19775.1311-.31644.1311-.11869 0-.23252-.0472-.31645-.1311-.08392-.0839-.13107-.1977-.13107-.31644 0-.11868.04715-.23251.13107-.31644.08393-.08393.19776-.13107.31645-.13107.11869 0 .23252.04714.31644.13107.08393.08393.13108.19776.13108.31644zM8.42519 7.656c0 .1187-.04716.23255-.1311.31648-.08394.08394-.19778.1311-.31649.1311-.1187 0-.23255-.04716-.31649-.1311-.08393-.08393-.13109-.19778-.13109-.31648 0-.11869.04715-.23252.13108-.31645.08392-.08392.19775-.13107.31644-.13107.11869 0 .23252.04715.31644.13107.08393.08393.13108.19776.13108.31645h.00013zm.04329 14.2712c0 .1187-.04714.2325-.13107.3164-.08393.084-.19775.1311-.31644.1311-.11869 0-.23252-.0471-.31645-.1311-.08393-.0839-.13107-.1977-.13107-.3164 0-.1187.04714-.2325.13107-.3164.08393-.084.19776-.1311.31645-.1311.11869 0 .23251.0471.31644.1311.08393.0839.13107.1977.13107.3164zm-1.53803-2.444c0 .1187-.04715.2326-.13108.3165-.08392.0839-.19775.1311-.31644.1311-.11869 0-.23252-.0472-.31645-.1311-.08392-.0839-.13107-.1978-.13107-.3165s.04715-.2325.13109-.3165c.08394-.0839.19778-.131.31649-.131.11871 0 .23255.0471.31649.131.08394.084.13109.1978.13109.3165h-.00012zM5.34924 17.254c.00098.0594-.00987.1184-.03192.1736-.02206.0552-.05488.1054-.09654.1478-.04167.0423-.09135.076-.14615.0989-.0548.023-.11362.0348-.17304.0348s-.11823-.0119-.17303-.0348c-.05479-.023-.10446-.0567-.14612-.099-.04165-.0424-.07446-.0926-.0965-.1478-.02204-.0552-.03287-.1142-.03187-.1736.00198-.1174.05002-.2293.13375-.3117.08374-.0823.19647-.1284.3139-.1284.11742 0 .23014.0462.31385.1285.08372.0824.13172.1943.13367.3117zm-1.06136 2.2292c.00079.0309-.00458.0615-.0158.0902-.01122.0287-.02806.0549-.04953.077-.02148.0222-.0472.0398-.07562.0518-.02842.012-.05897.0181-.08982.0181-.03083 0-.06134-.0062-.08974-.0182-.02839-.012-.05409-.0296-.07558-.0517-.02144-.0221-.03827-.0483-.04948-.077-.01122-.0287-.0166-.0594-.01584-.0902.0024-.0595.02776-.1159.07076-.1572.043-.0413.10032-.0643.15994-.0643.05963 0 .11694.023.15994.0643.04301.0413.06836.0977.07077.1572zM2.8472 17.254c0 .0613-.02432.12-.06762.1633-.0433.0433-.10203.0676-.16327.0676s-.11996-.0243-.16326-.0676c-.04331-.0433-.06763-.102-.06763-.1633 0-.0612.02432-.1199.06763-.1632.0433-.0433.10202-.0677.16326-.0677.06124 0 .11997.0244.16327.0677.0433.0433.06762.102.06762.1632zm-.88828-2.4911c.00142.0307-.0033.0613-.01388.0902-.01058.0288-.0268.0552-.04772.0777-.02092.0225-.04611.0406-.0741.0533-.028.0126-.05823.0195-.08894.0203-.0307.0009-.06126-.0045-.08989-.0156-.02863-.0111-.05474-.0279-.07682-.0492-.02209-.0214-.03969-.0469-.05178-.0751-.01209-.0283-.01844-.0586-.01865-.0894-.00039-.0604.02295-.1187.065-.1621.04206-.0435.09948-.0687.15994-.0703.06045-.0016.11912.0206.16341.0618.04428.0412.07065.0981.07343.1585v-.0001zm.82321-2.3394c.00125.0311-.00379.0621-.01481.0912-.01103.0291-.02783.0557-.04937.0781-.02155.0224-.04741.0403-.07602.0525-.02862.0122-.0594.0184-.09051.0184-.0311 0-.06189-.0062-.0905-.0184-.02862-.0122-.05447-.0301-.07602-.0525-.02155-.0224-.03834-.049-.04937-.0781-.01103-.0291-.01607-.0601-.01481-.0912.0014-.0602.02632-.1175.06944-.1597.04311-.0421.10099-.0657.16126-.0657.06028 0 .11816.0236.16127.0657.04311.0422.06804.0995.06944.1597zm1.55956-2.42603c0 .03033-.00597.06033-.01757.08833-.01161.028-.02862.0535-.05006.0749-.02144.0215-.04689.0385-.0749.0501-.02802.0116-.05804.0176-.08836.0176-.03032 0-.06035-.006-.08836-.0176-.02801-.0116-.05347-.0286-.07491-.0501-.02144-.0214-.03845-.0469-.05005-.0749-.0116-.028-.01758-.058-.01758-.08833 0-.06124.02433-.11997.06763-.16327.0433-.0433.10203-.06763.16327-.06763.06123 0 .11996.02433.16326.06763.0433.0433.06763.10203.06763.16327zM8.57674 17.254c0 .1532-.06085.3001-.16916.4084-.10831.1083-.25522.1692-.40839.1692-.15318 0-.30008-.0609-.40839-.1692-.10831-.1083-.16916-.2552-.16916-.4084s.06085-.3001.16916-.4084c.10831-.1083.25521-.1691.40839-.1691.15317 0 .30008.0608.40839.1691.10831.1083.16916.2552.16916.4084zm-1.62439-2.4441c0 .1532-.06085.3001-.16916.4084-.10831.1083-.25521.1692-.40839.1692-.15317 0-.30007-.0609-.40838-.1692-.10831-.1083-.16916-.2552-.16916-.4084 0-.1531.06085-.3.16916-.4084.10831-.1083.25521-.1691.40838-.1691.15318 0 .30008.0608.40839.1691.10831.1084.16916.2553.16916.4084zm1.60274-2.3902c0 .1531-.06085.3-.16915.4083-.10829.1083-.25518.1691-.40834.1691-.15316 0-.30004-.0608-.40834-.1691-.1083-.1083-.16914-.2552-.16914-.4083 0-.1532.06085-.3001.16916-.4084.10831-.1083.25521-.1692.40838-.1692.15318 0 .30008.0609.40839.1692.10831.1083.16916.2552.16916.4084h-.00012zm1.60311-2.44514c0 .15314-.0609.30004-.16916.40844-.10831.1083-.25521.1691-.40839.1691-.15317 0-.30007-.0608-.40838-.1691-.10832-.1084-.16916-.2553-.16916-.40844 0-.15317.06084-.30007.16916-.40838.10831-.10831.25521-.16916.40838-.16916.15318 0 .30008.06085.40839.16916.10826.10831.16916.25521.16916.40838zm1.5161-2.36111c.0012.07655-.0129.15256-.0415.22361-.0285.07105-.0708.13572-.1246.19026-.0537.05453-.1177.09784-.1884.12739-.0706.02956-.1464.04478-.2229.04478-.0766 0-.1524-.01522-.223-.04478-.0707-.02955-.1347-.07286-.1884-.12739-.0538-.05454-.0961-.11921-.1246-.19026-.0286-.07105-.0427-.14706-.0415-.22361 0-.15318.0608-.30008.1691-.40839.1083-.10831.2552-.16916.4084-.16916s.3001.06085.4084.16916c.1083.10831.1692.25521.1692.40839h-.0002zm-1.436 7.19665c.0021.093-.0143.1855-.0484.2721-.0341.0866-.0852.1655-.1503.2321-.065.0665-.14269.1194-.22846.1555-.08578.0362-.17791.0548-.27097.0548-.09307 0-.1852-.0186-.27097-.0548-.08577-.0361-.16346-.089-.2285-.1555-.06504-.0666-.11612-.1455-.15024-.2321-.03411-.0866-.05057-.1791-.04842-.2721.00488-.1819.08056-.3548.21094-.4817s.30516-.198.48712-.198c.18197 0 .35675.0711.4871.198.1304.1269.2061.2998.211.4817h.0001zm1.5577-2.3903c0 .1852-.0736.3628-.2046.4938-.1309.1309-.3085.2045-.4937.2045-.1852 0-.3629-.0736-.4938-.2045-.131-.131-.2045-.3086-.2045-.4938-.0001-.0917.018-.1825.0531-.2673.035-.0847.0865-.1617.1513-.2265.0648-.0649.1418-.1163.2265-.1515.0847-.0351.1755-.0531.2672-.0532.1852 0 .3629.0736.4939.2045.0648.0648.1163.1418.1514.2265.0351.0847.0532.1755.0532.2672V12.4198zm3.1423 9.5074c-.0001.1852-.0737.3628-.2046.4937-.131.131-.3086.2046-.4938.2046-.1381 0-.2731-.0409-.3879-.1177-.1149-.0767-.2044-.1858-.2572-.3134-.0529-.1276-.0667-.268-.0398-.4034.027-.1355.0935-.2599.1912-.3576.0976-.0976.222-.1641.3575-.1911.1355-.0269.2759-.0131.4035.0397.1276.0529.2366.1424.3134.2572.0767.1149.1177.2499.1177.388z" fill="#FDB717"/><path d="M20.2269 14.9917H9.89441v-.428H20.2269v.428zm-5.3635-2.3578H11.614v-.4283h3.2494V12.6339z" fill="#FDB717"/><path d="M16.2588 14.9676l-1.7879-2.7619h.4989l1.7882 2.7619h-.4992zm.1834 2.5004h-1.6576v-.4281h1.6576v.4281z" fill="#FDB717"/><path d="M16.0477 17.468l1.4829-2.5004h.4283l-1.4831 2.5004h-.4281z" fill="#FDB717"/></svg>