<svg viewBox="0 0 44 34" fill="none" xmlns="http://www.w3.org/2000/svg"><path fill-rule="evenodd" clip-rule="evenodd" d="M40.3333 31.8525H3.66667C1.83333 31.8525 0 30.0492 0 28.2459V6.60656C0 4.80326 1.83333 3 3.66667 3H40.3333C42.1667 3 44 4.80328 44 6.60653V28.2459c0 1.8033-1.8333 3.6066-3.6667 3.6066z" fill="#fff"/><path d="M40.3333 31.217H3.66667c-.7137 0-1.47797-.3571-2.07526-.9446-.597942-.5881-.955993-1.3353-.955993-2.0265V6.60656c0-.69126.358052-1.43838.955993-2.02651.59729-.5875 1.36156-.94463 2.07526-.94463H40.3333c.7137 0 1.478.35714 2.0753.94463.5979.58814.956 1.33526.956 2.02648V28.2459c0 .6912-.3581 1.4384-.956 2.0265-.5973.5875-1.3616.9446-2.0753.9446z" stroke="#5A9DC9" stroke-opacity=".2" stroke-width="1.27083"/><path d="M24.1953 16.5341c.0556.03.103.0565.1512.0813.4467.2303.8953.1408 1.2058-.2501.0858-.1079.156-.2304.217-.3538.0933-.1888.1749-.3833.2553-.5777.015-.0363.0146-.0894-.0011-.1255-.7378-1.7033-1.4781-3.4055-2.2179-5.1079-.0129-.0298-.0242-.0604-.0395-.099.0314-.0032.0542-.0076.0771-.0076.3262-.0004.6524.0009.9785-.0014.0569-.0004.0882.0146.1096.0692.4684 1.198.9396 2.3949 1.4073 3.5931.0555.1424.0932.2915.1397.4373.0068.0213.016.042.0453.0642.0093-.029.0177-.0583.0277-.0871.1587-.4562.3098-.9152.4781-1.368.3265-.8785.6623-1.7539.9971-2.6295.012-.0314.0528-.0741.0808-.0746.3323-.0049.6647-.0028.997-.0022.0087 0 .0175.0044.0386.0101-.0109.0309-.02.0607-.0317.0895-.8387 2.0639-1.6761 4.1282-2.5175 6.191-.2129.522-.5643.9216-1.1223 1.1112-.5474.186-1.0704.1123-1.5638-.1767-.0229-.0134-.0494-.0608-.0415-.0785.1055-.2354.2167-.4683.3292-.7073zM23.6867 14.6733v.8657c-.1855.002-.369.0133-.5513.0037-.2519-.0132-.4997-.0576-.7369-.1466-.6015-.2258-.9433-.6604-1.0557-1.2705-.0313-.17-.0433-.3455-.0442-.5185-.0043-.8649-.0019-1.7299-.002-2.5948-.0001-.1324-.0005-.1325-.1378-.1326-.16-.0001-.32-.0003-.48.0001-.0421.0001-.0797.0014-.0792-.0583.0016-.2369.0006-.4739.0006-.7281h.1583c.1539 0 .3079-.0038.4615.0016.0799.0028.1053-.0198.1049-.10072-.0035-.59163-.0019-1.18326-.0019-1.77488v-.11567h.9843v.10123c0 .59462.0017 1.18928-.0019 1.78389-.0005.08335.0242.10725.1086.10625.3538-.0041.7076-.0017 1.0615-.0017h.117v.7804c-.0325.0019-.0679.0056-.1032.0056-.36.0005-.7201.0025-1.08-.0013-.081-.0009-.104.0222-.1038.1017.0029.8559-.0011 1.7118.0048 2.5677.0009.1418.0233.2883.0647.4242.1451.4751.531.6737.9951.7007.1033.0061.2072.0009.3166.0009zM16.0485 12.9648c-.0032.246.0476.4733.1414.6895.2589.5968.7333.9249 1.38 1.0183.6856.099 1.2835-.1154 1.824-.515.0243-.0179.0477-.0369.0817-.0632.139.24.2757.476.4233.7311-.1565.1027-.3058.2126-.4663.3037-.5742.3261-1.1979.463-1.8579.4138-1.3159-.0982-2.2979-.9302-2.5218-2.1678-.1558-.8612-.0135-1.6765.5636-2.3781.4044-.4917.9416-.7691 1.5771-.8665.5012-.0768.9944-.0504 1.4638.1505.6246.2673 1.0004.7482 1.1942 1.3742.1187.3833.1477.7761.11 1.174-.0121.1278-.0124.128-.1426.128-1.2093.0001-2.4186-.0001-3.6279.0003-.0453 0-.0905.0045-.1426.0072zm2.8824-.7481c.0261-.1865-.0489-.5142-.1696-.7244-.2506-.4362-.6445-.625-1.1457-.6147-.6462.0132-1.1182.2998-1.3987.8721-.0711.1449-.124.2973-.1358.467h2.8498zM13.4616 15.5413h-1.0037v-.1185-4.4159c0-.1269-.0002-.127-.1314-.1271-.1721-.0002-.3442-.0001-.5249-.0001v-.7862c.1764 0 .3508.0001.5252-.0001.1311-.0001.1287-.0003.1325-.1273.0084-.277.0444-.54991.1493-.8097.2367-.5858.702-.88987 1.3151-1.00735.2698-.05171.5421-.06316.8162-.03663.0749.00725.1125.02715.1101.1137-.0069.24256-.0024.4854-.0024.73907-.0442-.0028-.0794-.00492-.1146-.00729-.3237-.02172-.6352.01491-.9007.21512-.2884.21748-.3658.52676-.3704.86338-.0009.0684.0498.0565.0904.0566.3447.0007.6894.0004 1.0341.0005.1387 0 .1387.0001.1388.1373.0001.1863-.0026.3726.0012.5587.0014.071-.0235.0923-.0959.0917-.3509-.0032-.7018.0015-1.0526-.0034-.0924-.0014-.1188.0224-.1186.1151.0032 1.475.0023 2.95.0023 4.425v.1234zM7.23726 11.4257c-.13968-.2417-.27513-.4761-.42381-.7334.18485-.0992.35929-.2048.54373-.2896.5304-.2438 1.09321-.3356 1.67603-.3043.27342.0146.54198.065.79661.1704.57288.2373.90288.6677 1.02578 1.2524.0386.1835.057.3742.0579.5618.0052 1.1113.0025 2.2226.0025 3.3339v.1222h-.92391v-1.0203c-.0208.0255-.03693.0402-.04701.0582-.28689.5129-.71731.8467-1.31084.94-.67523.1062-1.29278-.0268-1.78812-.5209-.24575-.2451-.36642-.5508-.38957-.8914-.05951-.8756.4309-1.3422 1.08422-1.6087.38826-.1583.79694-.2425 1.215-.2723.35219-.025.70584-.0317 1.05893-.0431.06866-.0022.10432-.0186.09517-.0927-.01721-.1395-.01594-.2829-.04902-.4185-.11787-.4832-.47873-.7043-.9768-.7374-.56195-.0375-1.0642.1352-1.53303.4218-.03364.0206-.06668.0421-.11376.0719zm2.32225 1.491c-.0006-.0061-.00116-.0123-.00176-.0184-.32027.0298-.64181.0504-.96044.0921-.2655.0348-.52114.1122-.74863.2587-.28361.1826-.4082.4421-.36762.7688.03738.3007.20913.5181.49116.6374.44576.1886.87674.1409 1.25817-.1499.50183-.3825.69169-.9127.69557-1.5186.00038-.0571-.02923-.0715-.08064-.0706-.09521.0016-.19053.0005-.28581.0005zM2.46478 14.0943c.23265.2016.48235.3585.76469.461.3572.1298.72276.1921 1.10026.0982.1759-.0438.33237-.1262.44573-.2709.17802-.2273.1664-.5169-.05186-.7065-.12654-.11-.27629-.2026-.43004-.273-.32509-.1488-.66093-.2751-.98994-.4161-.26576-.1139-.51379-.257-.73161-.4474-.61795-.5404-.57554-1.603.18022-2.0929.31176-.2021.65701-.3043 1.02724-.3377.53036-.048 1.04374.0123 1.5256.2418.15319.073.29156.1765.43292.2714.02008.0135.03517.0659.02449.0862-.11783.2241-.24123.4454-.36328.6673-.00418.0076-.00993.0143-.01815.026-.23249-.1888-.49041-.3179-.77708-.388-.31396-.0768-.6305-.104-.94588-.0084-.29272.0887-.46842.2943-.48104.5513-.00721.1467.04574.2702.14927.3742.1648.1656.37575.2577.58782.3467.3441.1443.69274.2789 1.03291.4314.27603.1238.52424.2928.71167.5317.47179.6013.31729 1.4878-.33602 1.9405-.29765.2063-.63226.3132-.99319.3499-.67863.0691-1.31547-.0548-1.90076-.4005-.1412-.0834-.26837-.1898-.39864-.2899-.01945-.015-.03726-.0639-.02722-.0788.14995-.2226.30463-.442.46189-.6675zM32.7149 8c2.168.087 4.0843.77468 5.7506 2.1154 1.8293 1.4718 2.9718 3.371 3.4121 5.6782.0964.5053.107 1.0269.1595 1.5408.0135.1336-.0231.1928-.1746.1914-.7531-.007-1.5065-.0059-2.2597-.0008-.143.0009-.1797-.0506-.186-.1898-.1161-2.6044-1.3344-4.5468-3.5653-5.8602-.8825-.5195-1.8497-.7995-2.8743-.8699-.2616-.018-.2621-.0188-.2622-.2716-.0003-.70504-.0001-1.41012-.0001-2.11512V8zM35.4633 17.5105h-4.9634v-3.8743c1.6521 1.2896 3.288 2.5665 4.9634 3.8743z" fill="#3E5B9C"/><path d="M32.7149 27c2.168-.087 4.0843-.7747 5.7506-2.1154 1.8293-1.4718 2.9718-3.371 3.4121-5.6782.0964-.5053.107-1.027.1595-1.5409.0135-.1335-.0231-.1928-.1746-.1914-.7531.007-1.5064.006-2.2597.0009-.143-.0009-.1797.0505-.186.1897-.1161 2.6045-1.3344 4.5469-3.5653 5.8603-.8825.5195-1.8497.7995-2.8743.8699-.2616.018-.2621.0188-.2622.2716-.0003.705-.0001 1.4101-.0001 2.1151V27zM35.4633 17.4896h-4.9634v3.8743c1.6521-1.2895 3.288-2.5665 4.9634-3.8743z" fill="#5A9DC9"/><path d="M25.2672 23.5071c.3568-.7208.7672-1.3848 1.1518-2.0622.477-.8403.9601-1.6775 1.4391-2.5168.0278-.0487.0596-.0668.1181-.0664.3635.0028.727.004 1.0905-.0003.0983-.0012.0865.0251.0474.0887-.9357 1.5203-1.8699 3.0415-2.8046 4.5625-.4468.7269-.8936 1.4538-1.3414 2.1802-.2779.4505-.6241.8399-1.1154 1.0823-.6982.3445-1.3804.2804-2.0424-.1035-.0495-.0288-.063-.0486-.0251-.1025.1508-.2144.2954-.433.4407-.651.0267-.04.0423-.0588.0981-.026.4085.2404.816.2191 1.2158-.0216.227-.1367.3977-.3285.54-.5436.1518-.2294.2956-.4637.4474-.693.0302-.0456.0223-.0838.0118-.1278-.2726-1.1358-.545-2.2715-.8175-3.4073-.1711-.7131-.3413-1.4265-.5151-2.139-.0194-.0797-.0085-.1009.0824-.0991.3196.0062.6395.0055.9592.0002.0783-.0013.1098.0178.1251.0932.2012.9856.4078 1.9703.6077 2.9562.0903.4452.2015.8869.2564 1.3384.0094.0772.018.1545.03.2584zM16.6597 20.347c-.1465-.5747-.4814-1.0265-1.0525-1.2796-.9339-.4141-2.2088-.2394-2.9644.7288-.0248.0318-.038.0767-.0976.0932.1139-.318.1563-.6393.2272-.9544.0163-.0724-.0091-.0731-.0663-.0728-.2961.0018-.5923.0028-.8885-.0007-.0638-.0007-.0851.0196-.0957.0781-.0432.2393-.0916.4778-.1384.7165-.2258 1.1488-.4515 2.2976-.6774 3.4465-.2065 1.0502-.4131 2.1004-.6194 3.1507-.0483.2459-.0953.492-.1439.7437.3545 0 .6976-.0008 1.0407.001.0498.0003.0588-.0207.0669-.0621.1668-.8564.3363-1.7122.5032-2.5686.0361-.1854.0637-.3724.0954-.5587.031.0057.0299.0299.0377.0457.1889.3821.493.6441.9022.7886.6312.2229 1.2567.1757 1.8663-.074.7766-.3181 1.3307-.8684 1.695-1.5928.4217-.8384.5414-1.7196.3095-2.6291zm-1.5288 2.5385c-.3345.4643-.7723.7916-1.3596.898-.8302.1505-1.4721-.2878-1.5664-1.0988-.1098-.9438.1908-1.7625.9188-2.4117.389-.3469.8576-.5152 1.397-.449.4888.06.8168.319.9916.7606.0963.2431.1172.4976.1168.652-.0233.6613-.1642 1.1851-.4982 1.6489zM22.3996 20.4745c-.0125-.764-.4299-1.3002-1.1912-1.5079-.5739-.1566-1.1512-.1289-1.7266-.0077-.4349.0917-.8485.2419-1.2375.4521-.0319.0172-.084.024-.0641.0807.0957.2734.1917.5468.2893.8252.2214-.13.443-.2372.6752-.3229.4482-.1656.9074-.2624 1.3897-.1868.2784.0436.5137.1569.6337.4219.124.2739.092.558.0482.8422-.0087.0567-.0494.042-.083.0417-.4072-.0028-.8135.0111-1.2181.0585-.5696.0668-1.1264.1823-1.6454.4276-.659.3114-1.1152.7737-1.2175 1.509-.0919.6608.2217 1.2407.8582 1.4973.8044.3243 1.5571.2023 2.2509-.2937.2363-.169.4341-.3758.6154-.6036-.0787.3321-.1317.6678-.205.9996-.0155.0698.0068.0731.0655.0726.2793-.0022.559-.0078.8379.0024.1112.004.137-.0365.1554-.1297.197-.9959.3997-1.9908.5978-2.9865.0784-.3943.1779-.7852.1712-1.192zm-1.3407 1.4927c-.171.7131-.532 1.304-1.1882 1.6992-.2938.177-.6165.2487-.9639.1985-.2995-.0433-.5534-.1593-.6662-.4482-.1164-.298-.0583-.5831.1409-.8341.2189-.2757.535-.403.8684-.4954.4424-.1227.8972-.1566 1.3549-.1718.1344 0 .2688.0009.4031-.0005.04-.0004.063.0023.051.0523z" fill="#5A9ECA"/></svg>