<svg viewBox="0 0 24 16" fill="none" xmlns="http://www.w3.org/2000/svg"><g clip-path="url(#clip0)"><path fill-rule="evenodd" clip-rule="evenodd" d="M22 16H2c-1 0-2-1-2-2V2C0 .999987 1 0 2 0h20c1 0 2 1 2 1.99999V14c0 1-1 2-2 2z" fill="#fff"/><path d="M22 15.75H2c-.41869 0-.85831-.2119-1.198223-.5518C.461863 14.8583.25 14.4187.25 14V2c0-.4187.211864-.85832.551776-1.198228C1.14169.461861 1.58131.25 2 .25h20c.4187 0 .8583.211863 1.1982.551775.3399.339915.5518.779525.5518 1.198215V14c0 .4187-.2119.8583-.5518 1.1982S22.4187 15.75 22 15.75z" stroke="#009F2A" stroke-opacity=".2" stroke-width=".5"/><g clip-path="url(#clip1)"><path d="M20.2325 7.1393c.01-.02985.01-.06966.0301-.09951.03-.06965.0601-.1393.1002-.199.0803-.12935.1705-.24876.2708-.35821.2106-.21891.4813-.38806.7621-.48756.4512-.15921.9526-.15921 1.4038.00995.361.1393.1103.35821.0902.52736-.01.17911-.03.37811-.3309.26866-.3008-.10945-.6217-.10945-.9425-.04975-.2507.04975-.4312.1791-.5215.41791-.0902.2587.0301.45771.2206.61691.2006.16916.4312.31841.6418.47761.8924.67662.8323 1.77113-.1304 2.33833-.6217.3681-1.3035.388-1.9954.2388-.3911-.0896-.1203-.3781-.1003-.5672.0301-.2587.0802-.33829.3409-.2686.361.0995.712.1492 1.083.0298.2607-.07959.4613-.20894.5214-.47759.0702-.28856-.0902-.47762-.3008-.63682-.2507-.18905-.5214-.35821-.7521-.57711-.1103-.10946-.2206-.22886-.3008-.36816-.0401-.06966-.0802-.14926-.1003-.21891-.0401-.199-.03-.42786.0101-.61691zM3.45658 5.94525c.13036 0 .27074-.00995.4011 0 .47128.04975.62169.3781.36098.78606-.08022.12936-.18049.09951-.30082.06966-.31085-.08956-.62169-.10946-.94257-.04975-.24065.04975-.4412.16915-.51139.4179-.07019.24876.02005.45772.2206.61692.21057.16915.42115.31841.64175.47761.84229.64677.83227 1.69154-.05014 2.27865-.63172.4278-1.35369.4278-2.07566.2885-.350955-.0696-.13035-.3283-.10027-.4776.03008-.1493-.06017-.45771.30082-.36816.32087.07956.65178.15916.99271.07956.30082-.06961.58158-.16911.6618-.51737.07019-.33831-.14038-.51741-.37101-.69652-.15041-.10945-.30082-.2189-.4412-.3184-.54148-.38806-.81222-.88557-.64175-1.55224.14038-.54726.71194-.96517 1.3938-1.03482.16043-.0199.31084 0 .46125 0z" fill="#5B5A5D"/><path fill-rule="evenodd" clip-rule="evenodd" d="M6.18416 5.99502c-1.24339.31841-2.06563 1.54229-2.06563 3.06467 0 1.47261 1.04284 2.19901 2.4567 1.71141 1.16317-.398 1.91522-1.54225 1.9453-2.96514.03009-1.40298-.95259-2.16915-2.33637-1.81094zm.63175 3.76119c.58159-.49751.78213-1.16418.80219-1.90049.01003-.42786 0-.86567-.46126-1.07463-.47128-.18905-.92252-.0796-1.31358.23881-.59162.48756-.81222 1.15422-.85233 1.89054-.02005.43781 0 .89552.48132 1.10446.49134.2189.95259.0796 1.34366-.25869zM15.7597 10.04c-.0066.0181-.0133.0363-.0194.0545.0087.0034.0183.0069.0283.0105.0478.0172.1055.0379.1221.079.4612.6966 1.1331.8259 1.8851.6767 1.3336-.2687 1.9553-1.20402 2.2461-2.4279.0042-.03885.0084-.07675.0124-.11385.0451-.40954.0796-.7235-.0124-1.17968-.3409-.88557-.8122-1.21393-1.7347-1.19402-1.1331.02985-1.845.64676-2.3063 1.62188-.287.60529-.3013 1.25836-.3154 1.90934-.0017.07671-.0034.15339-.0055.22996.1937.07863.1478.2033.0997.33357zm2.5475-.22412c.6619-.50746.8524-1.23383.8825-1.91044-.0101-1.08458-.6819-1.49254-1.5342-1.02488-.3008.15921-.5215.39801-.7019.68657-.2608.41791-.3811.87562-.4011 1.36318-.0101.40796-.0101.85572.4412 1.07459.4612.2289.9125.1194 1.3135-.18902z" fill="#5B5A5D"/><path d="M8.80127 10.8507s.7721-3.18404 0-5.27359c0 0 .69188.10945.93254 1.75124 0 0 1.30359-3.61193 6.26709-4.32835 0 0-3.1987.59701-4.9736 3.25373.0101-.00995.0301-.0199.0401-.0199.0702-.03981.1304-.06966.2006-.09951.1003-.0398.2005-.0796.3108-.10945.1103-.02985.2307-.04975.351-.0597.1103 0 .2206.00995.3209.0597.0501.0199.0902.0597.1303.0995.0401.04975.0702.09951.0903.15921.02.0597.0401.12935.0401.18905 0 .0398.01.0796.01.1194v.12936c0 .1194-.01.24875-.01.36816 0 .1393-.0101.26865-.0201.40795-.01.12936-.02.24876-.0301.37811-.01.08956-.02.17911-.0501.26866.2206-.51741.5415-1.02487.9225-1.44278.3109-.34826.8323-.87562 1.3437-.78607.361.0597.6417.2985.6618.67661 0 .0597 0 .11941-.0101.17911 0 0-.4311 1.97014-.4913 2.10945 0 0-.361 1.14431.0602 1.37311 0 0 .3008.1891.752-.54724 0 0 .3008-.0199.0903.37814 0 0-.5515.8557-1.1331.9054-.0802.01-.1805-.0895-.2306-.1393-.2006-.199-.2808-.4875-.3109-.7562-.0301-.24874-.0301-.4975.01-.74625.0301-.18906.0602-.37811.0903-.56717.0401-.2388.0802-.47761.1203-.71641.0401-.22886.0802-.44776.1203-.67662.0301-.14925.0502-.2985.0803-.44776 0-.02985.01-.04975.01-.0796.02-.1194.02-.25871-.0401-.35821-.1003-.1791-.351-.08955-.4813 0-.0201.00995-.0401.0199-.0502.0398-.02.0199-.0501.0398-.0802.0597-.01.00995-.0301.0199-.0401.0398l-.01.00996s0-.00001-.0101.00995c0 0 0 .00995-.01.00995-.01.00995-.02.00995-.02.0199-.0101.00995-.0101.0199-.0201.02985-.02.0199-.0401.04975-.0602.06965-.1002.12935-.2005.2587-.3008.39801-.1504.20895-.3008.42786-.4412.64676-.1704.27861-.3409.55722-.4913.84577-.1705.32836-.3209.65672-.4613.99503-.1404.35819-.2306.61689-.3208.98509l-.702.2089s.8824-3.72135.7822-4.11936c0 0 .02-.80597-1.0529.30845 0 0-1.19325 1.32339-1.73472 3.85071l-.15041-.0597z" fill="#009F2A"/></g></g><defs><clipPath id="clip0"><path fill="#fff" d="M0 0h24v16H0z"/></clipPath><clipPath id="clip1"><path fill="#fff" transform="translate(1 3)" d="M0 0h22v7.99999H0z"/></clipPath></defs></svg>
