<svg viewBox="0 0 44 34" fill="none" xmlns="http://www.w3.org/2000/svg"><path fill-rule="evenodd" clip-rule="evenodd" d="M40.3333 31.3333H3.66667C1.83333 31.3333 0 29.5 0 27.6667V5.66667C0 3.83331 1.83333 2 3.66667 2H40.3333C42.1667 2 44 3.83333 44 5.66664V27.6667c0 1.8333-1.8333 3.6666-3.6667 3.6666z" fill="#fff"/><path d="M40.3333 30.8333H3.66667c-.75405 0-1.54996-.382-2.16728-.9994C.88206 29.2166.5 28.4207.5 27.6667V5.66667c0-.75407.38206-1.54997.99939-2.16729C2.11671 2.88206 2.91261 2.5 3.66667 2.5H40.3333c.7541 0 1.55.38206 2.1673.99938.6173.61733.9994 1.41323.9994 2.16726V27.6667c0 .754-.3821 1.5499-.9994 2.1672-.6173.6174-1.4132.9994-2.1673.9994z" stroke="#CC222C" stroke-opacity=".2"/><path d="M17.8015 28.3718c1.5493-.6523 2.794-1.6606 3.9635-2.7541 1.2776-1.1943 2.36-2.5214 3.3279-3.9307.6227-.9065 1.2307-1.8188 1.7545-2.7743.8118-1.4805 1.437-3.0203 1.8008-4.6426.1683-.7509.27-1.5098.3448-2.272.0032-.0319.0007-.0644.0011-.0967.0003-.0283-.0061-.0576-.0415-.0605-.038-.0033-.0402.0283-.0495.0541-.0938.2636-.1944.5256-.2836.7908-.4633 1.3755-1.0828 2.6906-1.8988 3.9272-.4963.7518-1.0305 1.4805-1.7241 2.1034-.3452.3103-.7488.4151-1.2214.321-.3885-.0774-.7684-.1824-1.1423-.303-.5256-.1695-.816-.5011-.8686-1.0115-.0924-.8934.0701-1.7564.3111-2.6185.4032-1.4434.7831-2.8923 1.1673-4.3399.0666-.2511.2127-.3938.5042-.4489.5378-.1015 1.0799-.1528 1.6271-.176.0734-.0032.1411.011.2109.0248.3409.068.3985.1518.3251.4609-.1865.7834-.425 1.5549-.637 2.3329-.2471.9071-.5138 1.8104-.714 2.7266-.1293.5924-.2216 1.1918-.2746 1.7951-.0183.2078-.0656.4141-.0366.6245.0197.1437.0863.1689.2238.0893.3499-.203.5765-.5031.8096-.8031.9389-1.2075 1.6883-2.504 2.2716-3.8794.4086-.9636.7438-1.9485.998-2.9542.0591-.2337.1046-.4722.1314-.71032.0408-.36416-.0723-.59458-.3928-.86109.5217-.31324 1.0624-.33258 1.6256-.11602.564.21689.8544.64099 1.0667 1.12793.246.5646.3646 1.1476.3588 1.7554-.0121 1.3116-.1636 2.6068-.5371 3.8768-.4246 1.4444-.9857 2.8427-1.7549 4.1698-.7974 1.3761-1.7843 2.6313-2.9501 3.7754-1.4714 1.4434-3.1801 2.6155-5.0481 3.6081-.8809.4679-1.7825.8997-2.7468 1.2159-.0455-.0242-.0849-.0168-.1314.0058-.1551.0744-.3395.0825-.4899.1701-.0229.0136-.0598.0168-.0816-.0064-.0301-.0316-.0043-.0587.0175-.0835.0477-.0557.1336-.0606.1834-.1131zM11.5392 28.821c-.844-.2294-1.59162-.6161-2.25621-1.1324-1.5014-1.1663-2.34216-2.6861-2.85886-4.3732-.22343-.7289-.33551-1.4743-.37132-2.232-.0444-.9284-.03652-1.8569-.02041-2.785.02005-1.1585.12676-2.3122.26784-3.464.13141-1.0741.2929-2.1444.44759-3.2156.08845-.6139.22881-1.2217.34447-1.83239.03867-.20464.03402-.21398-.18262-.15404-.55537.1534-1.10788.31485-1.6611.47373-.48877.1405-.79421-.10731-.68643-.56751.05407-.23042.19408-.41024.44688-.50692.72116-.27586 1.43981-.55656 2.16204-.83016.2195-.08314.34877-.21269.40928-.427.19551-.69352.4168-1.38091.61231-2.07442.07161-.25363.24492-.37351.51025-.42894.825-.17241 1.64889-.34933 2.47359-.52368.1024-.02159.2066-.03803.3391-.0622-.2643.73445-.5214 1.44955-.7942 2.20752.3584-.11601.6721-.21753.9854-.31872.3849-.12439.7484-.30422 1.1505-.38156.357-.06864.704-.01418 1.0076.16919.3975.23976.7545.52303 1.0334.87817.024.03062.0473.06188.068.0941.173.27135.0806.50145-.2596.57911-.3559.08089-.7183.14244-1.081.19369-1.0907.15372-2.1696.35771-3.2438.5833-.1568.03287-.2291.14018-.261.27457-.14683.61552-.29757 1.23006-.43973 1.84656-.27178 1.1766-.50596 2.3593-.70791 3.5469-.1572.9246-.29291 1.852-.44079 2.7782-.11494.7196-.24564 1.4373-.34733 2.1586-.15433 1.0931-.18548 2.1901-.12819 3.2916.0487.9416.222 1.8559.58187 2.7434.51741 1.2752 1.32057 2.3439 2.65258 3.0412.1307.1541.3398.1899.5178.2678.2052.09.43.1422.6438.2166.0598.0206.1203.0448.0978.1105-.0201.0587-.0853.0481-.1379.0361-.2055-.0467-.4207-.0605-.6112-.1575-.0809-.0407-.1744-.0216-.2625-.0236z" fill="#CC222C"/><path d="M18.6533 14.3133c-.1332.0976-.1819.2188-.2378.3361-1.0631 2.2339-2.1226 4.4692-3.1904 6.7015-.1712.358-.3853.6987-.627 1.0232-.1482.1992-.3581.3129-.6309.2978-.8071-.0448-1.5573-.2449-2.1846-.7203-.2918-.2211-.4573-.5224-.4648-.8724-.015-.708.0097-1.4141.1024-2.1192.168-1.2739.4519-2.5282.7599-3.7785.2069-.8399.4669-1.6674.729-2.4944.0755-.2391.2395-.3848.5228-.4453.748-.1605 1.5017-.2298 2.2648-.1367.2202.0268.4329.107.6481.165.1045.028.0494.0896.0304.1412-.352.9532-.6986 1.9084-1.0001 2.8759-.381 1.2226-.7243 2.4534-.9754 3.7044-.1414.7054-.2445 1.4151-.3455 2.1253-.0068.0468-.0007.0945-.0007.1499.1042-.0116.1063-.0889.1318-.1412.4182-.8504.8343-1.7012 1.2493-2.5529 1.0155-2.0838 2.027-4.1692 3.0482-6.2507.1726-.3516.3846-.6871.5776-1.0306.0938-.1666.2417-.2414.449-.2208.6478.0642 1.2741.1976 1.8652.4512.2894.1244.3212.2121.1562.5089-.2815.5062-.5594 1.0145-.7803 1.5443-.4297 1.0319-.7573 2.0892-.9066 3.1865-.0441.3233-.1404.6407-.1386.9691.0029.4669.0952.9165.3688 1.3197.0806.1189.0351.1614-.0702.2156-.4826.2471-1.1157.0199-1.2919-.4525-.1808-.4847-.1554-.9816-.1432-1.4792.0218-.9065.0322-1.8137.0841-2.7196.0054-.0999.0004-.2008.0004-.3013zM11.5392 28.821c.1296-.059.2317-.038.3677.0274.1676.0806.3771.0912.569.1299.0222.0045.0526-.0045.0473-.0322-.0036-.0174-.0262-.0458-.0394-.0455-.1182.0039-.1991-.0783-.3094-.1012-.2922-.0606-.5425-.2188-.8164-.3245-.0312-.0119-.1099-.0361-.0673-.1041.8096.409 1.6836.5907 2.606.65 1.2622.0812 2.4607-.1331 3.627-.5459.0934-.0332.1854-.0693.2782-.1041.0057.001.0125.0007.0172.0032.0089.0049.0168.0116.025.0174-.0465.02-.0963.0355-.1389.061-.0383.0228-.0784.0486-.0988.1198.1822-.1169.3953-.1082.5675-.1998.0623-.0332.0963-.0261.1296.0248-.6144.2105-1.2425.3813-1.8859.5034-1.0392.1972-2.088.32-3.1521.2414-.588-.0422-1.1709-.1254-1.7263-.321zM39.9709 8.79865c-.1114-.02836-.1655-.00483-.1905.10023-.0537.2243-.1268.44473-.1758.66967-.1841.84525-.5021 1.64645-.9625 2.40155-.0788.1289-.178.2504-.3631.2413-.1254-.0061-.2292-.173-.246-.357-.0011-.0107 0-.0216-.0007-.0322-.0366-.6275-.0061-1.254.0487-1.8795.0368-.42024-.0634-.80696-.3284-1.15404-.3638-.47663-.844-.83885-1.3965-1.12825-.4637-.24266-.9632-.32968-1.4917-.26651-.6385.07637-1.0041.45536-1.2361.95552-.4737 1.02158-.8422 2.07088-1.0627 3.16338-.1676.8298-.2743 1.6648-.2636 2.5056.0108.825.4841 1.4128 1.3023 1.7741.2775.1224.5371.0863.7695-.1061.2288-.1891.3781-.4257.5035-.6748.6137-1.2194.9256-2.5175 1.2257-3.8188.0469-.2034.0726-.4154.2069-.6465.0147.5195.1006.9816.2109 1.4418.0623.2611.1622.5028.3724.6961.559.5143 1.4026.4631 1.9673-.0938.4583-.4518.6395-1.0164.8551-1.5694.2434-.6252.3903-1.27424.5704-1.9149v-.25782c-.1049-.01547-.2127-.02352-.3151-.04963zm-3.7548.45827c-.3334 1.02448-.6384 2.05638-.9568 3.08508-.1256.406-.2513.8121-.3863 1.2159-.0391.1166-.0999.2304-.1708.3345-.1067.1573-.2546.1482-.357-.01-.1483-.2301-.1096-.4886-.1429-.7277.0412-.6181.0985-1.2256.2181-1.8266.1475-.7415.3602-1.46823.6391-2.17882.0695-.17725.1683-.34225.2761-.50209.1293-.19175.3935-.24106.5869-.10441.2481.17531.4211.32291.2936.71414z" fill="#CC222C"/></svg>