<svg viewBox="0 0 24 16" fill="none" xmlns="http://www.w3.org/2000/svg"><g clip-path="url(#clip0)"><path fill-rule="evenodd" clip-rule="evenodd" d="M22 16H2c-1 0-2-1-2-2V2C0 .999987 1 0 2 0h20c1 0 2 1 2 1.99999V14c0 1-1 2-2 2z" fill="#15195A"/><path d="M9.59352 5.12313L6.975 11.8666H5.26672l-1.2886-5.38193c-.07812-.33068-.14601-.45238-.38374-.59221-.3886-.22788-1.03032-.441-1.59438-.57358l.03805-.19575h2.75031c.35 0 .66516.25158.74531.68718l.68086 3.90254 1.68094-4.58972h1.69805zm2.30938 0l-1.3362 6.74347H8.95047l1.33633-6.74347h1.6161zm4.3841 4.54174c.0067-1.77944-2.2793-1.8782-2.2643-2.67325.0054-.24171.2187-.49902.6856-.5648.2312-.0323.8701-.05803 1.5938.30193l.2831-1.43087C16.1964 5.14607 15.696 5 15.0736 5c-1.5977 0-2.7215.91607-2.7305 2.22887-.0104.97106.8028 1.51225 1.4143 1.83568.6299.33027.8412.54254.8383.83773-.0045.45242-.5031.65272-.9666.66022-.8128.0139-1.284-.2372-1.6599-.4262l-.2933 1.4783c.3781.187 1.075.3496 1.7968.3578 1.6984 0 2.8093-.9056 2.8143-2.30753zm4.2187 2.20173H22l-1.3055-6.74347h-1.3786c-.311 0-.5723.19482-.6882.4943l-2.425 6.24917h1.6971l.3366-1.0073h2.0734l.1959 1.0073zm-1.8039-2.38922l.8509-2.53239.4889 2.53239h-1.3398z" fill="#fff"/></g><defs><clipPath id="clip0"><path fill="#fff" d="M0 0h24v16H0z"/></clipPath></defs></svg>
