<svg xmlns="http://www.w3.org/2000/svg" fill="none" viewBox="0 0 60 40"><path fill="#314148" fill-rule="evenodd" d="M55 40H5c-2.5 0-5-2.5-5-5V5c0-2.5 2.5-5 5-5h50c2.5 0 5 2.5 5 5v30c0 2.5-2.5 5-5 5Z" clip-rule="evenodd"/><path fill="#4FC800" d="M44.694 22.74c.005.9-.233 1.785-.688 2.567l-1.483 2.566a13.434 13.434 0 0 1-4.908 4.9 13.374 13.374 0 0 1-6.697 1.788H19.092a3.17 3.17 0 0 1-2.74-4.75l8.303-14.38a5.115 5.115 0 0 1 4.427-2.566l2.954.008-9.565 16.572h8.443a8.299 8.299 0 0 0 7.177-4.139l4.041-7.002a5.136 5.136 0 0 1 2.562 4.436Zm-26.83-1.925 4.046-7.003a8.267 8.267 0 0 1 3.034-3.03 8.278 8.278 0 0 1 4.143-1.109h8.447l-.004.005-9.57 16.576h2.954c.9 0 1.78-.238 2.558-.688a5.082 5.082 0 0 0 1.87-1.878l8.303-14.376a3.166 3.166 0 0 0-2.741-4.742h-.425l-.008.017.008-.025H29.083a13.401 13.401 0 0 0-11.605 6.688l-1.483 2.566a5.127 5.127 0 0 0-.005 5.13 5.071 5.071 0 0 0 1.874 1.87Z"/></svg>