<svg xmlns="http://www.w3.org/2000/svg" fill="none" viewBox="0 0 61 40"><path fill="#FAFAFA" d="M.663 5a5 5 0 0 1 5-5h50a5 5 0 0 1 5 5v30a5 5 0 0 1-5 5h-50a5 5 0 0 1-5-5V5Z"/><path fill="#fff" d="M42.84 20c0 9.392-8 17-17.856 17-9.865 0-17.856-7.608-17.856-17S15.119 3 24.984 3c9.857 0 17.856 7.616 17.856 17Z"/><path fill="#2D2C8D" d="M12.027 29.693h25.914a15.198 15.198 0 0 0 1.708-2.542H10.311c.49.908 1.061 1.753 1.716 2.542Z"/><path fill="#303030" d="M12.193 29.897h25.575c.058-.071.116-.135.165-.206H12.02c.058.071.116.143.174.206Z"/><path fill="#2D2C8D" d="M9.88 26.29h30.208a15.132 15.132 0 0 0 1.377-6.015H8.512c.034 2.131.514 4.168 1.368 6.014ZM24.985 35.698c2.652 0 5.148-.6 7.37-1.657h-14.74a17.063 17.063 0 0 0 7.37 1.657Z"/><path fill="#303030" d="M12.99 30.766h23.974c.066-.071.14-.134.207-.205H12.782c.075.07.14.134.207.205Z"/><path fill="#2D2C8D" d="M16.023 33.173h17.914a16.286 16.286 0 0 0 3.034-2.407H12.997a16.23 16.23 0 0 0 3.026 2.407ZM12.516 9.749h24.936a16.467 16.467 0 0 0-3.258-2.763H15.783a16.28 16.28 0 0 0-3.267 2.763ZM24.984 4.31A17.09 17.09 0 0 0 17.3 6.119h15.36a17.055 17.055 0 0 0-7.676-1.807ZM8.512 19.407h32.936a14.775 14.775 0 0 0-.298-2.438H8.81c-.165.789-.264 1.602-.298 2.438ZM9.01 16.1h31.932a14.064 14.064 0 0 0-.937-2.525H9.938c-.373.805-.688 1.65-.928 2.526ZM10.386 12.707h29.188a16.355 16.355 0 0 0-1.384-2.1H11.778a15.582 15.582 0 0 0-1.393 2.1Z"/><path fill="#fff" d="M50.384 20c0 9.392-7.991 17-17.856 17-9.865 0-17.856-7.608-17.856-17S22.663 3 32.528 3c9.865 0 17.856 7.616 17.856 17Z"/><path fill="#F9EF00" d="M23.567 33.173H41.48a16.286 16.286 0 0 0 3.034-2.407H20.541a16.23 16.23 0 0 0 3.026 2.407ZM32.528 35.698c2.652 0 5.148-.6 7.37-1.657h-14.74a17.063 17.063 0 0 0 7.37 1.657ZM32.528 4.31a17.09 17.09 0 0 0-7.684 1.808h15.36a17.029 17.029 0 0 0-7.676-1.807ZM20.06 9.749h24.936a16.47 16.47 0 0 0-3.258-2.763H23.326A16.283 16.283 0 0 0 20.06 9.75ZM19.737 29.897H45.32a15.343 15.343 0 0 0 1.8-2.596h-29.18c.513.923 1.11 1.791 1.798 2.596ZM45.734 10.616H19.322c-.489.616-.92 1.27-1.31 1.957h29.032c-.39-.686-.821-1.341-1.31-1.957Z"/><path fill="#F42D2E" d="M22.671 13.727h6.98l-7.684 12.998h-4.145l2.122-4.04h-2.122l4.344-3.86-11.523 7.9h-6.98L22.67 13.727ZM30.563 13.727h12.841l-2.023 3.662H36.98l-5.305 9.336h-4.551l5.662-9.336h-4.452l2.23-3.662ZM44.316 13.726l-7.585 12.998h4.65l2.935-5.004h3.64l-2.736 5.004h4.758l7.685-13.764h-4.65l-3.142 5.864h-4.145l2.934-5.099h-4.344Z"/></svg>