<svg xmlns="http://www.w3.org/2000/svg" fill="none" viewBox="0 0 60 40"><path fill="#FAFAFA" d="M0 5a5 5 0 0 1 5-5h50a5 5 0 0 1 5 5v30a5 5 0 0 1-5 5H5a5 5 0 0 1-5-5V5Z"/><path fill="url(#a)" d="M47.142 23.385c5.444 0 9.858-4.115 9.858-9.192S52.586 5 47.142 5c-5.445 0-9.859 4.116-9.859 9.193s4.414 9.192 9.859 9.192Z"/><path fill="#0C3DC3" fill-rule="evenodd" d="m37.036 31.265-.03-2.71-2.583 2.71h2.613Zm.41 2.416H32.42L31.106 35h-4.33l8.807-10.116h5.891V35h-4.152l.124-1.32Zm10.168-8.79h3.974l-2.69 6.857h6.896l-1.06 3H43.594l4.02-9.856ZM13.26 31.266l-.03-2.71-2.583 2.71h2.613Zm.41 2.416H8.644L7.33 35H3l8.807-10.116h5.891V35h-4.144l.116-1.32Z" clip-rule="evenodd"/><path fill="#FF1000" d="M19.322 24.8h3.858l.155 5.955 5.76-5.955h5.142l-9.309 10.115h-5.606V24.8ZM39.093 9.47h3.866l.155 5.17 5.196-5.43h5.141l-8.745 9.597h-5.613V9.47Z"/><path fill="#0C3DC3" fill-rule="evenodd" d="M30.124 22.267a.733.733 0 0 0 .17.584c.14.159.325.238.572.238.201 0 .395-.065.596-.187.193-.123.363-.31.51-.563.147-.252.224-.497.247-.728.024-.267-.03-.476-.17-.62-.139-.151-.324-.223-.556-.223-.364 0-.673.158-.928.476a1.864 1.864 0 0 0-.441 1.023Zm-.734.015c.015-.202.07-.411.154-.628.116-.295.263-.547.456-.771.194-.216.426-.39.696-.512.27-.122.572-.187.905-.187.448 0 .796.13 1.044.389.247.26.355.598.309 1.031-.03.353-.155.7-.363 1.031-.21.332-.48.584-.805.764-.324.18-.68.267-1.067.267-.332 0-.61-.072-.827-.216a1.068 1.068 0 0 1-.433-.527 1.66 1.66 0 0 1-.07-.641Zm-2.374-.527h.232c.386 0 .65-.021.788-.064a.726.726 0 0 0 .333-.217.619.619 0 0 0 .147-.332.307.307 0 0 0-.039-.194.313.313 0 0 0-.154-.116c-.07-.021-.225-.036-.464-.036h-.534l-.31.96Zm-.596 1.846h-.742l1.075-3.36h1.461c.263 0 .464.03.611.087a.65.65 0 0 1 .332.281c.078.13.109.288.086.476a1.33 1.33 0 0 1-.155.497 1.345 1.345 0 0 1-.294.382 1.374 1.374 0 0 1-.348.217c-.123.05-.286.086-.487.115a6.405 6.405 0 0 1-.657.022h-.472l-.41 1.283Zm-3.263-3.36h.735l-.603 1.824-.155.447-.038.145c-.016.122.038.223.139.302.108.08.263.123.48.123.192 0 .355-.029.486-.094a.845.845 0 0 0 .325-.28c.085-.123.17-.333.27-.635l.588-1.839h.743l-.611 1.903c-.124.368-.255.657-.394.851-.14.195-.333.36-.58.483-.248.123-.557.188-.92.188-.433 0-.758-.094-.967-.289a.87.87 0 0 1-.232-.944c.016-.05.054-.188.131-.418l.604-1.767Zm-3.386 1.464h.394c.395 0 .665-.022.797-.065a.75.75 0 0 0 .324-.21.5.5 0 0 0 .14-.295c.015-.122-.031-.216-.132-.274-.062-.036-.2-.057-.417-.057h-.812l-.294.9Zm-.603 1.896h-.742l1.074-3.36h1.6c.28 0 .488.03.635.08.147.05.263.151.34.288.077.137.108.31.093.512-.031.288-.14.519-.34.707-.201.187-.488.302-.866.346.085.079.17.18.24.317.138.26.285.634.448 1.11h-.797a8.077 8.077 0 0 0-.293-.887c-.078-.216-.178-.36-.287-.44-.07-.043-.185-.064-.363-.064h-.301l-.441 1.391Zm-2.498-1.795h1.624l-.464 1.449c-.2.115-.44.21-.727.288-.286.08-.572.123-.858.123-.448 0-.78-.094-.997-.281-.302-.26-.425-.628-.38-1.118.032-.324.132-.641.302-.944.201-.36.464-.642.797-.844a2.06 2.06 0 0 1 1.113-.295c.418 0 .743.093.974.266.232.18.38.44.426.786l-.696.072c-.047-.187-.124-.331-.255-.425a.81.81 0 0 0-.495-.144 1.309 1.309 0 0 0-1.19.714c-.14.245-.217.511-.248.8-.031.281.023.49.147.627.123.137.317.202.587.202.163 0 .325-.022.495-.065.17-.043.325-.094.448-.151l.163-.505H16.5l.17-.555Z" clip-rule="evenodd"/><defs><radialGradient id="a" cx="0" cy="0" r="1" gradientTransform="matrix(8.82787 0 0 8.23179 47.414 14.489)" gradientUnits="userSpaceOnUse"><stop offset=".227" stop-color="#C9D9FF"/><stop offset=".456" stop-color="#7194E2"/><stop offset=".946" stop-color="#0C3DC3"/><stop offset="1" stop-color="#0C3DC3"/></radialGradient></defs></svg>