<svg xmlns="http://www.w3.org/2000/svg" fill="none" viewBox="0 0 60 41"><rect width="60" height="40" y=".2" fill="#FAFAFA" rx="5"/><path fill="#004B9F" d="M40.433 8.293c2.144 4.327-1.236 10.358-7.548 13.472-6.314 3.114-13.17 2.131-15.314-2.195S18.806 9.212 25.12 6.098c6.314-3.114 13.17-2.131 15.314 2.195Z"/><path fill="#004DA0" d="M22.68 10.563s7.974 1.951 8.425 8.705c.452.075.452 0 .452 0 .717-2.074 6.654-14.661 13.463-15.984 0 0-7.973-.75-13.915 10.28-3.87-4.234-8.424-3-8.424-3Z"/><path fill="#fff" d="M22.267 10.49s7.973 1.95 8.424 8.704c.452.075.452 0 .452 0S36.107 4.862 44.607 3.211c0 0-7.974-.75-13.916 10.28-3.87-4.234-8.424-3.001-8.424-3.001Z"/><path fill="#fff" d="M28.424 19.555c-3.35-.23-5.982-1.487-5.88-2.805.102-1.32 2.9-2.202 6.25-1.97.055.003.11.01.165.013a9.821 9.821 0 0 0-2.846-.612c-3.15-.217-5.808.955-5.936 2.616-.13 1.663 2.32 3.186 5.47 3.404 1.586.11 3.046-.134 4.123-.614-.435.008-.884 0-1.346-.032Z"/><path fill="#FF1000" d="M20.413 26.82a.61.61 0 0 0-.003-.28.298.298 0 0 0-.16-.207.716.716 0 0 0-.3-.067c-.12-.004-.3-.006-.541-.007h-.094l-.271 1.186h.17c.23.002.392 0 .486-.006a.88.88 0 0 0 .304-.078.613.613 0 0 0 .273-.218.958.958 0 0 0 .136-.323Zm-.183 2.28c.04-.174.037-.31-.008-.408a.448.448 0 0 0-.252-.223.9.9 0 0 0-.324-.055 22.87 22.87 0 0 0-.573-.007l-.25-.001-.32 1.405h.072c.35.001.593 0 .73-.006.135-.004.28-.038.433-.1a.749.749 0 0 0 .324-.243.94.94 0 0 0 .168-.363Zm1.381.029a2.048 2.048 0 0 1-.846 1.256c-.24.166-.489.283-.746.353-.258.07-.572.104-.945.103l-2.147-.005 1.283-5.608 1.895.004c.395.001.69.018.885.05.196.031.371.098.526.198a.765.765 0 0 1 .332.435c.053.18.053.39-.001.625a1.705 1.705 0 0 1-.364.73 1.61 1.61 0 0 1-.65.47l-.007.03c.315.074.546.223.694.448.148.226.178.53.091.91ZM24.4 29.628l.202-.881c-.22.022-.397.04-.532.057a1.992 1.992 0 0 0-.412.095c-.12.04-.219.1-.3.182a.665.665 0 0 0-.166.325c-.045.199-.025.335.06.41.085.074.228.111.427.112a.93.93 0 0 0 .357-.079 1.43 1.43 0 0 0 .364-.22Zm-.15.655-.279.203a2.242 2.242 0 0 1-.677.311c-.114.03-.267.045-.459.044-.358 0-.626-.127-.805-.378-.18-.252-.225-.569-.138-.95.072-.314.19-.568.354-.76.165-.194.373-.346.624-.46a3.14 3.14 0 0 1 .873-.238c.328-.045.677-.08 1.048-.103l.005-.023c.053-.233.008-.395-.136-.485-.144-.089-.38-.134-.71-.135-.149 0-.33.027-.542.083a4.906 4.906 0 0 0-.633.216h-.108l.233-1.021a7.05 7.05 0 0 1 .637-.133c.29-.05.577-.076.86-.075.697.002 1.177.124 1.44.367.262.244.337.614.223 1.11l-.659 2.879-1.253-.003.102-.449ZM30.125 30.841l-1.268-.003.48-2.098c.04-.17.072-.34.097-.51.026-.17.03-.295.012-.375a.3.3 0 0 0-.14-.206.645.645 0 0 0-.314-.063.98.98 0 0 0-.327.06c-.115.04-.243.103-.383.19l-.686 3-1.261-.004.968-4.23 1.26.003-.106.468a4.21 4.21 0 0 1 .702-.429c.22-.102.448-.153.686-.152.413 0 .697.137.854.41.156.273.175.669.056 1.186l-.63 2.753ZM33.018 30.841c-.334 0-.63-.045-.887-.134a1.448 1.448 0 0 1-.63-.408 1.406 1.406 0 0 1-.313-.693c-.05-.277-.031-.605.055-.981.093-.404.233-.748.42-1.032a2.69 2.69 0 0 1 .657-.7c.243-.175.51-.304.801-.387.292-.084.586-.125.881-.124.224 0 .441.028.652.082.211.055.416.141.615.26l-.258 1.13h-.163a1.844 1.844 0 0 0-.148-.167 1.191 1.191 0 0 0-.48-.3 1.165 1.165 0 0 0-.374-.056c-.321 0-.598.116-.828.35-.23.235-.39.55-.481.947-.097.424-.076.741.065.95.141.209.368.314.68.314.159 0 .302-.018.43-.055.13-.038.243-.083.342-.135.096-.053.18-.107.253-.164a5.85 5.85 0 0 0 .19-.152h.163l-.259 1.13-.276.113c-.105.043-.21.077-.315.105a2.635 2.635 0 0 1-.793.107ZM38.023 28.606a2.8 2.8 0 0 0 .084-.628.985.985 0 0 0-.072-.401.448.448 0 0 0-.202-.221.692.692 0 0 0-.307-.063.919.919 0 0 0-.319.054.83.83 0 0 0-.3.208 1.551 1.551 0 0 0-.265.403 3.09 3.09 0 0 0-.212.644c-.06.259-.087.468-.082.627.004.16.028.288.07.383.046.098.113.17.204.215.09.046.197.068.32.069a.885.885 0 0 0 .62-.27c.1-.108.185-.238.258-.39.074-.151.141-.361.203-.63Zm1.295-.005c-.16.696-.467 1.243-.922 1.643-.456.4-1.016.599-1.682.597-.66-.001-1.128-.203-1.403-.604-.274-.402-.332-.95-.173-1.646.161-.703.47-1.253.927-1.65.458-.397 1.017-.595 1.678-.593.663.001 1.13.203 1.404.604.273.401.33.951.17 1.65ZM17.572 35.033l-.125-1.85-.97 1.848 1.095.002ZM14 37.188l3.096-5.604 1.47.003.529 5.613-1.387-.003-.074-1.146-1.686-.004-.597 1.144L14 37.188ZM24.486 31.596 21.358 37.2l-1.405-.003-.562-5.613 1.399.003.297 3.804 2.037-3.798 1.362.003ZM30.6 31.648 27.502 37.2l-1.392-.003-.556-5.561 1.385.003.295 3.769 2.018-3.763 1.35.003ZM32.131 32.413l-1.32-.004.233-1.018 1.32.003-.233 1.019Zm-1.13 4.787-1.25-.003.959-4.19 1.249.002L31 37.2ZM33.206 37.2l-1.25-.003 1.33-5.806 1.249.003-1.329 5.806ZM35.412 37.2l-1.25-.003 1.33-5.806 1.249.003-1.329 5.806ZM38.828 35.998l.2-.873c-.217.022-.392.041-.527.057-.134.016-.27.047-.407.094a.737.737 0 0 0-.297.18.658.658 0 0 0-.165.323c-.045.197-.025.331.06.405.084.074.224.11.422.111a.92.92 0 0 0 .354-.078c.126-.051.246-.125.36-.219Zm-.148.65-.276.2a2.207 2.207 0 0 1-.67.308c-.114.03-.265.045-.456.044-.354 0-.62-.125-.798-.375-.177-.25-.223-.563-.136-.941.071-.311.188-.562.35-.753.163-.192.37-.343.62-.454.251-.114.54-.193.864-.237.324-.044.67-.078 1.038-.102l.005-.023c.053-.231.008-.391-.135-.48-.143-.089-.377-.133-.703-.134a2.15 2.15 0 0 0-.537.082c-.21.056-.42.127-.627.214h-.108l.232-1.012c.132-.037.342-.08.63-.13.288-.051.572-.076.853-.075.69.001 1.165.123 1.425.363.26.241.335.608.222 1.1l-.652 2.852-1.243-.003.102-.445ZM41.94 37.2c-.295 0-.567-.034-.814-.102a2.437 2.437 0 0 1-.598-.237l.253-1.105h.103l.168.158c.063.057.155.117.277.18.103.057.223.106.36.148.138.041.291.062.463.063.176 0 .338-.028.485-.085.148-.057.236-.147.264-.272.023-.097.008-.17-.042-.22-.05-.05-.16-.098-.328-.143a5.26 5.26 0 0 0-.342-.08 2.689 2.689 0 0 1-.363-.1c-.291-.104-.493-.255-.605-.456-.112-.2-.131-.464-.057-.79a1.44 1.44 0 0 1 .244-.528c.12-.165.275-.312.464-.44.188-.127.408-.228.66-.302.251-.074.524-.11.82-.11.28.001.532.03.754.09.222.059.405.13.548.212l-.242 1.06h-.1a2.062 2.062 0 0 0-.408-.292 1.503 1.503 0 0 0-.324-.125 1.5 1.5 0 0 0-.387-.05c-.18 0-.341.033-.48.097-.14.064-.223.15-.247.257-.022.095-.008.17.041.224.05.055.172.109.367.161.1.028.218.055.351.081.133.027.26.063.378.108.265.098.45.24.557.429.105.188.123.438.052.748a1.54 1.54 0 0 1-.261.562 1.742 1.742 0 0 1-.478.449 2.488 2.488 0 0 1-.675.304 3.09 3.09 0 0 1-.858.106Z"/></svg>