<svg xmlns="http://www.w3.org/2000/svg" fill="none" viewBox="0 0 60 41"><path fill="#000" fill-rule="evenodd" d="M55 40.2H5c-2.5 0-5-2.5-5-5v-30c0-2.5 2.5-5 5-5h50c2.5 0 5 2.5 5 5v30c0 2.5-2.5 5-5 5Z" clip-rule="evenodd"/><g fill="#fff" clip-path="url(#a)"><path d="M37.416 5.204A112.837 112.837 0 0 0 20.33 8.467c-.36.115-.66.353-.846.668a1.404 1.404 0 0 0-.158 1.04l1.041 3.885c.177.658.874.995 1.58.773 5.754-1.69 11.526-2.854 17.485-3.699.678-.088 1.05-.764.799-1.44-.52-1.422-.79-2.134-1.33-3.556a1.407 1.407 0 0 0-.577-.709 1.51 1.51 0 0 0-.91-.225Zm4.87 8.642c-9.11 1.12-17.995 3.272-26.407 6.837-.308.157-.556.401-.71.7a1.521 1.521 0 0 0-.146.963l.837 4.179c.14.711.837 1.031 1.524.711 8.552-3.743 17.578-6.135 26.845-7.557.595-.09.892-.73.67-1.396l-1.181-3.441c-.223-.64-.837-1.067-1.432-.996Zm-.12 9.282c-5.69 1.183-11.248 2.606-16.77 4.42a1.407 1.407 0 0 0-.776.632c-.168.296-.216.64-.134.968l1.106 3.876c.205.73 1.069 1.103 1.86.81a171.12 171.12 0 0 1 16.75-4.855c.547-.125.817-.738.613-1.37-.372-1.16-.75-2.319-1.134-3.476-.233-.684-.893-1.129-1.516-1.005Z"/><path d="M20.33 8.467a112.837 112.837 0 0 1 17.086-3.263c.32-.023.64.056.91.225.268.169.471.418.577.709.539 1.422.809 2.134 1.329 3.556.251.676-.12 1.351-.8 1.44-5.958.845-11.73 2.01-17.484 3.7-.706.221-1.403-.116-1.58-.774l-1.041-3.886a1.404 1.404 0 0 1 .158-1.039c.185-.315.487-.553.846-.668ZM15.879 20.683c8.412-3.565 17.298-5.716 26.407-6.837.595-.07 1.209.356 1.432.996l1.18 3.44c.223.668-.074 1.308-.669 1.397-9.267 1.422-18.293 3.814-26.845 7.557-.688.32-1.385 0-1.524-.711l-.837-4.179a1.521 1.521 0 0 1 .147-.963c.153-.299.401-.543.709-.7ZM25.397 27.547c5.521-1.813 11.08-3.236 16.768-4.419.623-.124 1.283.32 1.516 1.005.384 1.157.762 2.316 1.134 3.477.204.63-.066 1.244-.614 1.369a171.12 171.12 0 0 0-16.75 4.854c-.79.294-1.654-.08-1.859-.809l-1.106-3.876a1.308 1.308 0 0 1 .134-.968c.168-.296.445-.52.777-.633Z"/></g><defs><clipPath id="a"><path fill="#fff" d="M15 5.2h30v30H15z"/></clipPath></defs></svg>