<svg xmlns="http://www.w3.org/2000/svg" fill="none" viewBox="0 0 60 41"><rect width="60" height="40" y=".2" fill="#072146" rx="5"/><path fill="#fff" d="M13.43 20.848c.171.06.37.149.595.267.396.24.735.566 1.02.981.34.595.51 1.308.51 2.139 0 2.853-1.644 4.279-4.929 4.279h-6.37c-.17 0-.256-.09-.256-.268V14.518c0-.18.085-.268.255-.268h6.713c1.19 0 2.152.343 2.888 1.025.736.684 1.105 1.59 1.105 2.72 0 .654-.142 1.233-.424 1.738-.284.506-.653.877-1.106 1.114Zm-2.887 5.615c.962 0 1.67-.163 2.123-.49.452-.326.68-.891.68-1.693 0-.803-.228-1.366-.68-1.694-.453-.327-1.162-.49-2.123-.49H6.549c-.227 0-.34.09-.34.268v3.834c0 .179.113.268.34.268h3.994v-.003ZM6.549 16.301c-.17 0-.255.089-.255.268v3.208c0 .179.085.268.255.268h3.908c1.472 0 2.21-.623 2.21-1.872s-.738-1.872-2.21-1.872H6.55Zm20.648 4.547c.17.06.34.149.51.267.451.24.792.566 1.02.981.395.595.593 1.308.593 2.139 0 2.853-1.643 4.279-4.928 4.279H18.02c-.17 0-.255-.09-.255-.268V14.518c0-.18.085-.268.255-.268h6.713c1.133 0 2.08.343 2.847 1.025.765.684 1.148 1.59 1.148 2.72 0 .654-.143 1.233-.425 1.738-.286.506-.654.877-1.106 1.114ZM20.229 16.3c-.17 0-.256.089-.256.268v3.208c0 .179.085.268.256.268h3.993c1.472 0 2.209-.623 2.209-1.872s-.737-1.872-2.209-1.872H20.23Zm4.078 10.162c.963 0 1.67-.163 2.124-.49.452-.326.68-.891.68-1.693 0-.803-.228-1.366-.68-1.694-.454-.327-1.163-.49-2.124-.49H20.23c-.17 0-.256.09-.256.268v3.834c0 .179.085.268.256.268h4.078v-.003Zm17.164-12.035c.056-.118.113-.178.17-.178h2.209c.056 0 .113.03.17.089.056.06.056.12 0 .178l-7.052 13.908a.28.28 0 0 1-.213.089.278.278 0 0 1-.212-.09l-3.526-6.953-3.526-6.954c-.058-.058-.072-.118-.043-.178.028-.059.099-.09.213-.09h2.124c.113 0 .198.06.255.18l4.503 8.914c0 .06.055.09.17.09.113 0 .198-.03.255-.09l4.503-8.915Zm2.549 11.858c-.057.12-.142.178-.255.178h-2.21c-.056 0-.099-.029-.127-.089a.393.393 0 0 1-.042-.178l7.053-13.907c.056-.059.14-.09.255-.09.113 0 .198.031.256.09L56 26.197c0 .06-.015.12-.043.178-.029.06-.072.09-.127.09H53.62c-.114 0-.2-.059-.255-.18l-4.42-8.914c-.056-.119-.142-.179-.255-.179-.114 0-.2.06-.255.179l-4.416 8.915Z"/></svg>