<svg xmlns="http://www.w3.org/2000/svg" fill="none" viewBox="0 0 60 41"><rect width="60" height="40" y=".2" fill="#003598" rx="5"/><path fill="url(#a)" d="M30.357 4.248c-5.936.097-10.81 4.246-11.052 9.89-.193 5.693 4.199 10.469 9.893 10.662 2.896.096 5.55-.965 7.48-2.847 1.883-1.785 1.786-4.92.29-3.521a8.853 8.853 0 0 1-6.418 2.412c-4.778-.193-8.446-4.004-8.3-8.587.144-4.246 4.343-7.574 8.107-7.767l.096-.29h-.193l.097.048Z"/><path fill="#FFE400" d="M31.177 4.537c4.778.29 8.735 4.342-5.212 8.443 3.523.675 6.177 2.364 6.177 2.364 11.92-6.03 5.116-11.096-1.592-11.096l-.097.29h.724Z"/><path fill="url(#b)" d="M25.869 12.932c3.137.386 9.796 3.955 10.376 7.333 0-.049-.194-1.4-.194-1.4-.482-3.183.194-6.271 5.068-6.56-2.365-1.11-4.44-1.544-6.274-1.544-3.764 0-6.66 1.64-8.976 2.122v.049Z"/><path fill="url(#c)" d="M36.196 19.975c.049.145.338 1.447-.337 2.75-.87 1.495-2.269 2.605-4.971 3.328 6.95.338 14.912-6.367 7.721-12.784-3.04 1.255-2.702 4.68-2.413 6.706Z"/><path fill="#fff" d="M20.018 34.105c-.34.105-.602.13-.838.13-.655 0-.786-.575-.786-1.047 0-.733.262-1.1.786-1.1.262 0 .445.053.445.053l.472.183v-.603l-.053-.026a2.53 2.53 0 0 0-1.021-.236c-.944 0-1.546.682-1.546 1.73 0 .995.602 1.675 1.467 1.675.393 0 .733-.078 1.258-.314l.078-.026-.13-.445-.106.026h-.026ZM9.04 32.402c.419-.183.602-.471.602-.969 0-.471-.236-.864-.629-1.021-.288-.105-.55-.158-1.336-.158H6v.472s.42.052.524.078v3.982H7.86c.655 0 .944-.053 1.232-.184.445-.21.707-.628.707-1.126 0-.576-.262-.943-.786-1.1l.026.026Zm-1.573-1.545h.262c.341 0 .63 0 .786.13a.632.632 0 0 1 .184.446c0 .445-.131.629-.681.681l-.393.052-.184.289V30.83l.026.026Zm1.075 3.195c-.21.157-.524.184-.917.184h-.158v-1.493h.341c.34 0 .603 0 .786.157a.767.767 0 0 1 .236.55.767.767 0 0 1-.262.602h-.026ZM35.634 32.402c.42-.183.603-.471.603-.969 0-.471-.236-.864-.629-1.021-.288-.105-.55-.158-1.336-.158h-1.677v.472s.42.052.524.078v3.982h1.336c.655 0 .944-.053 1.232-.184.445-.21.707-.628.707-1.126 0-.576-.262-.943-.786-1.1l.026.026Zm-1.572-1.545h.262c.34 0 .63 0 .786.13a.631.631 0 0 1 .184.446c0 .445-.131.629-.681.681l-.394.052-.183.289V30.83l.026.026Zm1.075 3.195c-.21.157-.525.184-.918.184h-.157v-1.493h.341c.34 0 .602 0 .786.157.157.13.236.314.236.55a.767.767 0 0 1-.262.602h-.026ZM16.088 31.486c-.288 0-.629.105-1.022.262 0-.079-.026-.262-.026-.262l-1.363.183v.472h.498v2.671h.89v-2.488c.132-.052.42-.131.682-.131.131 0 .236.026.288.079.079.078.079.261.079.445v2.095h.917v-2.121c0-.498-.026-.655-.183-.865-.184-.235-.446-.34-.786-.34h.026ZM22.01 31.486c-.996 0-1.625.655-1.625 1.702 0 1.048.602 1.703 1.624 1.703.996 0 1.625-.655 1.625-1.703 0-1.047-.603-1.702-1.625-1.702Zm0 2.802c-.289 0-.682-.104-.682-1.1 0-.969.34-1.1.681-1.1.288 0 .681.105.681 1.1 0 .97-.34 1.127-.68 1.127v-.027ZM45.565 31.486c-.996 0-1.625.655-1.625 1.702 0 1.048.603 1.703 1.625 1.703.995 0 1.624-.655 1.624-1.703 0-1.047-.602-1.702-1.624-1.702Zm0 2.802c-.288 0-.681-.104-.681-1.1 0-.969.34-1.1.68-1.1.289 0 .682.105.682 1.1 0 .97-.34 1.127-.681 1.127v-.027ZM49.338 34.183l-.629.105c-.131 0-.184-.026-.21-.078-.026-.027-.026-.053-.026-.315V32.14h.891v-.55h-.89v-.864h-.106l-.786.079v3.09c0 .34.026.55.184.734.13.157.34.262.655.262.288 0 .629-.079.97-.21l.078-.026-.131-.445v-.027ZM38.49 31.486c-.995 0-1.624.655-1.624 1.702 0 1.048.602 1.703 1.624 1.703.996 0 1.625-.655 1.625-1.703 0-1.047-.603-1.702-1.625-1.702Zm0 2.802c-.288 0-.681-.104-.681-1.1 0-.969.34-1.1.681-1.1.288 0 .681.105.681 1.1 0 .97-.34 1.127-.68 1.127v-.027ZM42.656 31.748a1.298 1.298 0 0 0-.707-.184c-.89 0-1.546.708-1.546 1.73 0 .968.498 1.57 1.31 1.57.21 0 .42-.052.891-.261v.262c0 .55-.21.733-.917.733-.314 0-.76-.052-1.074-.13v.55c.68.156.943.182 1.284.182.445 0 .812-.078 1.074-.21.393-.209.55-.497.55-1.073v-3.3h-.89v.13h.025Zm-.026 2.41c-.157.026-.262.026-.419.026-.55 0-.838-.34-.838-.996 0-.68.34-1.074.917-1.074.104 0 .183 0 .34.027v2.016ZM13.232 31.617h-.891v.13a1.556 1.556 0 0 0-.681-.183c-.891 0-1.52.708-1.52 1.73 0 .968.498 1.57 1.284 1.57.21 0 .471-.104.89-.34v.288h.027l1.258-.13v-.525h-.367v-2.54Zm-.891 2.567c-.157.026-.288.026-.42.026-.55 0-.864-.367-.864-1.022 0-.68.34-1.074.943-1.074.105 0 .184 0 .34.027V34.184ZM52.692 31.617H51.8v.13a1.556 1.556 0 0 0-.681-.183c-.891 0-1.52.708-1.52 1.73 0 .968.498 1.57 1.284 1.57.21 0 .471-.104.89-.34v.288l1.285-.13v-.525h-.367v-2.54Zm-.891 2.567c-.157.026-.288.026-.42.026-.55 0-.864-.367-.864-1.022 0-.68.34-1.074.943-1.074.105 0 .184 0 .34.027V34.184ZM51.958 30.15l-1.415.576.131.42 1.599-.341-.21-.681-.105.026ZM27.957 30.045H27.8l-1.18.157v.393h.446v1.048c-.367-.131-.838-.21-1.31-.079-.629.21-.97.76-.995 1.598-.027.733.366 1.336.969 1.545.445.158 1.048-.026 1.363-.183v.262l1.205-.157v-.393h-.393l.026-4.217.026.026Zm-.89 4.086c-.42.105-.865.184-1.154-.157-.157-.21-.21-.498-.21-.812v-.105c0-.34.106-.55.263-.76.288-.313.76-.261 1.1-.078 0 0-.026 1.86-.026 1.938l.026-.026ZM30.106 31.486c-.21 0-.393.026-.577.078-.655.21-1.048.786-1.048 1.624-.026.76.393 1.388 1.022 1.598.576.183 1.415-.026 1.939-.314l.026-.027-.157-.471-.288.105c-.42.13-.97.34-1.337-.079-.183-.21-.21-.55-.21-.812l1.756.026h.262v-.262c0-1.519-1.336-1.492-1.388-1.492v.026Zm-.63 1.257c0-.053.027-.707.63-.707.602 0 .602.654.602.707h-1.231Z"/><defs><linearGradient id="b" x1="37.202" x2="35.774" y1="10.78" y2="19.08" gradientUnits="userSpaceOnUse"><stop stop-color="#F1B900"/><stop offset="1" stop-color="#FFE700"/></linearGradient><linearGradient id="c" x1="38.517" x2="36.16" y1="13.486" y2="26.065" gradientUnits="userSpaceOnUse"><stop stop-color="#F8B800"/><stop offset=".161" stop-color="#FFE400"/></linearGradient><radialGradient id="a" cx="0" cy="0" r="1" gradientTransform="matrix(-13.77407 3.69359 -3.37444 -12.58392 33.073 15.717)" gradientUnits="userSpaceOnUse"><stop stop-color="#9E0600"/><stop offset="1" stop-color="#DD0C00"/></radialGradient></defs></svg>