<svg xmlns="http://www.w3.org/2000/svg" fill="none" viewBox="0 0 60 41"><rect width="60" height="40" y=".2" fill="#E20E00" rx="5"/><path fill="#E20E00" fill-rule="evenodd" d="M22.956 15.542c.043.351.011 1.817-1.424 3.828-1.482 2.22.862 5.925 5.584 4.984a8.95 8.95 0 0 0 2.88.396c.727 0 1.859-.039 2.893-.39 4.723.942 7.053-2.771 5.57-4.99-1.424-2.01-1.46-3.477-1.424-3.828H22.956Z" clip-rule="evenodd"/><path fill="#006EBF" fill-rule="evenodd" d="M29.997 24.734c-4.613-.112-5.451-2.124-4.177-2.548.74-.248 1.715-.658 1.715-.658-.49-2.272.32-5.169 2.474-5.169 2.154 0 2.942 2.99 2.453 5.216 0 0 .982.338 1.712.61 1.201.447.434 2.434-4.177 2.549Z" clip-rule="evenodd"/><path fill="#FFE400" fill-rule="evenodd" d="M28.26 23.144c-1.225-3.246-.151-6.29 1.739-6.286 1.8.012 3.025 2.961 1.75 6.281a9.597 9.597 0 0 0-1.813-.13c-.561.003-1.122.048-1.676.135Z" clip-rule="evenodd"/><path fill="#F49400" fill-rule="evenodd" d="M29.997 24.764c1.86 0 3.32-.378 3.32-.904 0-.527-1.46-.905-3.32-.905-1.86 0-3.32.378-3.32.905 0 .526 1.462.904 3.32.904Z" clip-rule="evenodd"/><path fill="#000" fill-rule="evenodd" stroke="#006EBF" stroke-width=".2" d="M23.857 17.142h2.232c.353 0 .639.272.639.607v1.425c0 .161-.068.315-.187.43a.658.658 0 0 1-.452.176h-2.232a.666.666 0 0 1-.453-.178.581.581 0 0 1-.186-.424v-1.426a.59.59 0 0 1 .185-.431.673.673 0 0 1 .454-.18Z" clip-rule="evenodd"/><path fill="#231F20" fill-rule="evenodd" d="M23.63 17.943a.445.445 0 0 1 .136-.327.498.498 0 0 1 .342-.137h1.78c.128.001.25.05.34.136.09.086.14.201.14.321v1.043a.468.468 0 0 1-.48.455h-1.78a.507.507 0 0 1-.341-.132.444.444 0 0 1-.142-.323l.004-1.036Z" clip-rule="evenodd"/><path fill="#FFE000" fill-rule="evenodd" d="M26.361 18.724c-.797-.076-1.068-.961-1.143-1.238h.67c.128.001.25.05.34.136.09.085.14.201.14.321l-.007.781Zm-1.577-1.245c-.051.252-.304 1.201-1.153 1.242v-.776a.444.444 0 0 1 .136-.327.482.482 0 0 1 .34-.139h.677Z" clip-rule="evenodd"/><path fill="#000" fill-rule="evenodd" stroke="#006EBF" stroke-width=".2" d="M33.907 17.142h2.234c.353 0 .64.272.64.607v1.425c0 .16-.066.314-.186.427a.668.668 0 0 1-.454.18h-2.235a.658.658 0 0 1-.451-.178.59.59 0 0 1-.188-.429v-1.422a.59.59 0 0 1 .186-.431.673.673 0 0 1 .454-.18Z" clip-rule="evenodd"/><path fill="#231F20" d="M35.45 17.487h-.805a1 1 0 0 0-.682.264.872.872 0 0 0-.282.637v.153c0 .498.432.901.965.901h.804c.532 0 .964-.403.964-.9v-.154c0-.497-.431-.9-.964-.9Z"/><path fill="#FFE000" fill-rule="evenodd" d="M36.415 18.724c-.8-.076-1.068-.961-1.143-1.238h.66a.47.47 0 0 1 .483.457v.781Zm-1.579-1.245c-.051.252-.304 1.201-1.153 1.242v-.776a.444.444 0 0 1 .137-.329.506.506 0 0 1 .343-.137h.673Z" clip-rule="evenodd"/><path fill="#616161" fill-rule="evenodd" d="M34.608 10.056c-.238-.757-.277-1.14.456-1.142h1.62c.977-.017.573.707.478 1.415-.063.404-.104.81-.124 1.217 0 0-2.417-1.49-2.43-1.49Z" clip-rule="evenodd"/><path fill="#F49400" fill-rule="evenodd" d="M29.992 15.47c-2.405 0-5.715.199-7.831.354-1.64.12-2.901-1.058-1.814-2.171 2.309-2.37 7.952-5.367 9.66-5.367 1.818 0 7.353 2.997 9.663 5.367 1.086 1.113-.01 2.173-1.645 2.173-1.826-.002-5.63-.353-8.033-.356Z" clip-rule="evenodd"/><path fill="#231F20" d="M31.606 21.143c.1 0 .198-.038.269-.105a.344.344 0 0 0 .111-.25.344.344 0 0 0-.111-.252.394.394 0 0 0-.27-.104c-.1 0-.197.037-.268.104a.344.344 0 0 0-.111.251c0 .095.04.185.111.252a.394.394 0 0 0 .269.104Z"/><path fill="#231F20" fill-rule="evenodd" d="M30 22.91c-.58 0-1.159.046-1.731.137-1.136-3.159-.096-6.135 1.732-6.135 1.827 0 2.876 2.98 1.733 6.135A10.61 10.61 0 0 0 30 22.91Zm1.693.248c.945.143 1.578.405 1.578.703 0 .457-1.464.827-3.267.827s-3.273-.37-3.273-.827c0-.298.63-.56 1.577-.705 0 0 1.03-.116 1.693-.116.662 0 1.692.118 1.692.118Zm.14-.096c1.2-3.277.036-6.287-1.833-6.28-1.868.007-3.025 3.003-1.83 6.28-.928.168-1.54.463-1.54.8a.406.406 0 0 0 .178.305c-1.556-.648-1.7-1.706-.85-1.991a72.22 72.22 0 0 0 1.638-.58c-.477-2.206.258-5.166 2.403-5.166 2.144 0 2.88 2.96 2.404 5.166 0 0 .89.337 1.637.58.835.263.712 1.328-.838 1.982a.404.404 0 0 0 .17-.297c0-.335-.613-.63-1.538-.8Zm2.9-13.053c-.187-.693-.189-.98.443-.98h1.39c.922-.017.543.66.461 1.329-.043.327-.075.656-.096.985a34.87 34.87 0 0 0-2.198-1.334ZM33.12 24.33c4.428.712 6.596-2.81 5.176-4.94-1.093-1.536-1.353-2.835-1.395-3.495-2.903-.145-4.902-.272-6.9-.306-2 .028-3.998.16-6.902.306-.041.66-.303 1.959-1.394 3.495-1.423 2.13.746 5.652 5.176 4.94-1.881-.674-2.111-1.825-1.107-2.193a89.1 89.1 0 0 1 1.715-.609c-.49-2.27.356-5.269 2.511-5.264 2.156.005 3.007 2.993 2.512 5.264 0 0 .984.338 1.715.61 1.004.365.773 1.518-1.107 2.192Zm-3.118-9.023c-2.491.032-4.862.2-7.652.37-1.729.104-2.699-.989-1.602-2.119 1.601-1.663 7.081-5.09 9.254-5.09 2.173 0 7.653 3.427 9.255 5.09 1.089 1.13.119 2.223-1.602 2.119-2.796-.17-5.158-.338-7.653-.37Zm4.409-5.476-.059-.202c-.121-.409-.014-.864.731-.864h1.613c.95 0 .845.621.683 1.225a8.51 8.51 0 0 0-.249 1.49s1.32.92 2.052 1.504c2.314 1.856.804 3.057-1.397 2.951l-.651-.032c.014.617.206 1.75 1.222 3.037 2.56 2.9-.829 6.544-5.616 5.518-.79.255-2.047.37-2.74.37-.692 0-1.957-.115-2.737-.365-4.787 1.026-8.186-2.617-5.616-5.518 1.016-1.29 1.206-2.423 1.222-3.037l-.651.032c-2.203.103-3.715-1.107-1.4-2.954C24.247 10.245 28.4 8.2 30 8.2c.87 0 2.532.621 4.41 1.631Z" clip-rule="evenodd"/><path fill="#fff" fill-rule="evenodd" d="M4.295 31.637c1.02.203 3.536.142 3.595-1.422 0-.63-.852-1.213-1.664-1.381-.995-.207-1.633-.21-2.642 0-.62.225-.814-.353-.248-.55 1.073-.37 5.253-.45 5.451 1.93-.174 2.348-3.823 2.18-4.647 2.025-.325-.062-.573-.203-.573-.6v-1.952c0-.464.728-.46.728 0v1.95Zm7.853-2.761c-.813 0-2.186 2.355-2.586 3.198-.241.506-1.005.145-.762-.36.432-.908 2.064-3.647 3.344-3.623 1.277-.024 2.91 2.715 3.345 3.623.24.505-.522.866-.763.36-.409-.843-1.766-3.198-2.578-3.198Zm5.692 2.656c.813 0 2.185-2.354 2.587-3.197.24-.505 1.003-.146.762.36-.433.907-2.064 3.648-3.344 3.623-1.277.025-2.909-2.715-3.344-3.623-.242-.506.52-.865.762-.36.406.844 1.764 3.197 2.577 3.197Zm4.72-3.037v3.428c0 .514-.813.493-.813-.02v-3.417c-.003-.53.814-.533.814.01Zm3.909 3.037c.813 0 2.184-2.354 2.586-3.197.241-.505 1.002-.146.761.36-.434.907-2.06 3.648-3.34 3.623-1.278.025-2.91-2.715-3.344-3.623-.241-.506.52-.865.76-.36.406.844 1.763 3.197 2.577 3.197Zm6.28-.975c.24.48.924.87 1.584 1.008.994.206 1.634.209 2.642 0 .602-.186.813.367.242.549-1.118.356-5.224.486-5.465-1.898.135-2.272 3.415-2.213 4.666-2.056.612.077.487.69-.152.563-.84-.107-3.115-.23-3.56 1.2h2.336c.362 0 .362.637 0 .637l-2.293-.003Zm13.009 1.08c1.02.203 3.537.142 3.596-1.422 0-.63-.853-1.213-1.666-1.381-.994-.207-1.632-.21-2.64 0-.622.225-.814-.353-.25-.55 1.075-.37 5.255-.45 5.452 1.93-.174 2.348-3.823 2.18-4.647 2.025-.324-.062-.572-.203-.572-.6v-1.952c0-.464.729-.46.729 0l-.002 1.95Zm7.854-2.761c-.813 0-2.183 2.355-2.587 3.198-.24.506-1.002.145-.76-.36.431-.908 2.065-3.647 3.344-3.623 1.277-.024 2.908 2.715 3.344 3.623.242.505-.52.866-.761.36-.409-.843-1.766-3.198-2.58-3.198Zm-22.422-.38v3.427c0 .514-.818.493-.818-.02v-3.417c-.004-.53.818-.533.818.01Zm9.823 2.408c-.506-.877-1.062-2.04-1.446-2.064-.94 0-.515 1.76-.532 3.134-.007.484-.814.484-.814-.054 0-1.753-.396-3.844 1.37-3.844.517 0 1.006.733 1.446 1.424.505.878 1.107 2.044 1.49 2.068.941 0 .494-1.727.51-3.1.005-.487.813-.486.813.053.003 1.754.422 3.81-1.344 3.81-.517 0-1.053-.736-1.493-1.427Z" clip-rule="evenodd"/></svg>