<svg xmlns="http://www.w3.org/2000/svg" fill="none" viewBox="0 0 60 40"><path fill="#16243F" fill-rule="evenodd" d="M55 40H5c-2.5 0-5-2.5-5-5V5c0-2.5 2.5-5 5-5h50c2.5 0 5 2.5 5 5v30c0 2.5-2.5 5-5 5Z" clip-rule="evenodd"/><path fill="#0994DC" d="M40.392 17.29 30.2 7 20 17.29l2.369 2.391 7.83-7.895 5.452 5.504-5.453 5.5-2.325-2.344-2.375 2.389 4.7 4.741L40.392 17.29"/><path fill="#0994DC" d="M20 22.71 30.194 33l10.2-10.29-2.373-2.392-7.828 7.893-5.452-5.501 5.453-5.5 2.326 2.342 2.37-2.393-4.697-4.735L20 22.71Z"/></svg>