<svg xmlns="http://www.w3.org/2000/svg" fill="none" viewBox="0 0 60 40"><path fill="#FAFAFA" d="M0 5a5 5 0 0 1 5-5h50a5 5 0 0 1 5 5v30a5 5 0 0 1-5 5H5a5 5 0 0 1-5-5V5Z"/><path fill="#7BC126" d="M30 34c-7.235 0-13.888-1.294-18.744-3.642C6.008 27.82 3 24.14 3 20.003c0-3.864 3.001-7.436 8.236-10.076C16.265 7.396 22.93 6 30 6c7.235 0 13.888 1.294 18.744 3.648C53.992 12.186 57 15.866 57 20.003c0 3.858-3.002 7.43-8.236 10.07C43.735 32.604 37.076 34 30 34Z"/><path fill="#fff" d="M53.177 22.51a.487.487 0 0 0-.669.025 1.094 1.094 0 0 1-.947.343c-.371-.057-.696-.304-.901-.704a5.12 5.12 0 0 1-.126-.28c.159-.564.185-1.11.185-1.44 0-1.307-.305-1.49-.636-1.49-.159 0-.331.076-.47.272-.676-.317-1.418-.368-2.074-.082a2.566 2.566 0 0 0-1.491 1.84c-.1.501-.08.977.053 1.402-.55.47-1.305.615-1.849.4a1.448 1.448 0 0 1-.324-.172c.563-1.656.742-3.794.503-6.211-.192-1.98-.795-3.11-1.656-3.11h-.033c-.868.026-1.398 1.193-1.458 3.205-.086 2.976.464 5.209 1.537 6.383-.252.584-.563 1.079-.934 1.466-.596.628-1.319.951-2.147.951-.834 0-1.59-.33-2.18-.951-.324-.343-.656-.838-.927-1.536 1.02-1.11 1.703-3.122 1.848-5.717.113-2.05-.43-3.47-1.358-3.54-.954-.07-1.63 1.25-1.882 3.718-.238 2.322-.06 4.029.312 5.279-.298.21-.623.323-.96.323-.564 0-1.054-.228-1.372-.685a2.719 2.719 0 0 1-.358-.793 6.773 6.773 0 0 0 .185-1.516c0-.33 0-1.206-.649-1.206-.47 0-.676.438-.676 1.428 0 .304.027.78.152 1.3a3.357 3.357 0 0 1-.457 1.003c-.251.349-.53.514-.868.514-.39 0-.682-.146-.907-.457a2.256 2.256 0 0 1-.285-.59 5.815 5.815 0 0 0 .198-1.51c0-1.04-.205-1.504-.675-1.504-.232 0-.656 0-.656 1.663 0 .507.06 1.053.172 1.408-.152.489-.59.958-1.186.958-.954 0-1.16-.907-1.212-1.294-.08-.68-.02-1.161.013-1.485.046-.349.073-.66-.186-.875-.252-.216-.576-.134-.682-.108-.696.165-1.299.146-1.716.063-.087-.222-.18-.4-.285-.514-.245-.26-.597-.31-.875-.127-.384.26-.397.616-.291.85.106.216.344.394.662.52.12.73.086 1.885-.517 2.551-.265.292-.655.45-1.04.406-.384-.05-.695-.291-.908-.704a5.278 5.278 0 0 1-.125-.279c.159-.565.192-1.11.192-1.44 0-1.307-.305-1.491-.643-1.491-.166 0-.345.095-.47.273-.69-.318-1.418-.368-2.074-.083A2.542 2.542 0 0 0 15.57 21c-.1.514-.08.996.06 1.421.026.083.059.159.098.241-.523.813-1.861 1.415-3.074 1.415-1.49 0-2.577-.647-3.2-1.897-.775-1.56-.583-3.63.563-4.98 1.127-1.327 2.564-1.637 3.532-1.371.377.108 1.033.406 1.133 1.212.072.603-.226 1.3-.73 1.694a.449.449 0 0 0-.072.647c.166.197.47.228.682.07.756-.59 1.193-1.605 1.08-2.519-.119-.958-.801-1.7-1.822-1.986-1.305-.362-3.14.013-4.552 1.675-1.391 1.637-1.702 4.086-.762 5.99.776 1.567 2.286 2.462 4.148 2.462 1.451 0 2.896-.68 3.658-1.65.37.304.834.47 1.331.47.809 0 1.465-.318 1.922-.933.351.476.841.761 1.404.83a2.161 2.161 0 0 0 1.876-.71c.682-.755.868-1.954.781-2.925.398.038.835.026 1.273-.031.112-.02.159.012.145.126-.033.35-.06.838.014 1.472.152 1.295.974 2.107 2.153 2.107.682 0 1.22-.286 1.63-.838.404.571.98.87 1.703.87.55 0 1.279-.222 1.835-1.206.497.755 1.285 1.149 2.2 1.149.457 0 .888-.121 1.285-.35.298.673.65 1.162.988 1.523.775.819 1.769 1.257 2.882 1.257 1.093 0 2.074-.432 2.849-1.25.384-.4.715-.901.987-1.472.1.057.205.101.311.146.849.33 1.856.152 2.644-.47a2.1 2.1 0 0 0 1.584.71c.808 0 1.47-.317 1.921-.932.345.463.835.761 1.385.831a2.096 2.096 0 0 0 1.782-.628c.186-.203.172-.489-.02-.66Zm-34.367-.108c-.272.387-.656.571-1.16.571a1.12 1.12 0 0 1-.855-.387c-.291-.336-.39-.844-.278-1.421.106-.52.464-.97.94-1.18.193-.083.392-.12.59-.12.285 0 .584.076.875.228a5.076 5.076 0 0 0 .146 1.802c-.06.184-.146.355-.259.507Zm17.379-5.031c.166-1.618.464-2.348.676-2.665.106-.171.271-.159.357.013.18.355.372 1.104.305 2.335-.112 2.017-.556 3.654-1.219 4.67-.225-1.08-.311-2.494-.12-4.353Zm7.003 4.435c-.603-.977-1.033-2.678-.954-5.28.033-1.11.212-1.731.365-2.042.092-.184.258-.19.364-.02.179.312.404.92.517 2.031.205 2.05.093 3.864-.292 5.31Zm6.083.596c-.272.387-.65.571-1.16.571a1.13 1.13 0 0 1-.854-.387c-.292-.336-.391-.844-.279-1.421.106-.52.464-.97.948-1.18a1.44 1.44 0 0 1 .59-.12c.284 0 .576.076.874.228a5.076 5.076 0 0 0 .146 1.802 1.969 1.969 0 0 1-.265.507Z"/></svg>