<svg xmlns="http://www.w3.org/2000/svg" fill="none" viewBox="0 0 60 41"><path fill="#FFD800" d="M0 5.2a5 5 0 0 1 5-5h50a5 5 0 0 1 5 5v30a5 5 0 0 1-5 5H5a5 5 0 0 1-5-5v-30Z"/><path fill="#000" fill-rule="evenodd" d="M13.574 11.493c4.721 0 7.824 3.895 6.93 8.707-.894 4.812-5.45 8.707-10.172 8.707-4.726 0-7.829-3.895-6.935-8.707.9-4.812 5.45-8.707 10.177-8.707Zm2.255 1.128c2.923 1.05 4.619 4.048 3.96 7.58-.765 4.115-4.453 7.504-8.46 7.936-.318-.01-.324-.195-.334-.468.016-.57.036-1.144.052-1.713.005-.085-.026-.111-.062-.122a6.118 6.118 0 0 1-1.218-.263 7.466 7.466 0 0 1-1.304-.717c-.2-.1-.175-.574-.17-.759.036-.337.277-1.122.668-1.16.467-.026.688.227 1.15.46.812.395 1.947.626 2.79.22.406-.252.503-.595.313-1.027-.328-.707-1.905-1.286-2.62-1.64-1.71-.748-2.666-2.266-2.363-4.073.226-1.334 1.444-2.346 2.718-2.53v-.638c-1.572.47-2.769 1.397-3.843 2.477-1.556 1.56-2.47 3.531-2.548 6.05.124 3.084 1.685 4.449 3.319 5.471-2.805-1.112-4.408-4.053-3.766-7.505.786-4.227 4.65-7.684 8.785-7.963.164.1.175.116.262.342-.036.532-.067 1.065-.103 1.597.817.169 1.588.406 2.21.949.02 1.223-.874 1.734-1.213 1.55.015-.059-1.346-.443-1.629-.512a1.682 1.682 0 0 0-1.022.121c-.4.195-.59.485-.4.939.164.337.436.558.734.748.858.474 1.716.954 2.574 1.428.74.427 1.269.98 1.608 1.65.246.664.303 1.338.159 2.024-.17.558-.375 1.043-.689 1.349a3.09 3.09 0 0 1-.857.711c-.437.238-.874.448-1.326.522-.015.285-.026.564-.04.849.035.02.071.01.112 0 .97-.322 1.824-.886 2.656-1.502 1.079-.976 2.086-1.998 2.615-3.32.36-.739.637-1.556.77-2.515.293-2.688-.663-5.218-3.488-6.546ZM29.692 16.854l.016-1.465c-.016-.518.445-1.325 1.076-1.621.582-.272 1.69-.289 2.24.074l-.267 1.16c-1.633-.368-1.633-.06-1.633 1.824v.028h1.787l-.46 1.16-1.328.009v5.465c-.266.033-1.197.05-1.431-.016v-5.44l-.72-.017-.445-1.153 1.165-.008Zm16.5 1.202.017 3.959c.032.378.08.593.154.749.525 1.169 2.345 1.062 3.405.362l-.47-.996a3.633 3.633 0 0 0-.233.102c-.295.137-.633.293-1.02.17-.409-.123-.407-.592-.405-1.077v-3.302l2.937.008 2.362 5.482c.048.239-.478 1.185-.59 1.341-.689.985-1.337.79-1.916.615-.108-.032-.214-.064-.317-.088l-.324 1.186c1.246.485 2.548.304 3.276-.503.647-.715 1.02-1.72 1.424-2.84l2.264-6.37h-1.504l-1.594 4.897c-.119-.133-.815-1.865-1.266-2.985-.162-.402-.291-.725-.351-.866-.308-.725-.752-1.038-1.699-1.046-.592-.005-1.187-.004-1.788-.002l-.913.002v-1.967c-.316.074-1.214.346-1.448.469v1.473l-1.165.017.008 1.177 1.157.033Zm-1.455 4.955c-1.125 1.037-5.298 1.25-5.387-2.659-.033-1.662.914-3.185 2.548-3.572 1.084-.247 1.706-.016 2.564.33v1.267c-.088-.038-.17-.085-.26-.135-.083-.047-.172-.097-.274-.145-.59-.255-1.375-.28-1.941-.016-1.464.683-1.57 3.424-.122 4.148.884.445 1.607.141 2.335-.166l.116-.048c.097.099.38.831.42.996Zm-16.598 0-.405-.971a3.11 3.11 0 0 0-.42.16c-.194.085-.396.173-.688.226-1.286.223-2.45-.386-2.475-1.876h4.182c0-1.49-.259-3.202-1.893-3.72-.752-.247-1.674-.157-2.297.222-2.265 1.382-2.152 6.642 1.82 6.593.76-.009 1.73-.222 2.176-.634Zm9.14.51c-2.305.552-4.182-.609-4.336-3.07-.113-1.942.737-3.786 2.888-3.761 2.2.016 2.775 1.917 2.775 3.86l-4.19.008c.024.922.51 1.54 1.205 1.794.834.294 1.48.034 2.002-.177.136-.055.264-.106.384-.144l.404 1.037c-.15.052-.278.114-.41.178-.203.098-.413.2-.722.275Zm-1.496-5.68c-.906.009-1.31.758-1.383 1.655h2.71c-.009-.88-.454-1.654-1.327-1.654ZM24.127 19.48c.105-.889.437-1.621 1.367-1.638.898-.016 1.327.741 1.367 1.655l-2.734-.017Z" clip-rule="evenodd"/></svg>