<svg xmlns="http://www.w3.org/2000/svg" fill="none" viewBox="0 0 60 40"><path fill="#FAFAFA" d="M0 5a5 5 0 0 1 5-5h50a5 5 0 0 1 5 5v30a5 5 0 0 1-5 5H5a5 5 0 0 1-5-5V5Z"/><path fill="#EFDF2B" d="M47 20c0 9.391-7.609 17-17 17s-17-7.609-17-17S20.609 3 30 3s17 7.616 17 17Z"/><path fill="#1F1713" d="M20.406 20.492h1.938c-.108.702-.412 1.33-.98 1.802-.567.48-1.33.716-2.295.716-1.073 0-1.93-.338-2.565-1.013-.642-.675-.96-1.505-.96-2.505 0-1.032.318-1.903.946-2.619.628-.709 1.472-1.067 2.525-1.067 1.02 0 1.843.338 2.471 1.006.628.669.905 1.587.905 2.741 0 .095 0 .23-.007.392h-4.658c.006.432.094.742.256.932.162.175.77.432 1.148.432.547.013 1.175-.25 1.276-.817Zm-2.1-5.111 1.074-1.398 2.012.007-1.756 1.405-1.33-.014Zm1.91 3.214c-.006-.446-.195-.736-.424-.919-.223-.182-.48-.209-.838-.209-.567 0-1.255.378-1.255 1.128h2.518Z"/><path fill="#1F1713" d="M29.001 22.89h-2.444l-1.31-1.945-1.424 1.945H21.52l2.498-3.68-2.234-3.26h2.356s1.12 1.505 1.154 1.586c.041-.075 1.047-1.587 1.047-1.587h2.417l-2.262 3.227 2.505 3.714ZM31.877 15.95l-.432 6.94H29.46l-.378-6.94h2.795ZM36.819 15.969v1.525h-1.296v3.133c0 .304.074.446.189.5a.773.773 0 0 0 .344.074c.19 0 .506-.067.763-.135v1.762a7.302 7.302 0 0 1-1.37.108c-.723 0-1.29-.196-1.628-.506-.337-.31-.479-.736-.479-1.418l.007-.702v-2.816h-1.006V15.97h1.053l-.014-1.951 2.14.006v1.945h1.297ZM40.417 23.018c-1.067 0-1.917-.358-2.545-1.073a3.692 3.692 0 0 1-.945-2.512c0-1.033.33-1.897.986-2.586.654-.688 1.512-1.033 2.565-1.033 1.06 0 1.91.338 2.559 1.02.641.682.965 1.532.965 2.559 0 1.033-.324 1.897-.979 2.585-.661.696-1.526 1.04-2.606 1.04Zm.075-1.647c1.357 0 1.397-1.553 1.397-2.026 0-.648-.108-1.83-1.39-1.83-1.263 0-1.392 1.223-1.392 1.898.007.79.142 1.958 1.385 1.958Z"/><path fill="#C12A21" d="M31.762 24.47a1.29 1.29 0 1 1-1.29-1.29c.709.006 1.29.58 1.29 1.29Z"/><path fill="#1F1713" d="M44.873 17.542a.873.873 0 0 1-.871-.871c0-.48.392-.871.87-.871.48 0 .872.391.872.87 0 .48-.392.872-.871.872Zm0-1.614a.738.738 0 0 0-.736.736c0 .405.33.736.736.736.405 0 .736-.33.736-.736a.738.738 0 0 0-.736-.736Z"/><path fill="#1F1713" d="M44.711 16.745v.345h-.209v-.878h.385c.074 0 .128.007.169.027.04.013.08.047.108.088.027.047.04.094.04.148 0 .108-.047.182-.155.223l.162.385h-.23l-.135-.345-.135.007Zm0-.378v.223h.129c.04 0 .074 0 .087-.007.02-.006.034-.02.047-.04.014-.02.02-.04.02-.068a.114.114 0 0 0-.02-.067c-.013-.02-.026-.034-.047-.034-.02-.007-.047-.007-.094-.007h-.122Z"/></svg>