<svg xmlns="http://www.w3.org/2000/svg" fill="none" viewBox="0 0 60 40"><path fill="#FAFAFA" d="M0 5a5 5 0 0 1 5-5h50a5 5 0 0 1 5 5v30a5 5 0 0 1-5 5H5a5 5 0 0 1-5-5V5Z"/><path fill="#8AB748" d="m16.144 10.245-1.234-.002c-.414 0-.744.36-.745.8v.336a5.8 5.8 0 0 0-3.437-1.14c-3.398-.003-6.16 2.979-6.164 6.65-.003 3.668 2.756 6.655 6.154 6.659a5.801 5.801 0 0 0 3.438-1.134l-.001 1.76.004.075h-.004c-.002 2.047-1.548 3.712-3.441 3.711-1.397-.001-2.598-.904-3.136-2.199l-.072-.258c-.057-.375-.361-.665-.732-.663l-1.332-.001c-.405 0-.737.35-.737.78l.034.246c.673 2.886 3.094 5.034 5.972 5.037 3.395.003 6.164-2.981 6.167-6.65h-.01l.01-.075.01-13.131c.001-.44-.337-.801-.744-.801ZM10.72 20.608c-1.894-.002-3.436-1.67-3.435-3.716.002-2.046 1.546-3.711 3.44-3.71 1.893.002 3.436 1.67 3.435 3.715-.001 2.048-1.548 3.713-3.44 3.711ZM23.543 19.661c-1.193-.001-2.26-.864-2.594-2.1-.073-.27-.075-.552.177-.631.247-.078.34.073.414.349.218.8 1.226 1.365 2.003 1.365.773.001 1.785-.56 2.003-1.362.074-.275.196-.426.441-.35.254.082.221.364.144.633-.328 1.237-1.397 2.097-2.588 2.096Z"/><path fill="#165C3B" d="m28.976 10.257-1.235-.001c-.41 0-.742.36-.743.799v.337a5.815 5.815 0 0 0-3.438-1.14c-3.399-.004-6.161 2.978-6.164 6.649-.003 3.668 2.755 6.655 6.153 6.659a5.82 5.82 0 0 0 3.441-1.134v.318c0 .438.33.801.74.802l1.235.002c.41 0 .74-.363.74-.8l.01-11.69c.001-.44-.33-.801-.74-.801ZM23.55 20.62c-1.892-.002-3.437-1.67-3.436-3.716.002-2.046 1.55-3.71 3.443-3.71 1.894.002 3.437 1.67 3.436 3.716-.002 2.047-1.548 3.712-3.443 3.71Z"/><path fill="#8AB748" d="M54.638 10.281H53.4c-.408 0-.74.36-.74.798v.337a5.81 5.81 0 0 0-3.436-1.14c-3.398-.003-6.166 2.979-6.17 6.65-.002 3.667 2.761 6.655 6.159 6.659a5.81 5.81 0 0 0 3.436-1.134v.318c0 .437.332.801.74.802l1.238.001c.407 0 .742-.362.743-.8l.01-11.69c0-.44-.335-.8-.742-.8Zm-5.422 10.364c-1.9-.002-3.438-1.67-3.437-3.716.002-2.046 1.543-3.711 3.443-3.71 1.891.002 3.434 1.67 3.434 3.715-.004 2.047-1.549 3.712-3.44 3.71ZM36.389 10.264a5.812 5.812 0 0 0-3.437 1.132v-.336c0-.438-.331-.8-.742-.8l-1.234-.001c-.411 0-.745.36-.746.799l-.01 11.69c0 .437.333.8.745.802H32.2c.41 0 .743-.362.744-.8l.005-5.835c.002-2.044 1.546-3.71 3.439-3.707 1.897.002 3.435 1.67 3.434 3.714v.312l-.004 5.523c0 .438.335.802.743.803l1.238.001c.409 0 .742-.363.743-.8l.004-5.524v-.312c0-3.67-2.762-6.658-6.157-6.662Z"/></svg>