<svg xmlns="http://www.w3.org/2000/svg" fill="none" viewBox="0 0 60 40"><path fill="#FAFAFA" d="M0 5a5 5 0 0 1 5-5h50a5 5 0 0 1 5 5v30a5 5 0 0 1-5 5H5a5 5 0 0 1-5-5V5Z"/><ellipse cx="28.65" cy="15.895" fill="url(#a)" rx="5.85" ry="6.085"/><path fill="#2D1C81" d="M32.402 28.521v-1.154h2.794v3.858h-2.524c-.5 0-.843-.045-1.11-.132-.23-.09-.46-.22-.689-.444-.306-.266-.499-.62-.65-1.02-.156-.445-.23-.976-.23-1.552 0-1.155.23-1.996.651-2.572.459-.531 1.11-.8 2.03-.8H35.2v1.11h-2.524c-.46 0-.806.179-1.033.534-.192.355-.307.886-.307 1.686 0 .707.115 1.2.307 1.552.23.31.574.444 1.033.444h1.34v-1.507h-1.613v-.003Zm5.055 2.704h-1.262v-6.52h1.262v6.52Zm3.79-5.365h-1.455v1.64h1.454c.422 0 .688-.044.843-.178.152-.131.23-.352.23-.665 0-.266-.078-.487-.23-.621-.154-.132-.421-.176-.843-.176Zm-2.643-1.152h2.949c.651 0 1.147.134 1.495.445.306.355.459.841.459 1.506 0 .49-.078.931-.267 1.242-.23.31-.5.486-.88.576l1.41 2.748h-1.34l-1.224-2.572h-1.417v2.572H38.6v-6.517h.003Zm5.55 3.193c0-1.107.227-1.952.69-2.528.458-.534 1.187-.8 2.105-.8.958 0 1.684.266 2.143.842.458.531.688 1.376.688 2.527 0 1.152-.23 2.041-.688 2.573-.46.575-1.188.841-2.143.841-.958 0-1.647-.266-2.106-.841-.459-.532-.688-1.418-.688-2.614Zm2.795-2.217c-.5 0-.88.176-1.11.576-.267.355-.382.886-.382 1.64 0 .797.115 1.421.344 1.773.267.355.651.576 1.148.576.536 0 .918-.22 1.147-.576.27-.355.385-.934.385-1.73 0-.755-.115-1.331-.385-1.686-.226-.397-.61-.573-1.147-.573Zm8.422.176h-2.946c-.307 0-.537.09-.689.22-.152.135-.23.356-.23.621 0 .266.078.445.193.531.115.132.307.18.574.18h1.572c.65 0 1.11.175 1.377.441.27.268.421.755.421 1.42 0 .666-.152 1.152-.496 1.462-.307.31-.806.49-1.495.49h-3.138v-1.152h2.946c.344 0 .574-.09.729-.176.152-.131.23-.31.23-.576 0-.266-.078-.445-.193-.579-.152-.131-.344-.176-.651-.176h-1.417c-.651 0-1.11-.134-1.417-.441-.307-.314-.46-.8-.46-1.42 0-.711.153-1.197.46-1.508.344-.355.843-.489 1.529-.489h3.1v1.152Zm-46.703.044H5.415c-.381 0-.614.045-.803.18-.152.134-.23.355-.23.665 0 .22.078.4.23.531.115.134.344.176.611.176h1.761c.726 0 1.225.134 1.532.445.307.265.46.755.46 1.42 0 .665-.153 1.152-.537 1.462-.344.313-.918.49-1.644.49H3.273v-1.197h3.29c.381 0 .65-.045.803-.131.152-.135.23-.31.23-.576 0-.266-.075-.49-.23-.576-.115-.134-.384-.18-.729-.18H5.106c-.73 0-1.266-.175-1.61-.444-.344-.31-.496-.8-.496-1.417 0-.71.192-1.241.536-1.552.345-.31.918-.489 1.684-.489h3.445v1.194h.003Zm5.359 5.366h-2.295c-.691 0-1.148-.135-1.454-.442-.307-.266-.46-.71-.46-1.33V26.48h1.225v2.928c0 .31.038.53.155.62.115.135.307.18.651.18h.958V26.48h1.225v4.79h-.005Zm2.335-3.77v2.749h.728c.5 0 .84-.131 1.073-.355.192-.22.307-.576.307-1.062 0-.49-.115-.845-.307-1.02-.155-.222-.496-.311-.958-.311h-.843Zm-1.225-1.02h2.335c.728 0 1.265.224 1.683.621.385.445.574 1.065.574 1.82 0 .31-.037.62-.114.886a1.82 1.82 0 0 1-.385.71 1.67 1.67 0 0 1-.726.576 3.63 3.63 0 0 1-1.11.177h-1.032V33h-1.225v-6.52Zm7.43 4.79c-.767 0-1.34-.221-1.762-.621-.382-.403-.574-1.02-.574-1.776 0-.796.192-1.372.574-1.817.422-.4.995-.579 1.761-.579h1.762v.976H22.72c-.459 0-.729.09-.88.224-.153.131-.23.355-.267.707h2.756v.976h-2.756c.037.355.114.576.23.707.151.134.458.176.917.176h1.607v1.02h-1.762v.006Zm2.564-4.79h2.028c.496 0 .803.09.995.266.23.176.307.486.307.93v.798h-1.15v-.621c0-.176-.038-.31-.115-.355-.075-.09-.192-.134-.419-.134h-.459v3.902h-1.187V26.48ZM57 25.298c0 .329-.25.591-.568.591a.577.577 0 0 1-.568-.59c0-.329.253-.589.571-.589a.576.576 0 0 1 .565.588Zm-.998 0c0 .26.183.469.433.469.244.003.427-.206.427-.463 0-.26-.183-.471-.433-.471-.244 0-.427.212-.427.465Zm.338.308h-.12v-.588c.046-.006.115-.018.204-.018.1 0 .149.018.189.048a.156.156 0 0 1 .057.125c0 .069-.054.116-.12.14v.006c.057.018.083.063.1.143.017.087.029.126.043.144h-.129a.432.432 0 0 1-.043-.144c-.011-.06-.046-.09-.12-.09h-.06v.234Zm.003-.332h.06c.072 0 .13-.024.13-.083 0-.057-.032-.09-.12-.09a.211.211 0 0 0-.073.01v.163h.003Z"/><path fill="#D2D2D2" d="m29.435 8.102-.037-.017.014.013a.057.057 0 0 0 .023.004Z"/><path fill="#D3D3D3" d="m29.41 8.098-.012-.012a84.49 84.49 0 0 0-.094-.044l.043.047.062.01Z"/><path fill="#D4D4D4" d="m29.346 8.089-.043-.047-.094-.045.074.083.063.009Z"/><path fill="#D5D5D5" d="m29.286 8.079-.074-.083-.094-.045.106.119.062.009Z"/><path fill="#D6D6D6" d="m29.222 8.07-.105-.118-.095-.045.14.154c.02 0 .04.003.06.01Z"/><path fill="#D7D7D7" d="m29.164 8.06-.14-.155-.095-.045.172.191.063.01Z"/><path fill="#D8D8D8" d="m29.1 8.05-.171-.192-.092-.042.2.224.064.01Z"/><path fill="#D9D9D9" d="m29.037 8.043-.2-.224c-.03-.015-.058-.024-.087-.039l.227.254.06.009Z"/><path fill="#DADADA" d="m28.977 8.033-.227-.254c-.029-.012-.057-.024-.086-.039l.255.284c.02.006.038.006.058.009Z"/><path fill="#DBDBDB" d="m28.92 8.025-.256-.283a1.095 1.095 0 0 1-.086-.039l.284.316c.017.003.037.003.058.006Z"/><path fill="#DCDCDC" d="m28.86 8.021-.285-.316c-.028-.012-.057-.027-.086-.039l.313.346.057.01Z"/><path fill="#DDD" d="m28.8 8.014-.314-.346-.086-.04.339.38c.023 0 .04.003.06.006Z"/><path fill="#DEDEDE" d="m28.742 8.008-.339-.38-.086-.035.365.406.06.009Z"/><path fill="#DFDFDF" d="m28.682 7.998-.364-.406a1.363 1.363 0 0 0-.08-.03l.387.43a.34.34 0 0 0 .057.006Z"/><path fill="#E0E0E0" d="m28.622 7.995-.387-.43a1.363 1.363 0 0 0-.08-.03l.41.457c.02 0 .04.003.057.003Z"/><path fill="#E1E1E1" d="m28.567 7.991-.41-.456c-.026-.012-.055-.021-.08-.03l.435.483c.017 0 .035 0 .055.003Z"/><path fill="#E2E2E2" d="m28.51 7.988-.437-.484c-.025-.008-.054-.02-.08-.03l.46.514a.185.185 0 0 1 .056 0Z"/><path fill="#E3E3E3" d="m28.452 7.984-.459-.513-.08-.03.485.54c.017 0 .037 0 .054.003Z"/><path fill="#E4E4E4" d="m28.398 7.978-.485-.54-.08-.03.508.564a.18.18 0 0 0 .057.006Z"/><path fill="#E5E5E5" d="m28.34 7.976-.508-.564c-.025-.01-.048-.015-.074-.024l.528.585c.017 0 .034.003.054.003Z"/><path fill="#E6E6E6" d="m28.283 7.974-.528-.585-.074-.024.545.606c.02 0 .04.003.057.003Z"/><path fill="#E7E7E7" d="m28.228 7.971-.545-.605c-.026-.01-.049-.015-.075-.024l.568.63h.052Z"/><path fill="#E8E8E8" d="m28.174 7.969-.568-.63a1.024 1.024 0 0 0-.075-.024l.588.654h.055Z"/><path fill="#E9E9E9" d="m28.12 7.97-.588-.654c-.026-.01-.052-.018-.075-.024l.611.677h.052Z"/><path fill="#EAEAEA" d="m28.067 7.969-.61-.678c-.026-.006-.052-.017-.075-.023l.63.7h.055Z"/><path fill="#EBEBEB" d="m28.013 7.97-.63-.701-.072-.018.648.722c.017-.006.037-.003.054-.003Z"/><path fill="#ECECEC" d="m27.96 7.968-.649-.723-.069-.017.663.74c.017 0 .037.003.054 0Z"/><path fill="#EDEDED" d="m27.904 7.966-.662-.74a66.905 66.905 0 0 1-.07-.018l.68.758c.018.003.035 0 .052 0Z"/><path fill="#EEE" d="m27.853 7.97-.68-.758-.068-.018.7.78c.014-.004.031-.004.048-.004Z"/><path fill="#EFEFEF" d="m27.801 7.974-.7-.778-.069-.018.717.8c.02-.004.035-.004.052-.004Z"/><path fill="#F0F0F0" d="m27.752 7.972-.717-.8-.07-.018.738.82c.014 0 .032 0 .049-.002Z"/><path fill="#F1F1F1" d="m27.7 7.976-.737-.82a.671.671 0 0 0-.066-.015l.755.838c.014 0 .031 0 .049-.003Z"/><path fill="#F2F2F2" d="m27.648 7.977-.754-.838a.512.512 0 0 0-.066-.012l.769.853c.017 0 .034 0 .051-.003Z"/><path fill="#F3F3F3" d="m27.597 7.982-.768-.853a.513.513 0 0 0-.066-.012l.78.868a.3.3 0 0 0 .054-.003Z"/><path fill="#F4F4F4" d="m27.548 7.985-.78-.869c-.023-.003-.043-.009-.066-.012l.798.887c.014-.003.031-.003.048-.006Z"/><path fill="#F5F5F5" d="m27.5 7.992-.797-.886c-.023-.003-.043-.01-.066-.012L27.45 8a.129.129 0 0 1 .05-.01Z"/><path fill="#F6F6F6" d="m27.451 7.996-.815-.907c-.02-.003-.043-.009-.066-.012l.83.925c.02-.003.034-.006.051-.006Z"/><path fill="#F7F7F7" d="m27.403 8.003-.83-.925c-.02-.003-.042-.009-.065-.012l.846.943c.017-.003.032-.006.049-.006Z"/><path fill="#F8F8F8" d="m27.354 8.008-.846-.942-.06-.01.857.955c.017 0 .034-.003.049-.003Z"/><path fill="#F9F9F9" d="m27.305 8.01-.858-.954a.41.41 0 0 0-.06-.006l.869.97.049-.01Z"/><path fill="#FAFAFA" d="m27.256 8.017-.87-.97c-.02-.003-.04-.006-.06-.006l.884.982a.243.243 0 0 0 .046-.006Z"/><path fill="#FBFBFB" d="m27.21 8.028-.883-.982a.41.41 0 0 0-.06-.006l.898 1a.13.13 0 0 1 .045-.012Z"/><path fill="#FCFCFC" d="m27.164 8.036-.898-1a.412.412 0 0 0-.06-.006l.912 1.015a.138.138 0 0 1 .046-.01Z"/><path fill="#FDFDFD" d="m27.118 8.041-.912-1.015c-.02-.003-.04-.005-.06-.005l.926 1.029.046-.009Z"/><path fill="#FEFEFE" d="m27.073 8.05-.927-1.03c-.02-.003-.04-.003-.057-.006l.938 1.044.046-.009Z"/><path fill="#fff" d="m27.027 8.061-.938-1.044c-.02-.003-.038 0-.055-.003l.95 1.056.043-.009ZM26.983 8.069l-.95-1.056c-.02 0-.036 0-.056-.003l.958 1.068.048-.009Z"/><path fill="#FEFEFE" d="m26.934 8.077-.958-1.068c-.02 0-.037-.003-.057-.003l.972 1.083c.015-.003.03-.009.043-.012Z"/><path fill="#FDFDFD" d="m26.891 8.09-.972-1.083c-.02 0-.038-.003-.058-.003l.984 1.098c.015-.003.029-.009.046-.012Z"/><path fill="#FCFCFC" d="m26.846 8.101-.984-1.098c-.02 0-.037-.003-.057-.003l.998 1.11c.014 0 .029-.006.043-.009Z"/><path fill="#FBFBFB" d="m26.803 8.113-.999-1.11c-.02 0-.04-.003-.057-.003l1.013 1.125c.011-.003.028-.006.043-.012Z"/><path fill="#FAFAFA" d="M26.757 8.125 25.744 7H25.73c-.015 0-.026 0-.04.003l1.02 1.137.047-.015Z"/><path fill="#F9F9F9" d="M26.713 8.137 25.693 7c-.018 0-.035.003-.055.003l1.03 1.146c.014-.003.031-.006.045-.012Z"/><path fill="#F8F8F8" d="m26.668 8.15-1.03-1.146c-.017 0-.034 0-.054.003l1.041 1.16c.017-.005.029-.011.043-.017Z"/><path fill="#F7F7F7" d="m26.628 8.165-1.041-1.161c-.017 0-.035 0-.055.003l1.053 1.173a.246.246 0 0 0 .043-.015Z"/><path fill="#F6F6F6" d="m26.585 8.179-1.053-1.173c-.017 0-.037 0-.055.003l1.065 1.184c.017-.003.028-.009.043-.014Z"/><path fill="#F5F5F5" d="M26.545 8.194 25.48 7.01c-.017 0-.034 0-.051.003l1.075 1.2a.55.55 0 0 1 .04-.019Z"/><path fill="#F4F4F4" d="m26.501 8.213-1.075-1.2c-.017 0-.032.004-.049.007l1.084 1.208a.163.163 0 0 1 .04-.015Z"/><path fill="#F3F3F3" d="m26.461 8.225-1.084-1.208c-.017.003-.034.003-.049.006l1.093 1.217a.162.162 0 0 1 .04-.015Z"/><path fill="#F2F2F2" d="m26.418 8.24-1.093-1.217c-.017.003-.034.003-.049.006l1.102 1.227a.161.161 0 0 0 .04-.015Z"/><path fill="#F1F1F1" d="m26.379 8.26-1.102-1.227c-.017.003-.034.003-.049.006l1.113 1.241c.015-.008.026-.017.038-.02Z"/><path fill="#F0F0F0" d="m26.341 8.277-1.113-1.24c-.017.002-.034.002-.048.005l1.124 1.253.037-.018Z"/><path fill="#EFEFEF" d="m26.3 8.294-1.124-1.253-.049.009 1.133 1.262a.546.546 0 0 0 .04-.018Z"/><path fill="#EEE" d="M26.263 8.312 25.13 7.05a1.31 1.31 0 0 0-.046.009l1.142 1.27a.45.45 0 0 1 .037-.017Z"/><path fill="#EDEDED" d="M26.224 8.332 25.082 7.06l-.046.008 1.15 1.28.038-.017Z"/><path fill="#ECECEC" d="m26.186 8.348-1.15-1.28-.046.01 1.16 1.288c.01-.003.022-.012.036-.018Z"/><path fill="#EBEBEB" d="m26.15 8.37-1.16-1.29-.046.009 1.17 1.301c.012-.006.024-.015.035-.02Z"/><path fill="#EAEAEA" d="m26.115 8.392-1.17-1.301-.047.009 1.18 1.313a.512.512 0 0 0 .037-.021Z"/><path fill="#E9E9E9" d="m26.078 8.41-1.18-1.313c-.014.003-.028.009-.043.012l1.188 1.321a.213.213 0 0 0 .035-.02Z"/><path fill="#E8E8E8" d="m26.043 8.436-1.188-1.322a.246.246 0 0 0-.043.015l1.194 1.328a.154.154 0 0 1 .037-.02Z"/><path fill="#E7E7E7" d="m26.006 8.455-1.194-1.328c-.014.003-.028.009-.043.015l1.202 1.337c.009-.012.023-.018.035-.024Z"/><path fill="#E6E6E6" d="m25.968 8.477-1.202-1.336c-.015.006-.029.009-.043.015l1.21 1.348c.015-.009.023-.018.035-.027Z"/><path fill="#E5E5E5" d="m25.936 8.5-1.21-1.35-.043.015 1.222 1.358a.815.815 0 0 0 .031-.024Z"/><path fill="#E4E4E4" d="M25.902 8.525 24.68 7.167c-.015.006-.029.009-.043.015l1.23 1.37c.015-.01.023-.018.035-.027Z"/><path fill="#E3E3E3" d="m25.87 8.551-1.23-1.37-.04.019 1.236 1.375c.011-.009.023-.018.034-.024Z"/><path fill="#E2E2E2" d="M25.836 8.576 24.6 7.2l-.04.018 1.242 1.385c.011-.012.023-.018.034-.027Z"/><path fill="#E1E1E1" d="m25.805 8.598-1.242-1.384-.04.018 1.25 1.39.032-.024Z"/><path fill="#E0E0E0" d="m25.77 8.624-1.25-1.39c-.015.005-.026.011-.04.017l1.259 1.403c.011-.01.02-.021.031-.03Z"/><path fill="#DFDFDF" d="m25.74 8.653-1.258-1.402-.04.018 1.267 1.414.032-.03Z"/><path fill="#DEDEDE" d="m25.71 8.678-1.268-1.414-.038.018 1.277 1.42a.203.203 0 0 0 .028-.024Z"/><path fill="#DDD" d="m25.681 8.707-1.277-1.42c-.011.006-.023.015-.037.021l1.282 1.43a.152.152 0 0 1 .032-.03Z"/><path fill="#DCDCDC" d="m25.65 8.737-1.283-1.43-.037.022 1.29 1.435.03-.027Z"/><path fill="#DBDBDB" d="m25.618 8.763-1.29-1.435-.038.021 1.297 1.444c.014-.012.023-.02.031-.03Z"/><path fill="#DADADA" d="m25.59 8.793-1.297-1.444c-.011.006-.026.012-.037.02l1.308 1.457c.009-.012.017-.024.026-.033Z"/><path fill="#D9D9D9" d="m25.564 8.824-1.308-1.456c-.011.006-.026.012-.037.021l1.316 1.465.03-.03Z"/><path fill="#D8D8D8" d="m25.535 8.853-1.317-1.465c-.011.006-.023.015-.034.024l1.322 1.474a.29.29 0 0 0 .029-.033Z"/><path fill="#D7D7D7" d="m25.51 8.886-1.323-1.474c-.012.01-.023.015-.035.024l1.328 1.48.03-.03Z"/><path fill="#D6D6D6" d="m25.48 8.916-1.327-1.48-.035.023 1.337 1.486c.009-.009.017-.018.026-.03Z"/><path fill="#D5D5D5" d="m25.454 8.948-1.337-1.486c-.011.009-.023.015-.034.024l1.345 1.498a.19.19 0 0 1 .026-.036Z"/><path fill="#D4D4D4" d="m25.429 8.98-1.346-1.498c-.011.01-.023.015-.034.024l1.354 1.507.026-.033Z"/><path fill="#D3D3D3" d="m25.406 9.015-1.354-1.507c-.011.009-.023.015-.034.024l1.362 1.515a.316.316 0 0 0 .026-.032Z"/><path fill="#D2D2D2" d="m25.38 9.05-1.362-1.515-.032.027 1.369 1.525.025-.036Z"/><path fill="#D1D1D1" d="M25.354 9.084 23.986 7.56l-.032.026 1.374 1.531a.092.092 0 0 0 .026-.033Z"/><path fill="#D0D0D0" d="m25.331 9.12-1.374-1.531-.031.027 1.382 1.54.023-.036Z"/><path fill="#CFCFCF" d="m25.309 9.155-1.383-1.54-.031.027 1.39 1.549c.01-.012.015-.024.024-.036Z"/><path fill="#CECECE" d="m25.288 9.193-1.391-1.548-.032.026 1.403 1.56a.165.165 0 0 1 .02-.038Z"/><path fill="#CDCDCD" d="m25.265 9.23-1.402-1.561c-.009.009-.02.018-.029.03l1.408 1.57a.282.282 0 0 0 .023-.04Z"/><path fill="#CCC" d="m25.246 9.269-1.409-1.57c-.008.01-.017.021-.028.03l1.414 1.576c.006-.012.014-.024.023-.036Z"/><path fill="#CBCBCB" d="m25.222 9.302-1.414-1.575c-.009.009-.017.02-.029.03l1.423 1.584c.006-.012.014-.024.02-.039Z"/><path fill="#CACACA" d="M25.202 9.341 23.78 7.757l-.029.03 1.431 1.593a.162.162 0 0 0 .02-.039Z"/><path fill="#C9C9C9" d="M25.185 9.383 23.753 7.79l-.028.03 1.44 1.605c.005-.015.011-.03.02-.042Z"/><path fill="#C8C8C8" d="m25.165 9.426-1.44-1.606c-.009.012-.02.021-.029.03l1.452 1.614.017-.038Z"/><path fill="#C7C7C7" d="M25.147 9.465 23.696 7.85a.315.315 0 0 1-.026.032l1.457 1.624c.006-.012.015-.027.02-.042Z"/><path fill="#C6C6C6" d="M25.128 9.506 23.67 7.883c-.008.012-.017.024-.026.033l1.464 1.629a.166.166 0 0 0 .02-.039Z"/><path fill="#C5C5C5" d="m25.11 9.548-1.463-1.63c-.009.013-.017.025-.026.034l1.475 1.64c.005-.014.008-.029.014-.044Z"/><path fill="#C4C4C4" d="m25.096 9.592-1.474-1.64c-.01.011-.018.02-.026.032l1.483 1.65.017-.042Z"/><path fill="#C3C3C3" d="m25.08 9.638-1.484-1.65-.026.033 1.492 1.662a.143.143 0 0 0 .017-.045Z"/><path fill="#C2C2C2" d="m25.064 9.683-1.491-1.662c-.009.012-.018.024-.023.036l1.5 1.671a.267.267 0 0 1 .014-.045Z"/><path fill="#C1C1C1" d="m25.05 9.727-1.5-1.671c-.008.012-.014.024-.023.035l1.51 1.68c.002-.015.008-.03.014-.044Z"/><path fill="silver" d="m25.036 9.772-1.51-1.68-.022.036 1.517 1.691c.006-.014.009-.032.015-.047Z"/><path fill="#BFBFBF" d="m25.022 9.82-1.518-1.692c-.008.012-.014.024-.023.036l1.53 1.7c.005-.011.008-.03.01-.044Z"/><path fill="#BEBEBE" d="M25.01 9.867 23.48 8.166c-.009.012-.014.024-.023.036l1.538 1.713a.299.299 0 0 0 .014-.048Z"/><path fill="#BDBDBD" d="M24.998 9.915 23.46 8.202a.256.256 0 0 1-.023.036l1.55 1.725c.002-.015.008-.03.011-.048Z"/><path fill="#BCBCBC" d="m24.987 9.964-1.549-1.725c-.006.012-.011.027-.02.039l1.558 1.734c.002-.015.008-.03.011-.048Z"/><path fill="#BBB" d="m24.975 10.013-1.558-1.734c-.005.012-.01.027-.02.04l1.567 1.745c.005-.018.008-.036.011-.051Z"/><path fill="#BABABA" d="M37.198 23.74c.02.004.037.004.057.006l-.077-.026.02.02ZM24.967 10.065l-1.566-1.746c-.006.012-.011.027-.02.04l1.578 1.757.008-.051Z"/><path fill="#B9B9B9" d="M24.958 10.115 23.38 8.357l-.02.04 1.59 1.769.008-.051ZM37.095 23.69l.04.044.06.006-.02-.024a.502.502 0 0 1-.08-.027Z"/><path fill="#B8B8B8" d="m24.95 10.169-1.59-1.77c-.006.015-.014.027-.02.04l1.6 1.78.01-.05ZM37.015 23.662l.062.068.06.006-.04-.044a.901.901 0 0 0-.082-.03Z"/><path fill="#B7B7B7" d="m36.935 23.633.082.092.06.006-.063-.069c-.025-.011-.054-.02-.08-.03ZM24.941 10.22l-1.6-1.78-.018.041 1.61 1.793.008-.053Z"/><path fill="#B6B6B6" d="m24.935 10.274-1.61-1.794-.016.045 1.62 1.806c.003-.018.003-.04.006-.057ZM36.852 23.602l.102.116.06.006-.083-.092c-.025-.009-.05-.02-.08-.03Z"/><path fill="#B5B5B5" d="m36.772 23.572.122.14.06.006-.103-.116c-.025-.009-.054-.018-.08-.03ZM24.93 10.329l-1.62-1.806-.018.045 1.632 1.817c.003-.02.003-.038.006-.056Z"/><path fill="#B4B4B4" d="M24.924 10.387 23.292 8.57l-.018.045 1.644 1.83c.003-.022.006-.04.006-.058ZM36.688 23.543l.149.164.06.006-.123-.14-.087-.03Z"/><path fill="#B3B3B3" d="m24.919 10.44-1.644-1.83-.017.045 1.655 1.844c.003-.02.006-.039.006-.06ZM36.602 23.51l.172.19c.02.004.04.004.06.007l-.15-.164a.697.697 0 0 0-.082-.033Z"/><path fill="#B2B2B2" d="m36.516 23.473.198.22.06.006-.172-.19-.086-.036ZM24.916 10.497 23.26 8.653l-.017.045 1.67 1.859c0-.02 0-.039.003-.06Z"/><path fill="#B1B1B1" d="m36.433 23.442.22.245.064.009-.198-.22c-.029-.01-.058-.022-.086-.034ZM24.912 10.556l-1.67-1.859-.014.048 1.681 1.874c.003-.024.003-.042.003-.063Z"/><path fill="#AFAFAF" d="m36.346 23.41.24.268.064.009-.221-.245c-.026-.009-.055-.02-.083-.033ZM24.912 10.615l-1.68-1.874c-.007.015-.01.03-.015.048l1.695 1.886a.205.205 0 0 1 0-.06Z"/><path fill="#AEAEAE" d="m36.26 23.376.264.295.063.01-.241-.27c-.029-.014-.057-.023-.086-.035ZM24.91 10.677 23.215 8.79c-.006.015-.01.03-.015.048l1.707 1.9c.003-.02.003-.041.003-.062Z"/><path fill="#ADADAD" d="m24.91 10.736-1.707-1.901c-.006.015-.009.03-.014.048l1.718 1.915c.003-.02.003-.041.003-.062ZM36.175 23.339l.29.322.063.01-.264-.296a3.21 3.21 0 0 1-.09-.036Z"/><path fill="#ACACAC" d="m36.086 23.302.316.352.063.009-.29-.323c-.032-.011-.06-.026-.09-.038ZM24.91 10.796 23.19 8.881c-.003.015-.008.03-.014.048l1.735 1.933c-.003-.024-.003-.045-.003-.066Z"/><path fill="#ABABAB" d="m24.913 10.865-1.736-1.933c-.002.015-.008.032-.011.047l1.75 1.949c-.003-.021-.003-.042-.003-.063ZM35.996 23.262l.341.379.063.009-.315-.352a.464.464 0 0 1-.089-.036Z"/><path fill="#AAA" d="m24.916 10.927-1.75-1.948c-.003.014-.006.032-.012.05l1.764 1.964c-.002-.021-.002-.045-.002-.066ZM35.907 23.225l.367.408.063.01-.34-.38a1.973 1.973 0 0 0-.09-.038Z"/><path fill="#A9A9A9" d="m24.918 10.993-1.764-1.964a.32.32 0 0 1-.011.051l1.775 1.978v-.065ZM35.818 23.189l.393.438.063.01-.367-.41c-.031-.012-.06-.027-.089-.038Z"/><path fill="#A8A8A8" d="m24.92 11.055-1.775-1.979a.33.33 0 0 1-.011.05l1.793 1.997a.505.505 0 0 1-.006-.068ZM35.727 23.148l.421.469.063.009-.393-.439a1.144 1.144 0 0 1-.091-.039Z"/><path fill="#A7A7A7" d="m35.635 23.107.447.499c.023.003.043.009.066.012l-.421-.469a.863.863 0 0 1-.092-.042ZM24.927 11.122l-1.793-1.996c-.002.018-.008.033-.011.05l1.81 2.018-.006-.072Z"/><path fill="#A6A6A6" d="m24.932 11.197-1.81-2.017-.009.05 1.828 2.035a3.37 3.37 0 0 0-.01-.068ZM35.54 23.064l.476.532c.023.003.043.009.066.012l-.447-.499a.67.67 0 0 0-.095-.045Z"/><path fill="#A5A5A5" d="M24.941 11.265 23.114 9.23a9.83 9.83 0 0 0-.009.054l1.842 2.05-.006-.069ZM35.445 23.02l.505.561c.023.003.043.01.066.012l-.476-.53c-.032-.013-.063-.028-.095-.043Z"/><path fill="#A4A4A4" d="m35.353 22.977.534.594c.023.003.043.01.066.012l-.505-.56-.095-.046ZM24.947 11.333l-1.842-2.05-.008.054 1.858 2.07c0-.026-.005-.05-.008-.074Z"/><path fill="#A3A3A3" d="m35.259 22.936.56.624c.022.003.042.01.065.012l-.533-.594c-.03-.015-.06-.027-.092-.042ZM24.958 11.404 23.1 9.333l-.008.054 1.879 2.091a.592.592 0 0 1-.012-.074Z"/><path fill="#A2A2A2" d="m24.97 11.478-1.88-2.091-.008.053 1.899 2.113a.592.592 0 0 1-.012-.075ZM35.162 22.89l.594.66c.023.002.043.008.066.011l-.56-.624c-.034-.018-.068-.032-.1-.047Z"/><path fill="#A1A1A1" d="m35.063 22.839.626.695c.023.003.043.01.066.012l-.594-.66a.99.99 0 0 1-.098-.047ZM24.98 11.553 23.083 9.44a.338.338 0 0 0-.006.054l1.916 2.134c-.005-.024-.008-.051-.011-.075Z"/><path fill="#A0A0A0" d="m34.964 22.79.66.734c.023.003.043.009.066.012l-.626-.695-.1-.051ZM24.992 11.628l-1.916-2.134c-.003.018-.003.039-.006.057l1.937 2.154a.615.615 0 0 1-.015-.077Z"/><path fill="#9F9F9F" d="m34.866 22.743.689.767.069.015-.66-.734c-.032-.015-.066-.03-.098-.048ZM25.007 11.705l-1.936-2.154c-.003.018-.003.039-.006.056l1.957 2.179a.783.783 0 0 0-.015-.08Z"/><path fill="#9E9E9E" d="m34.766 22.695.72.8.069.015-.689-.767c-.032-.015-.066-.033-.1-.048ZM25.025 11.787l-1.957-2.179c-.003.018-.003.04-.006.057l1.977 2.202c-.006-.027-.012-.054-.014-.08Z"/><path fill="#9D9D9D" d="m34.662 22.643.755.841.068.015-.72-.8a1.793 1.793 0 0 0-.103-.056ZM25.039 11.867l-1.977-2.202a.376.376 0 0 1-.005.057l1.999 2.223a3.241 3.241 0 0 0-.017-.078Z"/><path fill="#9C9C9C" d="m34.56 22.588.788.88c.023.006.046.01.07.015l-.755-.841-.103-.054ZM25.056 11.945l-2-2.223a.389.389 0 0 1-.005.056l2.022 2.253c-.003-.03-.011-.056-.017-.086Z"/><path fill="#9B9B9B" d="m34.456 22.532.826.92c.023.005.046.008.069.014l-.789-.88a.709.709 0 0 1-.106-.054ZM25.076 12.032 23.054 9.78v.06l2.045 2.277c-.009-.027-.014-.057-.023-.084Z"/><path fill="#9A9A9A" d="m34.352 22.479.861.957.069.015-.826-.919-.104-.053ZM25.099 12.116l-2.045-2.277v.06l2.068 2.303c-.009-.03-.017-.057-.023-.086Z"/><path fill="#999" d="m34.243 22.42.9 1.003.07.015-.86-.957c-.038-.021-.072-.042-.11-.06ZM25.119 12.2l-2.068-2.304v.06l2.094 2.33c-.012-.03-.017-.056-.026-.086Z"/><path fill="#989898" d="m25.142 12.287-2.094-2.33v.06l2.123 2.363-.03-.093ZM34.135 22.357l.94 1.048.07.015-.901-1.003c-.038-.018-.072-.039-.11-.06Z"/><path fill="#979797" d="M34.023 22.297 35 23.386l.071.018-.94-1.047c-.035-.021-.072-.04-.11-.06ZM25.17 12.38l-2.122-2.363v.06l2.151 2.392c-.011-.03-.02-.06-.029-.09Z"/><path fill="#969696" d="m25.196 12.473-2.151-2.393.003.063 2.177 2.423a1.636 1.636 0 0 1-.029-.093ZM33.914 22.235l1.018 1.134.072.018-.978-1.089-.112-.063Z"/><path fill="#959595" d="m33.802 22.174 1.058 1.178.072.018-1.018-1.134-.112-.062ZM25.225 12.563l-2.177-2.423c0 .02 0 .041.003.062l2.206 2.456a.905.905 0 0 1-.032-.095Z"/><path fill="#949494" d="m25.257 12.66-2.206-2.456c0 .021 0 .042.003.063l2.237 2.491-.034-.098ZM33.685 22.104l1.104 1.229.072.018-1.059-1.179c-.04-.024-.077-.048-.117-.069Z"/><path fill="#939393" d="m25.291 12.76-2.237-2.492c0 .02 0 .041.003.062l2.269 2.528c-.015-.033-.023-.066-.035-.099ZM33.566 22.036l1.148 1.28.072.018-1.105-1.23a1.469 1.469 0 0 0-.115-.068Z"/><path fill="#929292" d="m33.45 21.966 1.192 1.328.072.017-1.147-1.28-.118-.065ZM25.323 12.858l-2.27-2.527c0 .02 0 .042.004.066l2.303 2.566a1.554 1.554 0 0 0-.037-.105Z"/><path fill="#919191" d="m25.36 12.962-2.303-2.566c0 .02.003.044.005.068l2.341 2.605c-.014-.039-.029-.072-.043-.107ZM33.33 21.893l1.241 1.384.072.018-1.193-1.328a2.54 2.54 0 0 0-.12-.074Z"/><path fill="#909090" d="m25.403 13.067-2.34-2.605c.002.02.002.045.005.069l2.375 2.643a1.614 1.614 0 0 1-.04-.107ZM33.202 21.815l1.294 1.442.074.02-1.242-1.384c-.043-.027-.083-.05-.126-.078Z"/><path fill="#8F8F8F" d="m33.08 21.738 1.342 1.495c.025.006.048.015.074.024l-1.294-1.441c-.04-.027-.083-.05-.123-.078ZM25.444 13.173l-2.376-2.644.006.069 2.415 2.688c-.017-.038-.031-.077-.046-.113Z"/><path fill="#8E8E8E" d="m25.486 13.284-2.416-2.688.006.068 2.458 2.736c-.017-.038-.034-.077-.048-.116ZM32.953 21.66l1.394 1.552c.026.006.049.015.075.024l-1.343-1.495c-.043-.03-.083-.054-.126-.08Z"/><path fill="#8D8D8D" d="m25.535 13.4-2.459-2.737c.003.024.006.045.006.069l2.498 2.784a1.932 1.932 0 0 0-.045-.117ZM32.818 21.571l1.452 1.617c.026.01.049.015.074.024l-1.394-1.551c-.043-.03-.086-.06-.132-.09Z"/><path fill="#8C8C8C" d="m32.687 21.484 1.511 1.683c.026.01.052.015.075.024l-1.452-1.617c-.045-.033-.091-.06-.134-.09ZM25.583 13.517l-2.498-2.784.009.072 2.544 2.832c-.02-.04-.037-.08-.055-.12Z"/><path fill="#8B8B8B" d="m32.552 21.394 1.569 1.748c.026.009.051.015.074.024l-1.511-1.683c-.043-.03-.09-.06-.132-.09ZM25.635 13.635l-2.544-2.831.008.071 2.594 2.889c-.018-.045-.038-.087-.058-.129Z"/><path fill="#8A8A8A" d="m25.696 13.762-2.594-2.888.01.072 2.641 2.942c-.02-.042-.04-.084-.057-.126ZM32.408 21.297l1.638 1.823c.026.009.052.015.075.024l-1.57-1.749-.143-.098Z"/><path fill="#898989" d="m32.262 21.195 1.704 1.898.08.027-1.638-1.823a4.191 4.191 0 0 0-.146-.102ZM25.753 13.886l-2.642-2.942.009.072 2.7 3.005a1.946 1.946 0 0 1-.067-.135Z"/><path fill="#888" d="M25.818 14.023 23.12 11.02l.012.074 2.756 3.068a5.835 5.835 0 0 0-.069-.138ZM32.115 21.096l1.77 1.972.08.027-1.704-1.898a4.059 4.059 0 0 0-.146-.101Z"/><path fill="#878787" d="m31.96 20.981 1.847 2.056c.026.01.052.018.08.027l-1.77-1.972a2.998 2.998 0 0 1-.157-.11ZM25.887 14.162l-2.756-3.067c.003.024.009.05.011.074l2.817 3.136c-.026-.047-.049-.095-.072-.143Z"/><path fill="#868686" d="m25.96 14.301-2.817-3.136c.002.024.008.05.011.075l2.886 3.21c-.026-.047-.055-.098-.08-.149ZM31.8 20.865l1.927 2.146.08.027-1.847-2.056-.16-.117Z"/><path fill="#858585" d="m31.64 20.75 2.01 2.238.08.027-1.927-2.146a5.509 5.509 0 0 0-.163-.119ZM26.04 14.453l-2.886-3.21.012.074 2.954 3.288c-.026-.05-.051-.101-.08-.152Z"/><path fill="#848484" d="m26.122 14.607-2.954-3.289c.006.027.009.051.014.078l3.038 3.38c-.034-.056-.069-.113-.098-.17ZM31.464 20.616l2.105 2.346.08.026-2.01-2.238a8.88 8.88 0 0 1-.175-.134Z"/><path fill="#838383" d="m26.218 14.777-3.038-3.38.017.08 3.115 3.47c-.031-.06-.063-.113-.095-.17ZM31.29 20.48l2.2 2.45c.028.01.054.021.082.03l-2.105-2.345c-.063-.045-.12-.09-.178-.134Z"/><path fill="#828282" d="m31.094 20.325 2.309 2.57c.029.008.054.02.083.032l-2.2-2.45c-.063-.047-.126-.101-.192-.152ZM26.315 14.944l-3.115-3.47.017.08 3.216 3.578a3.356 3.356 0 0 1-.118-.188Z"/><path fill="#818181" d="m26.43 15.131-3.215-3.577.017.08 3.316 3.691c-.04-.065-.08-.128-.117-.194ZM30.9 20.17l2.42 2.698.084.033-2.31-2.569a7.674 7.674 0 0 0-.195-.161Z"/><path fill="gray" d="m26.547 15.325-3.316-3.691.018.08 3.439 3.829c-.049-.075-.098-.147-.14-.218ZM30.678 19.986l2.558 2.847c.03.012.055.02.084.033l-2.421-2.698c-.075-.06-.147-.119-.221-.182Z"/><path fill="#7F7F7F" d="m26.686 15.54-3.44-3.83.02.084 3.572 3.978-.152-.233ZM30.451 19.795l2.702 3.008.084.032-2.56-2.846a13.016 13.016 0 0 0-.226-.194Z"/><path fill="#7E7E7E" d="m30.19 19.565 2.88 3.205c.03.012.058.021.084.033l-2.703-3.008c-.088-.077-.175-.152-.26-.23ZM26.84 15.775l-3.571-3.977c.005.027.014.056.02.083l3.726 4.15-.175-.256Z"/><path fill="#7D7D7D" d="m29.893 19.294 3.089 3.44.089.036-2.88-3.204c-.1-.09-.2-.18-.298-.272ZM27.015 16.032l-3.726-4.15.02.083 3.924 4.369-.218-.302Z"/><path fill="#7C7C7C" d="m27.233 16.333-3.924-4.368c.005.027.014.056.02.083l4.182 4.658c-.095-.122-.19-.247-.278-.373ZM29.53 18.953l3.362 3.745c.029.012.06.024.09.039l-3.09-3.44c-.124-.117-.244-.23-.362-.344Z"/><path fill="#7B7B7B" d="m27.511 16.707-4.182-4.658.026.09 4.633 5.155c-.167-.194-.325-.39-.477-.587ZM28.997 18.424l3.807 4.237c.028.012.06.024.088.039l-3.361-3.745a18.578 18.578 0 0 1-.534-.53Z"/><path fill="#7A7A7A" d="m27.984 17.299-4.632-5.156.025.09 9.337 10.392c.03.012.06.024.09.039l-3.807-4.237a22.675 22.675 0 0 1-1.013-1.128Z"/><path fill="#7A7A7A" d="m32.715 22.62-9.337-10.393c1.027 3.667 4.392 8.274 9.337 10.392Z"/><defs><radialGradient id="a" cx="0" cy="0" r="1" gradientTransform="matrix(-3.6 7.95754 -7.7566 -3.50909 29.55 13.554)" gradientUnits="userSpaceOnUse"><stop stop-color="#13B1E2"/><stop offset=".24" stop-color="#008FDD"/><stop offset=".479" stop-color="#0070C1"/><stop offset="1" stop-color="#381E80"/></radialGradient></defs></svg>