<svg xmlns="http://www.w3.org/2000/svg" fill="none" viewBox="0 0 60 40"><path fill="#FAFAFA" d="M0 5a5 5 0 0 1 5-5h50a5 5 0 0 1 5 5v30a5 5 0 0 1-5 5H5a5 5 0 0 1-5-5V5Z"/><path fill="#CB2120" d="M9.387 7.254c-2.893 0-5.345 2.638-5.3 4.397.044 1.76 3.224 2.49 3.43 2.582.213.085 1.494.436 1.472 1.358-.015.922-1.472 1.745-2.216 1.731-.736-.014-.92-.922-.03-1.484 0 0-.272-.247-.92-.247-.647 0-2.532.204-2.819 2.217 0 0-.243 2.448 3.026 2.448 3.268 0 5.587-2.174 5.734-4.897 0 0 .147-2.434-2.68-3.602 0 0-1.523-.662-1.494-1.597.03-.936 1.473-.978 1.627-.964.147.014.692.035.692.464 0 0 .11.837-1.038.33 0 0-.118 1.387 1.458 1.556 1.582.176 1.81-1.4 1.788-1.57.023-.013.155-2.722-2.73-2.722Zm30.298 3.426c-1.222.085-2.363.824-2.65 1.084v-1.027h-2.82v5.129s-1.096 1.526-2.517 1.569c0 0-.736.07-1.052-.634 0 0 2.952-.07 3.18-3.257 0 0 .118-2.765-2.532-2.857 0 0-2.85-.246-3.99 3.673 0 0-.243-3.644-2.591-3.708 0 0-.92-.098-2.091.88v-.824h-2.834v5.58s.037.429-.272.436c0 0-.354.028-.34-.45v-5.587h-2.65v5.636s0 .668-.573.626c0 0-.486 0-.5-.64v-5.6h-2.79v5.318s-.09 2.681 2.2 2.751c0 0 1.553.07 1.686-1.083 0 0 .604 1.14 1.612 1.083 0 0 .994.05 1.553-.802v3.265h2.893v-3.532s.707 1.09 2.23 1.062c1.524-.028 2.393-2.504 2.422-3.229 0 0 .089 3.257 3.298 3.243 0 0 2.393.113 3.644-1.526v1.484h2.68s-.575-5.516 2.06-5.804c0 0 .781-.134.737.717 0 0 .03.591-1.023.247 0 0 .014 1.294 1.987 1.512 0 0 1.414.085 1.568-1.829.155-1.893-1.303-2.99-2.525-2.906ZM23.44 17.005c-.802-.02-.802-.69-.802-.69v-3.517c0-.5.603-.556.603-.556 1.163.042 1.163 1.808 1.186 2.575.022.767-.185 2.21-.987 2.188Zm6.706-1.343s-.545-2.787 1.406-2.963c0 0 .744.022.744.767 0 .753-1.163 2.217-2.15 2.196Z"/><path fill="#110593" d="M35.982 21.87h-2.915v10.018h8.046V29.13h-5.13v-.935h4.438v-2.787h-4.439v-.738h5.131v-2.786h-5.13v-.015ZM8.562 31.944h2.981V21.869H8.562v10.076Zm39.603-4.088s2.547-2.406 2.584-4.053c.03-1.646-2.223-1.9-2.915-1.9h-.28l-2.466-.027h-2.915v10.075h2.915v-2.723L49.925 33h4.836l-6.596-5.143Zm-1.457-2.73c-.118.113-1.517 1.4-1.517 1.4v-2.026h1.288s.427.028.427.302c0-.007-.08.204-.198.324ZM29.225 21.87H23.66v2.787h2.65v7.289h2.915v-7.29h2.716V21.87h-2.716Zm-9.54 4.644-3.99-4.65-.015.006v-.006h-2.915v10.075h2.915v-5.242l4.005 5.2v.035H22.6V21.855h-2.915v4.658Z"/><path fill="#5BAC3E" d="M55.997 20.85a.249.249 0 0 0 .243-.254c0-.14-.11-.253-.243-.253H54.04a1.486 1.486 0 0 1-.876.281c-.331 0-.633-.105-.876-.281h-6.161a1.486 1.486 0 0 1-.876.281c-.332 0-.633-.105-.876-.281h-5.418a.249.249 0 0 0-.243.253c0 .14.11.253.243.253M54.563 18.894h.265l.015-.014c0-.007.228-.162.235-.338 0-.091-.088-.162-.235-.183a12.396 12.396 0 0 0-.596-.035c.147.162.257.359.316.57ZM46.642 18.859l5.116.021a1.37 1.37 0 0 1 .405-.647 1040.16 1040.16 0 0 0-6.33-.253c.397.161.692.485.81.879ZM56.226 7.004l-11.55 1.288c-.096.035-.088.077-.081.098.007.021.007.05.096.063.11.015.331.015.581.015h.177c.817-.015 4.41-.148 7.104-.247l-.39 1.724c-.899.056-1.856.12-2.732.183.14-.528.258-.936.295-1.098-.265-.562-.7-.112-.714-.035 0 .028-.096.514-.214 1.175-1.354.092-2.4.162-2.525.176-.242.063-.073.162-.007.162h2.473c-.11.612-.242 1.316-.353 1.942l-2.385.155c-.339.14.088.182.088.182l2.245-.049c-.147.81-.265 1.428-.265 1.428.11.387.273-.028.273-.028s.17-.605.383-1.407l2.834-.063-.243 1.097s.14.247.243-.028c.03-.07.176-.492.383-1.076l1.913-.042c.597-.338-.066-.507-.066-.507l-1.693.113c.184-.528.39-1.126.596-1.703h2.665c-.324 1.287-.684 2.73-.736 2.906-.096.33.133.253.133.253l.051-.105s1.642-4.074 2.098-5.474c.339-1.035-.287-1.126-.677-1.098Zm-4.579 5.22-2.841.184c.169-.62.36-1.31.522-1.914h2.71l-.391 1.73Zm4.233-3.84s-.14.569-.332 1.329c-.397.028-1.42.091-2.65.176.287-.823.523-1.506.597-1.71 1.207-.042 2.083-.077 2.171-.077.273.007.214.281.214.281Z"/><path fill="#5BAC3E" d="M42.174 7.585c.404.387 1.133 1.02 1.148 1.034a2.147 2.147 0 0 1 .397.816c.126.528 1.075 4.644 1.075 4.651 0 0 .022.113.022.303 0 .323-.059.837-.36 1.294-.494.746-1.428 2.062-1.428 2.069a1.134 1.134 0 0 0-.133.5c0 .14.037.288.162.4.125.113.316.183.618.19h.192a1.42 1.42 0 0 1 .905-.907h-.051c-.015 0-.11 0-.184-.028-.081-.029-.133-.064-.133-.134 0-.056.037-.155.162-.303.493-.57 1.362-1.54 1.37-1.548l.014-.014c.059-.063.42-.38 1.803-.429 1.752-.063 4.513-.26 5.212-.33.353-.036.685-.07.95-.113.265-.05.441-.085.522-.169.104-.127.207-.43.221-.514.008-.02.008-.035.008-.056 0-.084-.074-.148-.155-.148-.066 0-.14.043-.191.113-.052.077-.118.14-.162.183-.044.042-.081.056-.081.063l-.015.007v.007l-.007.007c-.03.014-.118.057-.368.085-.126.014-1.855.063-3.548.105-1.694.05-3.343.092-3.35.092h-.037c-.154 0-.743-.043-1.016-.746-.161-.415-.566-1.787-.92-3.06-.36-1.267-.67-2.428-.67-2.428a1.25 1.25 0 0 0-.522-.619 159.07 159.07 0 0 0-1.517-.886l-.007-.008h-.015c-.007 0-.044 0-.088.015-.044.014-.103.056-.096.126 0 .028.008.056.022.092.023.063.118.154.25.288Z"/><path fill="#CB2120" d="M53.17 18.078c-.669 0-1.214.52-1.214 1.161 0 .64.545 1.16 1.215 1.16s1.215-.52 1.215-1.16c0-.64-.545-1.16-1.215-1.16Zm0 1.703c-.308 0-.559-.24-.559-.535 0-.295.25-.542.56-.542.31 0 .56.24.56.542 0 .296-.25.535-.56.535ZM45.22 18.078c-.67 0-1.214.52-1.214 1.161 0 .64.545 1.16 1.215 1.16s1.214-.52 1.214-1.16c0-.64-.544-1.16-1.214-1.16Zm0 1.703c-.308 0-.559-.24-.559-.535 0-.295.25-.542.56-.542.309 0 .56.24.56.542 0 .296-.251.535-.56.535Z"/></svg>