<svg xmlns="http://www.w3.org/2000/svg" fill="none" viewBox="0 0 60 40"><path fill="#FAFAFA" d="M0 5a5 5 0 0 1 5-5h50a5 5 0 0 1 5 5v30a5 5 0 0 1-5 5H5a5 5 0 0 1-5-5V5Z"/><path fill="#fff" d="M3.525 12.508h50.68c1.245 0 2.257.968 2.257 2.16v10.66c0 1.193-1.012 2.162-2.257 2.162H5.763c-1.245 0-2.231-.969-2.231-2.161V12.508h-.007Z"/><path fill="#00902D" d="M54.205 28H5.763C4.239 28 3 26.802 3 25.33V12h51.211C55.748 12 57 13.198 57 14.67v10.66c-.013 1.472-1.258 2.67-2.795 2.67ZM4.057 13.018V25.33c0 .913.765 1.652 1.706 1.652h48.442c.953 0 1.725-.74 1.725-1.652V14.67c0-.913-.772-1.652-1.725-1.652H4.057Z"/><path fill="#E71100" d="M5.231 13.962h47.424c1.16 0 2.101.776 2.101 1.738v8.593c0 .963-.94 1.739-2.101 1.739H7.313c-1.16 0-2.082-.776-2.082-1.739V13.962Z"/><path fill="#FFED00" d="M8.299 22.728c.039.267.123.465.24.602.22.242.596.36 1.128.36.318 0 .577-.03.778-.093.377-.124.565-.348.565-.677 0-.192-.091-.341-.28-.447-.18-.105-.48-.192-.881-.273l-.688-.137c-.674-.136-1.135-.285-1.388-.447-.428-.267-.642-.689-.642-1.266 0-.522.208-.956.63-1.304.414-.348 1.03-.522 1.841-.522.675 0 1.252.162 1.725.49.48.33.727.802.753 1.423h-1.271c-.026-.354-.195-.603-.513-.752a1.85 1.85 0 0 0-.785-.149c-.35 0-.629.063-.836.193-.208.13-.312.304-.312.534 0 .211.104.366.312.465.13.069.415.15.843.243l1.109.242c.486.105.85.248 1.096.422.376.273.564.67.564 1.192 0 .534-.22.981-.668 1.329-.447.354-1.076.527-1.894.527-.83 0-1.491-.173-1.965-.521-.48-.348-.713-.826-.713-1.434h1.252ZM13.215 18.686h1.342v3.595c0 .404.052.696.156.882.162.33.506.49 1.044.49.532 0 .882-.16 1.038-.49.104-.186.156-.478.156-.882v-3.595h1.342v3.595c0 .621-.104 1.106-.311 1.453-.39.634-1.129.95-2.225.95s-1.835-.316-2.23-.95c-.208-.347-.312-.832-.312-1.453v-3.595ZM23.625 18.835c.233.093.428.23.59.41.136.149.24.31.318.49.077.18.116.385.116.615 0 .28-.078.552-.227.82-.149.266-.402.459-.752.57.292.112.5.261.623.46s.181.503.181.913v.39c0 .268.013.448.033.547.032.15.116.261.246.336v.149h-1.46c-.038-.13-.07-.236-.083-.317a3.138 3.138 0 0 1-.059-.503l-.006-.546c-.007-.373-.078-.621-.208-.745-.136-.125-.383-.187-.752-.187h-1.29v2.291h-1.291V18.68h3.028c.422.012.76.062.993.155Zm-2.737.87v1.57h1.426c.286 0 .493-.031.636-.093.253-.112.376-.33.376-.658 0-.354-.123-.59-.363-.714-.136-.069-.337-.106-.61-.106h-1.465ZM30.519 18.686v1.037h-1.894v4.812h-1.336v-4.812h-1.9v-1.037h5.13ZM32.504 18.686h-1.316v5.85h1.316v-5.85Z"/><path fill="#fff" d="M34.047 15.684h2.568l1.207 5.948h.012l1.207-5.948h2.568v9.015h-1.654v-6.743h-.02l-1.387 6.743h-1.446l-1.382-6.743h-.02v6.743h-1.653v-9.015Z"/><path fill="#fff" d="M43.27 15.684h2.147l2.263 9.015H45.8l-.318-1.466h-2.303l-.318 1.466h-1.88l2.289-9.015Zm1.07 2.272h-.013l-.733 3.409h1.479l-.733-3.409Z"/><path fill="#fff" d="m49.081 20.017-2.043-4.333h2.089l.966 2.427.967-2.427h2.088l-2.043 4.333 2.29 4.682h-2.18l-1.122-2.726-1.122 2.726h-2.179l2.29-4.682Z"/></svg>