<svg xmlns="http://www.w3.org/2000/svg" fill="none" viewBox="0 0 60 40"><path fill="#000" d="M0 4.832A4.832 4.832 0 0 1 4.832 0h50.336A4.832 4.832 0 0 1 60 4.832v30.336A4.832 4.832 0 0 1 55.168 40H4.832A4.832 4.832 0 0 1 0 35.168V4.832Z"/><path fill="#000" d="M29.002 10.382h.25l.062.13.125.066.124-.065.063-.066-.063-.065-.124-.065c-.125 0-.187-.065-.25-.13l-.062-.196.062-.13.125-.131c.062 0 .125-.065.25-.065.124 0 .186 0 .249.065.062.065.125.13.125.26h-.25l-.062-.13h-.187v.13l.124.066c.125 0 .187.065.25.065l.125.13.062.131-.25.13-.124.131-.25.066c-.187 0-.25-.066-.311-.131-.063-.065-.063-.13-.063-.196Z"/><path fill="#000" d="M29.938 9.665h.374l.187.652.125-.652h.374v1.044h-.25v-.783l-.187.783h-.187l-.187-.783v.783h-.25"/><path fill="#FFDB00" d="M24.871 29.92h-8.646L12.07 10.709h6.866l1.78 11.842 1.865-11.842h7.884l1.865 12.173 1.864-12.173h6.782l-4.154 19.213h-8.476l-1.78-12.422M11.054 29.838H9.868l-4.07-19.13h1.188M14.191 29.838H13.09l-4.153-19.13h1.186"/><path fill="#fff" d="M35.551 10.708v11.677c0 1.49.17 2.65.424 3.478.254.745.678 1.49 1.272 2.07l3.73-17.225"/><path fill="#FFDB00" fill-rule="evenodd" d="M46.183 24.372c.26-.414.39-1.003.39-1.655V10.709H54.2v11.677c0 2.733-.763 4.72-2.288 6.045-1.47 1.197-3.728 1.856-6.697 1.902v.003h-.34c-1.864 0-3.39-.166-4.577-.58a6.16 6.16 0 0 1-2.543-1.325l3.815-17.722h1.44v11.925c0 .828.086 1.49.425 1.905.042.051.086.1.131.147a1.626 1.626 0 0 0 1.32.512c.466-.028.859-.271 1.176-.66a1.61 1.61 0 0 0 .12-.166Z" clip-rule="evenodd"/></svg>