<svg fill="none" xmlns="http://www.w3.org/2000/svg" viewBox="0 0 271 349"><path d="M87.43 283.242s-13.98 8.129 9.948 10.88c28.989 3.307 43.805 2.833 75.75-3.213 0 0 8.399 5.266 20.128 9.827-71.613 30.693-162.075-1.777-105.826-17.494Zm-8.751-40.052s-15.68 11.607 8.267 14.083c30.966 3.195 55.421 3.456 97.737-4.692 0 0 5.853 5.934 15.056 9.179-86.584 25.318-183.024 1.996-121.06-18.57Z" fill="#5382A1"/><path d="M152.45 175.25c17.646 20.316-4.636 38.597-4.636 38.597s44.805-23.13 24.228-52.093c-19.218-27.011-33.956-40.431 45.828-86.703 0 0-125.234 31.278-65.42 100.199Z" fill="#F8981D"/><path d="M247.165 312.866s10.345 8.524-11.394 15.118c-41.336 12.522-172.045 16.304-208.355.499-13.053-5.678 11.424-13.558 19.124-15.212 8.03-1.741 12.619-1.417 12.619-1.417-14.516-10.226-93.825 20.079-40.285 28.758 146.011 23.679 266.164-10.663 228.291-27.746ZM94.152 201.692s-66.487 15.792-23.544 21.527c18.131 2.427 54.276 1.878 87.944-.943 27.515-2.321 55.144-7.256 55.144-7.256s-9.702 4.155-16.722 8.948c-67.516 17.757-197.945 9.496-160.396-8.667 31.755-15.35 57.574-13.609 57.574-13.609Zm119.27 66.668c68.633-35.665 36.9-69.938 14.75-65.321-5.429 1.13-7.849 2.109-7.849 2.109s2.015-3.157 5.864-4.523c43.819-15.406 77.519 45.435-14.145 69.532 0 0 1.062-.948 1.38-1.797Z" fill="#5382A1"/><path d="M172.042.333s38.011 38.023-36.051 96.492c-59.39 46.902-13.543 73.644-.025 104.198-34.666-31.277-60.107-58.811-43.04-84.438C117.979 78.969 187.379 60.73 172.043.333Z" fill="#F8981D"/></svg>