<svg fill="none" xmlns="http://www.w3.org/2000/svg" viewBox="0 0 84 110"><path d="M52.154 26.076a16.558 16.558 0 0 0 2.619-1.729c4.546-3.607 7.214-9.141 7.239-14.996a15.917 15.917 0 0 0-1.31-6.498 1.319 1.319 0 0 1 .074-1.285A1.247 1.247 0 0 1 61.913 1c.445.025.865.296 1.062.716a18.467 18.467 0 0 1 1.581 7.635c-.024 6.67-3.063 12.946-8.251 17.047a19.55 19.55 0 0 1-2.792 1.853l-1.359-2.175Z" fill="#000"/><path d="M66.237 38.281a8.658 8.658 0 0 1 1.358 6.819L56.8 104.073c-.79 4.373-3.533 6.498-8.054 5.732l-42.79-7.511C-.05 101.256-.594 97.452.42 91.967L11.02 34.205c.47-2.594 1.581-3.928 4.175-5.51L39.381 13.28a7.534 7.534 0 0 1 3.805-1.285c2.693 0 3.805.766 6.275 4.027l16.776 22.26Zm-20.704.79H35.157L26.93 82.48c-1.606 8.252-4.225 10.13-7.61 10.13a13.91 13.91 0 0 1-3.039-.272l-1.26 7.906c1.853.444 3.73.642 5.633.617 4.225 0 8.252-1.408 11.019-4.447 2.767-3.014 4.472-7.634 5.905-15.021l7.955-42.321Zm-9.116-11.734c0 3.285 2.149 5.509 5.287 5.509 3.582 0 6.448-2.397 6.547-6.226.074-1.482-.47-2.94-1.532-3.978a5.393 5.393 0 0 0-4.027-1.531 6.172 6.172 0 0 0-4.472 1.803 5.964 5.964 0 0 0-1.803 4.422Z" fill="#A6C544"/><path d="M82.864 3.15a1.31 1.31 0 0 0-1.78.395c-.073.123-7.411 11.513-16.38 11.513a36.615 36.615 0 0 1-5.929-.396 54.03 54.03 0 0 0-8.474-.519c-8.202 0-12.501 4.3-12.501 8.549 0 2.767 1.927 7.461 9.141 7.461h.272c.395-.815.642-1.705.667-2.619-.321.05-.618.05-.939.074-6.275 0-6.596-4.076-6.596-4.892 0-2.915 3.483-5.978 9.931-5.978 2.718-.05 5.436.123 8.129.494 2.075.296 4.175.445 6.275.42 10.352 0 18.208-12.205 18.53-12.724.197-.296.247-.642.197-.963a1.118 1.118 0 0 0-.543-.816Z" fill="#000"/></svg>