<svg fill="none" xmlns="http://www.w3.org/2000/svg" viewBox="0 0 100 100"><g clip-path="url(#a)"><path d="M32.414 76.725a43.954 43.954 0 0 1 2.423-.99 44.017 44.017 0 0 1 6.345-1.883 44.06 44.06 0 0 1 4.897-.755 153.01 153.01 0 0 1-3.05 8.659c.047.555.073 1.114.087 1.675a35.519 35.519 0 0 1 13.768 0c.014-.56.04-1.12.087-1.675a152.696 152.696 0 0 1-3.05-8.66c1.647.16 3.281.414 4.896.757a44.05 44.05 0 0 1 6.345 1.883 43.384 43.384 0 0 1 17.491 12.111C93.271 78.679 100 65.129 100 50c0-27.614-22.386-50-50-50S0 22.386 0 50c0 15.13 6.73 28.678 17.346 37.847a43.387 43.387 0 0 1 15.068-11.122Z" fill="#A5DBE8"/><path d="m67.587 76.726 3.104 10.673.88.041c.572 0 .974.15.974.722 0 .95.05 2.017.14 2.95.774.656 1.715 1.397 2.43 2.116a50.122 50.122 0 0 0 7.539-5.38 43.385 43.385 0 0 0-15.067-11.122ZM61.518 76.619l3.644-.883a43.955 43.955 0 0 0-2.793-.956 44.012 44.012 0 0 0-3.552-.927 44.06 44.06 0 0 0-4.896-.756c.924 2.903 1.944 5.79 3.05 8.66a28.836 28.836 0 0 0-.087 1.674c2.582.51 5.121 1.395 7.469 2.433l-2.835-9.245Z" fill="#525353"/><path d="M24.886 93.228c.58.339 1.166.669 1.762.984.209-1.002.543-2.39.643-3.421-.773.657-1.691 1.718-2.405 2.438ZM64.292 85.771a35.082 35.082 0 0 0-7.409-2.34 35.522 35.522 0 0 0-13.767 0c-2.582.508-5.276 1.28-7.623 2.319l-.25 1.555h29.514l-.465-1.534Z" fill="#000"/><path d="M27.2 91.086c.091-.932.157-1.763.157-2.713 0-.571.392-.937.964-.937l.937-.033 3.156-10.678a43.39 43.39 0 0 0-15.068 11.122 50.122 50.122 0 0 0 7.54 5.38c.714-.719 1.457-1.409 2.23-2.066" fill="#525353"/><path d="M73.067 92.986c.202 1.016.248 1.218.285 1.226a49.262 49.262 0 0 0 1.763-.984 36.34 36.34 0 0 0-2.255-2.09l.207 1.848Z" fill="#000"/><path d="m64.292 85.772.465 1.533h6.037l-3.207-10.58a44.17 44.17 0 0 0-2.424-.989l-3.645.883 2.774 9.153Z" fill="#AA9678"/><path d="m29.312 89.442.095-.067h-.09l-.005.067Z" fill="#C4B6A1"/><path d="M70.683 89.375h-.09l.094.067c0-.022-.003-.045-.004-.067Z" fill="#AA9678"/><path d="m70.58 89.22-20.623.024L50 100a49.792 49.792 0 0 0 21.443-4.824c-.425-1.864-.467-3.872-.536-5.826-.032-.023-.327-.13-.327-.13Z" fill="#AA9678"/><path d="M49.967 89.288s-20.737-.026-20.768-.004c-.069 1.955-.472 4.273-.642 5.891A49.792 49.792 0 0 0 50 100l.012-10.677-.045-.035Z" fill="#C4B6A1"/><path d="M50 88.34v1.035-1.035Z" fill="#786453"/><path d="M64.316 80.17Z" fill="#525353"/><path d="M82.757 50.454v-.014.014Z" fill="#BBBCBD"/><path d="m82.7 49.675.008.038c0 .008.003.016.004.024v.003c.024.19.033.39.037.592.001.037.008.072.008.108V50.47c0 .04-.008.077-.008.116a5.977 5.977 0 0 1-.036.58v.003l-.006.029c-.001.015-.006.029-.008.044a5.343 5.343 0 0 1-.112.591v.003l.006-.007.003-.01v.001l1.309-1.37-1.32-1.38v.002c.05.193.088.395.116.604Z" fill="#676A6A"/><path d="M82.7 51.24c.003-.025.01-.048.013-.074.023-.188.032-.384.036-.58 0-.045.008-.087.008-.132 0-.042-.007-.081-.007-.122a5.838 5.838 0 0 0-.037-.592c-.004-.023-.01-.043-.012-.065a5.298 5.298 0 0 0-.115-.604c-.017-.067-.041-.127-.06-.192a3.868 3.868 0 0 0-.472-1.024 3.13 3.13 0 0 0-.24-.312 2.023 2.023 0 0 0-.258-.24c-.035-.027-.071-.045-.106-.068a1.475 1.475 0 0 0-.347-.167 1.212 1.212 0 0 0-.358-.062 1.214 1.214 0 0 0-.465.101 1.457 1.457 0 0 0-.24.128c-.035.023-.072.04-.106.067a2.057 2.057 0 0 0-.42.441 2.656 2.656 0 0 0-.079.112 3.856 3.856 0 0 0-.47 1.025l-.016.047c-.052.18-.093.368-.127.563-.01.059-.023.116-.032.177a5.386 5.386 0 0 0-.05.676c-.001.032-.006.062-.006.094h.008c0 1.905.9 3.449 2.012 3.449a1.25 1.25 0 0 0 .634-.18 1.62 1.62 0 0 0 .213-.143c.038-.03.073-.067.11-.102.088-.082.173-.176.253-.28.055-.074.11-.147.16-.228.033-.052.063-.109.093-.164.056-.104.11-.212.157-.327.018-.041.037-.082.053-.124a4.608 4.608 0 0 0 .272-1.097Zm-1.883-1.245c-.417 0-.755-.58-.755-1.293 0-.714.338-1.293.755-1.293s.754.579.754 1.293-.337 1.293-.754 1.293Z" fill="#000"/><path d="M80.817 47.41c-.417 0-.755.579-.755 1.292 0 .714.338 1.294.755 1.294s.754-.58.754-1.294c0-.713-.337-1.293-.754-1.293Z" fill="#fff"/><path d="M78.964 48.88c.118-.391.28-.737.471-1.024.026-.039.052-.075.08-.112a2.036 2.036 0 0 1 .42-.441c.033-.027.07-.045.104-.067a1.448 1.448 0 0 1 .347-.168c.117-.037.236-.062.359-.062a1.187 1.187 0 0 1 .464.102c.083.034.162.077.24.128.036.022.072.04.106.067a2.021 2.021 0 0 1 .42.441c.027.037.053.073.079.112.191.287.353.633.471 1.024l-1.78-8.154-1.781 8.154Z" fill="#909393"/><path d="M57.148 50.378a4.823 4.823 0 0 0-.031-.485l-.002-.007a4.753 4.753 0 0 0-.203-.919l-.004-.01a4.462 4.462 0 0 0-.165-.424c0-.003-.003-.006-.004-.009a4.732 4.732 0 0 0-2.516-2.438l-.014-.005a4.68 4.68 0 0 0-.843-.254l-.022-.003a4.685 4.685 0 0 0-1.791-.002l-.03.004c-.287.057-.563.141-.828.247l-.021.008a4.67 4.67 0 0 0-1.451.932l-.005.016-.018.004c-.336.32-.624.687-.855 1.091l-.009.015c-.07.124-.134.253-.192.384l-.02.041a4.54 4.54 0 0 0-.143.374c-.008.025-.019.048-.027.073-.037.118-.068.24-.097.361-.007.036-.018.07-.026.104a4.95 4.95 0 0 0-.058.367c-.005.038-.013.074-.017.112a4.688 4.688 0 0 0 .064 1.401l.003.02c.059.293.146.577.257.848l.004.012a4.726 4.726 0 0 0 2.45 2.516c.012.004.022.01.034.015.123.054.25.1.38.144.021.008.042.017.064.024.119.038.241.068.364.096.033.008.065.02.099.026.119.025.242.042.365.058.037.004.074.012.112.016a4.698 4.698 0 0 0 3.123-.779 4.739 4.739 0 0 0 1.706-2.072c.239-.564.37-1.183.37-1.834v-.032l-.003-.036Zm-4.707-.552a1.77 1.77 0 1 1 0-3.54 1.77 1.77 0 0 1 0 3.54Z" fill="#000"/><path d="M52.44 46.287a1.77 1.77 0 1 0 0 3.539 1.77 1.77 0 0 0 0-3.539Z" fill="#fff"/><path d="m49.2 47.033.017-.004.006-.016 3.244-9.922V34.742a27.65 27.65 0 0 0-5.567-.574c-.634 0-1.264.027-1.89.07l-.274.018a27.876 27.876 0 0 0-9.433 2.452 30.157 30.157 0 0 0-7.04 4.51l-.003.004c-.571.485-1.118.997-1.653 1.522-.1.098-.201.195-.3.294-.503.507-.99 1.03-1.46 1.57-.102.117-.202.237-.303.356a34.556 34.556 0 0 0-1.368 1.712c-.036.05-.07.101-.106.15a34.993 34.993 0 0 0-1.194 1.738c-.075.115-.151.229-.224.345-.309.49-.596.992-.881 1.496h14.78L49.2 47.033Z" fill="#BBBCBD"/><path d="M61.678 45.917a48.923 48.923 0 0 0 .13-2.735c.008-.408.007-.816.005-1.223 0-.118.002-.235.001-.353a62.672 62.672 0 0 0-.116-3.154l-.009-.005-.004-.008a.641.641 0 0 0-.033-.02l-.047-.026c-.193-.111-.667-.383-1.093-.624l-.027-.016-.306-.173-.006-.003-.212-.119-.041-.023a9.93 9.93 0 0 0-.155-.084 29.056 29.056 0 0 0-2.077-.976c-1.681-.71-3.945-1.332-5.22-1.633v2.349l3.215 9.938.004.008a4.742 4.742 0 0 1 1.052 1.487l.004.009c.062.138.117.28.165.425l.004.01a4.685 4.685 0 0 1 .204.918v.007c.02.16.03.322.032.486l.012.026h3.938c.266-1.44.452-2.901.57-4.367.002-.04.007-.081.01-.121Z" fill="#E3DDDB"/><path d="m66.828 42.402-.007.014.007-.014Z" fill="#FCB03F"/><path d="M49.223 47.013a4.787 4.787 0 0 1 .684-.535c.241-.155.498-.288.767-.397l.02-.008c.266-.107.542-.19.829-.247l.03-.005a4.685 4.685 0 0 1 1.791.002l.022.004a4.673 4.673 0 0 1 .857.259c.547.225 1.042.55 1.464.95l-.004-.008-3.216-9.938-3.244 9.922Z" fill="#909393"/><path d="M48.08 52.225a4.646 4.646 0 0 1-.257-.85l-.003-.018a4.688 4.688 0 0 1-.064-1.402c.004-.038.012-.074.017-.112.016-.124.033-.247.058-.367.008-.035.019-.068.026-.103.03-.122.06-.243.097-.362.008-.024.019-.048.027-.073a4.54 4.54 0 0 1 .143-.373c.006-.015.013-.028.02-.042.058-.131.122-.26.192-.384l.009-.014c.23-.405.52-.773.855-1.092L35.55 50.405h-.026l13.519 3.3a4.726 4.726 0 0 1-.96-1.47l-.004-.01Z" fill="#676A6A"/><path d="M78.79 49.667c.009-.06.022-.118.032-.177.034-.195.075-.384.127-.563.006-.02.008-.044.015-.063l1.78-8.155v-4.65C79.29 34.857 77.731 34.2 76.11 34.2c-2.05 0-3.962 1.132-5.39 2.53-1.565 1.53-2.774 3.455-3.75 5.398-.046.09-.092.175-.136.265.3.261.599.526.893.795a72.533 72.533 0 0 1 1.96 1.867c.298.296.592.597.887.898.312.318.625.636.933.959a92.227 92.227 0 0 1 1.665 1.796c.468.518.934 1.04 1.392 1.567h.001l.152.162h4.016c0-.032.007-.062.007-.094.004-.232.02-.459.051-.676ZM66.832 42.414l-.004-.012-.007.014a.596.596 0 0 0 .017.017l-.006-.019Z" fill="#E3DDDB"/><path d="m18.35 55.536.036-.09a37.833 37.833 0 0 1 1.862-4.09c.109-.207.215-.414.328-.619.062-.112.132-.22.195-.333.285-.504.572-1.006.881-1.496.073-.117.15-.23.224-.345a35.04 35.04 0 0 1 1.194-1.738c.036-.049.07-.1.106-.15.437-.586.896-1.154 1.368-1.712.101-.119.201-.238.303-.356.47-.539.957-1.063 1.46-1.57.1-.1.2-.196.3-.294a31.098 31.098 0 0 1 1.653-1.522l.004-.003c2.246-7.525 9.5-12.15 17.633-12.15 3.274 0 6.53.944 9.32 2.65 2.86 1.75 4.812 3.46 6.327 6.45.007.016.015.03.023.045.038.076.08.149.118.225l.004.008.01.006a30.153 30.153 0 0 1 3.624 2.634c.384.324.76.656 1.13.998.122.112.248.218.368.332l.007-.014a.074.074 0 0 1 .004-.01l.124-.254c1.146-7.233 4.787-11.177 8.55-11.177 2.838 0 4.9 1.691 6.457 6.244l.016.049.004.005c.44.478.868 1.005 1.284 1.582l.024.032c.022.066.041.134.063.2l-.059-.238c-4.681-13.86-17.79-23.839-33.231-23.839-19.367 0-35.067 15.7-35.067 35.067 0 3.818.61 7.494 1.743 10.914 0-.006.003-.012.004-.02a37.631 37.631 0 0 1 1.606-5.421Z" fill="#525353"/><path d="m83.82 50.451-1.224 1.368-.002.01c-.047.18-.104.347-.167.51-.016.042-.035.082-.053.123-.048.115-.1.224-.157.327-.03.056-.06.112-.092.164-.051.081-.106.155-.161.228-.08.104-.165.198-.253.28-.037.035-.072.072-.11.102a1.633 1.633 0 0 1-.296.187c-.176.086-.36.136-.551.136-1.111 0-2.013-1.544-2.013-3.449h-4.037l.002.004a128.328 128.328 0 0 1 2.24 2.66c.706.863 1.403 1.733 2.091 2.61l.102.128c.653.833 1.299 1.671 1.939 2.512l.187.243a345.968 345.968 0 0 1 2.027 2.697 35 35 0 0 0 1.84-10.853l-1.136-.044-.177.057Z" fill="#fff"/><path d="m44.736 34.256.274-.019c.626-.043 1.256-.07 1.89-.07 1.902 0 3.76.204 5.567.575 1.275.3 3.54.922 5.22 1.632.706.298 1.399.624 2.078.976l.154.084.042.024.212.119.006.003.306.173.027.015c.432.245.91.52 1.093.625.024.013.034.02.047.026.01.006.03.017.033.02-.037-.077-.08-.15-.119-.225l-.022-.045c-1.515-2.99-3.847-5.554-6.709-7.304-2.79-1.707-6.045-2.65-9.319-2.65-8.133 0-15.006 5.478-17.252 13.003a30.16 30.16 0 0 1 7.04-4.51 27.875 27.875 0 0 1 9.432-2.452Z" fill="#000"/><path d="m83.291 38.873-.025-.033a16.997 16.997 0 0 0-1.283-1.58l-.011-.014c-.2-.217-.402-.423-.606-.62-.077-.073-.157-.137-.235-.208-.128-.117-.256-.238-.386-.345v4.652l1.78 8.156c.02.063.043.122.06.188l1.234 1.382.012-.014h1.291c.002-.12.01-.237.01-.357v-.002a35 35 0 0 0-1.778-11.006c-.022-.066-.04-.133-.063-.2Z" fill="#BBBCBD"/><path d="M70.718 36.73c1.43-1.397 3.34-2.53 5.39-2.53 1.623 0 3.181.658 4.636 1.86v.014c.13.107.259.227.387.344.078.07.158.135.235.21.204.195.405.402.605.618l.012.014a.021.021 0 0 0-.004-.005l-.016-.05c-1.558-4.552-4.07-7.51-6.906-7.51-3.764 0-6.955 5.21-8.101 12.444l.012-.01c.977-1.943 2.186-3.868 3.75-5.398ZM65.632 81.186s-.506-.402-1.15-1.142a11.558 11.558 0 0 1-1.08-1.449c-.243-.385-.437-.853-.65-1.316-.248-.536-.25-.892-.392-1.392a9.625 9.625 0 0 1-.266-4.067c.052-.36.123-.73.218-1.109.284-1.133.774-2.341 1.539-3.616l.194-.437c.25-.416.306-.398.543-.8 3.346-5.645 5.15-9.914 4.268-16.488a52.58 52.58 0 0 0-.33-2.014c-.05.342-.239 1.43-.244 1.453-.034.15-.125.313-.159.415-1.453 4.3-3.74 7.465-7.032 11.037-.446.484-.913.975-1.391 1.47-.805.834-1.649 1.686-2.541 2.575l-1.09 1.08c-.339.336-.761 1.054-1.265 1.583-.311.871-.665 1.853-.963 2.886-.135-.051-.264-.097-.4-.15-6.395-2.473-10.675-5.777-10.675-5.777s3.293 4.288 8.843 8.314c.537.39 1.066.727 1.585 1.027-.229 3.623 1.37 7.102 8.585 8.139 1.22.175 2.469.167 3.727.025-.012-.037.07-.036.064-.057-.007-.021.067-.077.067-.077" fill="#000"/><path d="M61.773 71.86c6.405 1.033 15.886.863 25.727-3.745.237-.11.498.182.735.065 0 0-6.726 6.87-14.758 10.754-.235.114-.467.234-.704.342-.776.355-1.566.664-2.358.949-1.555.558-3.13.982-4.693 1.178-.072.01-.144.023-.216.03a8.237 8.237 0 0 1-.04-.12s-.507-.402-1.15-1.142a11.443 11.443 0 0 1-1.08-1.45c-.243-.384-.48-.81-.693-1.272a10.272 10.272 0 0 1-.558-1.499 9.66 9.66 0 0 1-.367-2.965c.01-.357.048-.726.101-1.102l.054-.024Z" fill="#9F2254"/><path d="M57.182 64.567c.893-.889 1.737-1.74 2.541-2.575.478-.495.946-.986 1.392-1.47 3.29-3.573 5.707-6.916 7.16-11.216a4.015 4.015 0 0 0 .118-.458c.034-.16.067-.339.1-.54.013-.139.448-.418.46-.548-.364-1.873-1.204-3.842-2.12-5.345a.332.332 0 0 1 .005.018.586.586 0 0 1-.017-.017c-.12-.113-.246-.22-.368-.331-.37-.342-.746-.675-1.13-.998a30.197 30.197 0 0 0-3.625-2.635c.064 1.053.105 2.104.116 3.154.002.118-.002.235-.002.353.003.407.004.815-.004 1.222a49.487 49.487 0 0 1-.13 2.736c-.003.04-.008.08-.01.12a42.985 42.985 0 0 1-.57 4.368l-.462 2.187c-.966 3.916-2.928 7.469-4.542 11.137a43.733 43.733 0 0 0-1.19 2.958l-.1.283c.504-.53.95-.987 1.289-1.323l1.09-1.08Z" fill="#FCB03F"/><path d="M36.015 85.63c2.347-1.038 4.52-1.69 7.101-2.199a28.66 28.66 0 0 0-.087-1.675 153.01 153.01 0 0 0 3.05-8.66c-1.647.16-3.281.414-4.896.757-1.198.255-2.38.574-3.553.927-.941.284-1.87.61-2.793.956l3.645.883-2.932 9.205.465-.194Z" fill="#525353"/><path d="M81.078 58.35c-.64-.84-1.286-1.678-1.94-2.511l-.1-.129a165.386 165.386 0 0 0-2.118-2.64 128.328 128.328 0 0 0-2.214-2.63l-.143-.165a106.126 106.126 0 0 0-3.057-3.363c-.308-.323-.62-.642-.933-.96-.295-.3-.588-.602-.888-.897a73.772 73.772 0 0 0-1.96-1.867c-.294-.27-.592-.535-.893-.795a.074.074 0 0 0-.004.009c.633 1.821 1.356 3.665 1.719 5.564.094.494.172.975.235 1.444.883 6.573-1.224 10.865-4.569 16.51-.24.405-.486.817-.737 1.237-.765 1.275-1.255 2.483-1.54 3.617-.094.378-.165.748-.217 1.109 6.56 1.058 16.424 1.256 26.517-3.703 0 0-1.98-2.91-4.958-6.908a343.446 343.446 0 0 0-2.014-2.678l-.186-.244Z" fill="#DF0067"/><path d="m35.201 87.47 3.281-10.85-3.645-.884c-.816.307-1.625.634-2.423.99l-3.25 10.744 3.628.057 2.41-.057Z" fill="#AA9678"/><path d="M37.508 82.775c.32.123.646.234.97.347a34.947 34.947 0 0 0 11.586 1.972c4.632 0 9.05-.907 13.097-2.538.214-.087.424-.181.636-.271.343-.147.685-.297 1.023-.454.302-.14.604-.28.902-.429-.072.01-.144.023-.216.031-1.258.142-2.507.15-3.727-.025-7.215-1.038-8.814-4.516-8.585-8.14-.519-.299-1.048-.636-1.585-1.026-5.55-4.026-8.843-8.315-8.843-8.315s4.28 3.305 10.674 5.778c.137.053.266.099.4.15.3-1.033.653-2.015.964-2.886l.1-.283a43.68 43.68 0 0 1 1.19-2.958c1.613-3.668 3.575-7.22 4.541-11.137l.463-2.187h-3.946v.008l-.002.001.002.033a4.698 4.698 0 0 1-2.077 3.906 4.69 4.69 0 0 1-3.123.779c-.038-.004-.074-.012-.112-.017a4.973 4.973 0 0 1-.365-.057l-.099-.026a4.56 4.56 0 0 1-.364-.097l-.065-.023a4.714 4.714 0 0 1-.38-.144l-.032-.016a4.736 4.736 0 0 1-.39-.194l-.007-.004a4.757 4.757 0 0 1-1.094-.85l-13.519-3.299H20.771c-.063.113-.134.22-.196.333-.112.205-.218.412-.327.618a37.588 37.588 0 0 0-1.023 2.087c-.298.66-.58 1.328-.84 2.004l-.035.09a37.631 37.631 0 0 0-1.605 5.422c2.322 7.084 6.84 13.171 12.748 17.462.172.124.354.236.528.357a34.704 34.704 0 0 0 7.487 3.997Z" fill="#fff"/><path d="M72.883 91.161a29.133 29.133 0 0 1-.147-2.822c0-.57-.463-1.034-1.034-1.034H28.298c-.571 0-1.034.463-1.034 1.034 0 .95-.056 1.89-.147 2.822-.101 1.031-.26 2.048-.469 3.05.63.333 1.264.657 1.91.964.424-1.864.685-3.78.754-5.734.001-.022.004-.044.004-.067h41.368c0 .023.003.045.004.067.069 1.955.33 3.87.755 5.734a50.41 50.41 0 0 0 1.909-.964 28.73 28.73 0 0 1-.47-3.05Z" fill="#8B7460"/></g><defs><clipPath id="a"><path fill="#fff" d="M0 0h100v100H0z"/></clipPath></defs></svg>