<svg fill="none" xmlns="http://www.w3.org/2000/svg" viewBox="0 0 132 150"><g clip-path="url(#a)"><path d="M115.631 29.495c-.088-.794-.794-1.146-1.323-1.235-.529-.088-11.108-.176-11.108-.176s-8.904-8.64-9.785-9.521c-.882-.882-2.557-.617-3.262-.44 0 0-1.675.528-4.497 1.41a29.358 29.358 0 0 0-2.115-5.202c-3.174-6.083-7.758-9.257-13.4-9.257-.353 0-.794 0-1.147.089a3.84 3.84 0 0 1-.529-.617C65.997 1.9 62.911.666 59.21.755c-7.23.176-14.37 5.377-20.277 14.722-4.144 6.524-7.23 14.723-8.11 21.07-8.288 2.557-14.106 4.32-14.195 4.409-4.143 1.322-4.32 1.41-4.848 5.377-.441 2.91-11.373 87.631-11.373 87.631l91.774 15.869 39.76-9.874S115.719 30.2 115.631 29.495Zm-34.559-8.552c-2.116.617-4.496 1.41-7.14 2.204-.089-3.614-.53-8.728-2.205-13.136 5.554 1.058 8.2 7.23 9.345 10.932Zm-11.901 3.703c-4.85 1.499-10.05 3.085-15.34 4.76 1.498-5.642 4.32-11.284 7.758-14.987 1.322-1.41 3.085-2.909 5.201-3.79 2.028 4.143 2.38 10.05 2.38 14.017ZM59.297 5.603c1.675 0 3.085.353 4.32 1.147-1.94.97-3.88 2.468-5.643 4.408-4.584 4.936-8.11 12.518-9.52 19.924-4.409 1.322-8.64 2.644-12.608 3.879C38.491 23.324 48.19 5.956 59.296 5.603Z" fill="#95BF47"/><path d="M114.309 28.26c-.529-.088-11.109-.176-11.109-.176s-8.904-8.64-9.785-9.521a1.74 1.74 0 0 0-1.235-.529v131.799l39.76-9.874s-16.221-109.67-16.309-110.464c-.176-.794-.794-1.146-1.322-1.235Z" fill="#5E8E3E"/><path d="m70.14 48.714-4.584 17.279s-5.113-2.38-11.284-1.94c-8.992.53-9.08 6.172-8.992 7.67.528 7.758 20.805 9.433 21.951 27.506.882 14.282-7.581 23.98-19.747 24.773-14.635.882-22.658-7.67-22.658-7.67l3.086-13.136s8.11 6.083 14.546 5.731c4.232-.265 5.73-3.703 5.554-6.171-.617-10.05-17.19-9.522-18.249-26.008-.881-13.929 8.287-28.034 28.476-29.357 7.934-.705 11.902 1.323 11.902 1.323Z" fill="#fff"/></g><defs><clipPath id="a"><path fill="#fff" d="M0 0h132v150H0z"/></clipPath></defs></svg>