<svg fill="none" xmlns="http://www.w3.org/2000/svg" viewBox="0 0 109 94"><g clip-path="url(#a)"><path d="M100.689.209H19.606c-6.287 0-10.314 6.683-7.372 12.24l8.11 15.36H5.64a5.407 5.407 0 0 0-4.784 7.925l26.087 49.375a5.41 5.41 0 0 0 9.556 0l7.086-13.338L52.474 88.6c3.128 5.92 11.602 5.93 14.742.017l40.641-76.478c2.876-5.408-1.043-11.93-7.168-11.93ZM64.267 32.886 46.743 65.869a3.6 3.6 0 0 1-6.36 0L23.026 33.025a3.599 3.599 0 0 1 3.17-5.283h34.977a3.502 3.502 0 0 1 3.093 5.144Z" fill="#F71963"/></g><defs><clipPath id="a"><path fill="#fff" d="M0 0h109v94H0z"/></clipPath></defs></svg>