<svg fill="none" xmlns="http://www.w3.org/2000/svg" viewBox="0 0 255 152"><path fill-rule="evenodd" clip-rule="evenodd" d="M23.66.44h206.78a23.664 23.664 0 0 1 21.862 14.613 23.674 23.674 0 0 1 1.798 9.057V103a23.652 23.652 0 0 1-14.606 21.853 23.638 23.638 0 0 1-9.054 1.797h-74.16l10.15 24.95-44.8-24.95h-98A23.66 23.66 0 0 1 0 103V24.11A23.67 23.67 0 0 1 23.66.44Z" fill="#7D57A4"/><path d="M12.79 21.87a8.56 8.56 0 0 1 6.5-3.21c5.274-.367 8.3 2.12 9.08 7.46 3.253 21.66 6.737 40.047 10.45 55.16L61.58 38c2.06-3.907 4.663-5.973 7.81-6.2 4.56-.32 7.41 2.583 8.55 8.71 2.142 12.115 5.434 23.999 9.83 35.49 2.734-26.36 7.297-45.417 13.69-57.17a8 8 0 0 1 6.86-4.6 9.13 9.13 0 0 1 6.55 2.05 8.002 8.002 0 0 1 3.17 6 8.79 8.79 0 0 1-1 5c-4.053 7.52-7.386 20.023-10 37.51-2.58 16.88-3.533 30.083-2.86 39.61a12.636 12.636 0 0 1-1.21 6.8 6.529 6.529 0 0 1-5.53 3.75c-2.74.2-5.47-1.09-8.22-3.85-9.653-9.9-17.32-24.63-23-44.19a11390.712 11390.712 0 0 1-15 29.92c-6.1 11.733-11.326 17.75-15.68 18.05-2.826.2-5.233-2.173-7.22-7.12-5.333-13.58-11.053-39.853-17.16-78.82a8.879 8.879 0 0 1 1.63-7.07ZM236 38.19a24.105 24.105 0 0 0-16.6-12 27.768 27.768 0 0 0-5.64-.6c-9.947 0-18.073 5.177-24.38 15.53a55.187 55.187 0 0 0-8.07 29.25c0 8 1.667 14.856 5 20.57a24.055 24.055 0 0 0 16.61 12c1.85.4 3.737.605 5.63.61 10.047 0 18.17-5.177 24.37-15.53A55.879 55.879 0 0 0 241 58.6c0-8-1.667-14.803-5-20.41ZM222.9 67c-1.42 6.8-4.053 11.923-7.9 15.37-3.047 2.74-5.84 3.856-8.38 3.35-2.54-.507-4.577-2.747-6.11-6.72a26.814 26.814 0 0 1-1.83-9.45 37.15 37.15 0 0 1 .76-7.62 34.263 34.263 0 0 1 5.48-12.34c3.453-5.074 7.06-7.204 10.82-6.39 2.54.513 4.573 2.746 6.1 6.7a26.778 26.778 0 0 1 1.82 9.44 37.114 37.114 0 0 1-.76 7.66ZM170.92 38.19a24.105 24.105 0 0 0-16.6-12 27.768 27.768 0 0 0-5.64-.6c-9.953 0-18.077 5.177-24.37 15.53a55.096 55.096 0 0 0-8.08 29.25c0 8 1.667 14.856 5 20.57a23.994 23.994 0 0 0 16.61 12c1.85.4 3.737.605 5.63.61 10.053 0 18.18-5.177 24.38-15.53A56.002 56.002 0 0 0 176 58.6c0-8-1.667-14.803-5-20.41h-.08ZM157.82 67c-1.42 6.813-4.06 11.943-7.92 15.39-3.053 2.74-5.847 3.856-8.38 3.35-2.533-.507-4.563-2.753-6.09-6.74a26.814 26.814 0 0 1-1.83-9.45 37.15 37.15 0 0 1 .76-7.62 34.614 34.614 0 0 1 5.48-12.34c3.44-5.06 7.047-7.184 10.82-6.37 2.54.513 4.57 2.747 6.09 6.7a26.806 26.806 0 0 1 1.83 9.44c.01 2.56-.244 5.113-.76 7.62V67Z" fill="#fff"/></svg>
